<svg width="15" height="15" viewBox="0 0 15 15" fill="none" xmlns="http://www.w3.org/2000/svg">
<path d="M2.61028 11.7389H5.47135C5.56016 11.7394 5.64819 11.7224 5.73041 11.6888C5.81262 11.6552 5.8874 11.6057 5.95045 11.5432L10.6199 6.86697L12.5363 4.99108C12.5996 4.92835 12.6498 4.85372 12.684 4.77149C12.7183 4.68926 12.7359 4.60106 12.7359 4.51198C12.7359 4.4229 12.7183 4.33471 12.684 4.25248C12.6498 4.17025 12.5996 4.09562 12.5363 4.03289L9.67524 1.13808C9.61251 1.07483 9.53788 1.02463 9.45565 0.990372C9.37342 0.956114 9.28523 0.938477 9.19615 0.938477C9.10707 0.938477 9.01887 0.956114 8.93664 0.990372C8.85441 1.02463 8.77978 1.07483 8.71705 1.13808L6.81417 3.04771L2.13119 7.72394C2.06865 7.78699 2.01917 7.86177 1.98559 7.94398C1.95201 8.0262 1.93499 8.11423 1.9355 8.20304V11.0641C1.9355 11.2431 2.00659 11.4147 2.13314 11.5413C2.25969 11.6678 2.43132 11.7389 2.61028 11.7389ZM9.19615 2.56861L11.1058 4.47824L10.1476 5.43643L8.23796 3.5268L9.19615 2.56861ZM3.28506 8.4797L7.28652 4.47824L9.19615 6.38787L5.19469 10.3893H3.28506V8.4797ZM13.4068 13.0885H1.26072C1.08176 13.0885 0.910122 13.1595 0.783576 13.2861C0.65703 13.4126 0.585938 13.5843 0.585938 13.7632C0.585938 13.9422 0.65703 14.1138 0.783576 14.2404C0.910122 14.3669 1.08176 14.438 1.26072 14.438H13.4068C13.5857 14.438 13.7574 14.3669 13.8839 14.2404C14.0105 14.1138 14.0816 13.9422 14.0816 13.7632C14.0816 13.5843 14.0105 13.4126 13.8839 13.2861C13.7574 13.1595 13.5857 13.0885 13.4068 13.0885Z" fill="#37AA4C"/>
</svg>
