<svg width="20" height="21" viewBox="0 0 20 21" fill="none" xmlns="http://www.w3.org/2000/svg">
<path d="M17.1883 10.3693H2.60173C1.82378 10.3693 1.18359 9.72907 1.18359 8.95112V6.2607C1.18359 5.70965 1.56445 5.15051 2.07498 4.94791L9.36826 2.03062C9.6762 1.90906 10.1138 1.90906 10.4218 2.03062L17.7151 4.94791C18.2256 5.15051 18.6064 5.71776 18.6064 6.2607V8.95112C18.6064 9.72907 17.9663 10.3693 17.1883 10.3693ZM9.89502 3.14893C9.86261 3.14893 9.83021 3.14889 9.814 3.15699L2.52878 6.07433C2.48016 6.09865 2.39914 6.20398 2.39914 6.2607V8.95112C2.39914 9.06457 2.48828 9.15371 2.60173 9.15371H17.1883C17.3018 9.15371 17.3909 9.06457 17.3909 8.95112V6.2607C17.3909 6.20398 17.318 6.09865 17.2613 6.07433L9.96797 3.15699C9.95177 3.14889 9.92743 3.14893 9.89502 3.14893Z" fill="#37AA4C"/>
<path d="M17.9987 19.2832H1.79137C1.45912 19.2832 1.18359 19.0077 1.18359 18.6754V16.2443C1.18359 15.4664 1.82378 14.8262 2.60173 14.8262H17.1883C17.9663 14.8262 18.6064 15.4664 18.6064 16.2443V18.6754C18.6064 19.0077 18.3309 19.2832 17.9987 19.2832ZM2.39914 18.0676H17.3909V16.2443C17.3909 16.1309 17.3018 16.0417 17.1883 16.0417H2.60173C2.48828 16.0417 2.39914 16.1309 2.39914 16.2443V18.0676Z" fill="#37AA4C"/>
<path d="M3.41051 16.0414C3.07826 16.0414 2.80273 15.7659 2.80273 15.4337V9.76109C2.80273 9.42884 3.07826 9.15332 3.41051 9.15332C3.74276 9.15332 4.01828 9.42884 4.01828 9.76109V15.4337C4.01828 15.7659 3.74276 16.0414 3.41051 16.0414Z" fill="#37AA4C"/>
<path d="M6.6527 16.0414C6.32045 16.0414 6.04492 15.7659 6.04492 15.4337V9.76109C6.04492 9.42884 6.32045 9.15332 6.6527 9.15332C6.98495 9.15332 7.26047 9.42884 7.26047 9.76109V15.4337C7.26047 15.7659 6.98495 16.0414 6.6527 16.0414Z" fill="#37AA4C"/>
<path d="M9.89488 16.0414C9.56263 16.0414 9.28711 15.7659 9.28711 15.4337V9.76109C9.28711 9.42884 9.56263 9.15332 9.89488 9.15332C10.2271 9.15332 10.5027 9.42884 10.5027 9.76109V15.4337C10.5027 15.7659 10.2271 16.0414 9.89488 16.0414Z" fill="#37AA4C"/>
<path d="M13.1351 16.0414C12.8029 16.0414 12.5273 15.7659 12.5273 15.4337V9.76109C12.5273 9.42884 12.8029 9.15332 13.1351 9.15332C13.4674 9.15332 13.7429 9.42884 13.7429 9.76109V15.4337C13.7429 15.7659 13.4674 16.0414 13.1351 16.0414Z" fill="#37AA4C"/>
<path d="M16.3773 16.0414C16.0451 16.0414 15.7695 15.7659 15.7695 15.4337V9.76109C15.7695 9.42884 16.0451 9.15332 16.3773 9.15332C16.7096 9.15332 16.9851 9.42884 16.9851 9.76109V15.4337C16.9851 15.7659 16.7096 16.0414 16.3773 16.0414Z" fill="#37AA4C"/>
<path d="M18.8089 19.2829H0.980821C0.648571 19.2829 0.373047 19.0074 0.373047 18.6752C0.373047 18.3429 0.648571 18.0674 0.980821 18.0674H18.8089C19.1411 18.0674 19.4166 18.3429 19.4166 18.6752C19.4166 19.0074 19.1411 19.2829 18.8089 19.2829Z" fill="#37AA4C"/>
<path d="M9.89363 8.34293C8.88878 8.34293 8.07031 7.52446 8.07031 6.51961C8.07031 5.51476 8.88878 4.69629 9.89363 4.69629C10.8985 4.69629 11.717 5.51476 11.717 6.51961C11.717 7.52446 10.8985 8.34293 9.89363 8.34293ZM9.89363 5.91184C9.56138 5.91184 9.28586 6.18736 9.28586 6.51961C9.28586 6.85186 9.56138 7.12738 9.89363 7.12738C10.2259 7.12738 10.5014 6.85186 10.5014 6.51961C10.5014 6.18736 10.2259 5.91184 9.89363 5.91184Z" fill="#37AA4C"/>
</svg>
