<svg width="20" height="25" fill="none" xmlns="http://www.w3.org/2000/svg"><path d="M15.455 4.166H4.545a.953.953 0 00-.642.244.8.8 0 00-.266.589.8.8 0 00.266.589c.17.156.402.244.643.244h10.909a.953.953 0 00.643-.244.8.8 0 00.266-.59.8.8 0 00-.266-.588.953.953 0 00-.643-.244zm0 3.332H4.545a.953.953 0 00-.642.244.8.8 0 00-.266.59.8.8 0 00.266.588c.17.156.402.244.643.244h10.909a.953.953 0 00.643-.244.8.8 0 00.266-.589.8.8 0 00-.266-.589.953.953 0 00-.643-.244z" fill="#37AA4C"/><path d="M.91 24.994a.958.958 0 00.6-.209l2.963-1.333 2.29 1.4a.97.97 0 00.5.137.97.97 0 00.5-.137L10 23.519l2.227 1.333a.97.97 0 00.5.137.97.97 0 00.5-.137l2.291-1.4 2.964 1.333c.13.109.293.18.468.205a.986.986 0 00.513-.063.892.892 0 00.393-.31.783.783 0 00.144-.457V6.665a.8.8 0 00-.266-.59.953.953 0 00-.643-.243.953.953 0 00-.643.244.8.8 0 00-.266.589v16.13l-2.327-1.05a.98.98 0 00-.91.058l-2.218 1.358-2.218-1.333a.97.97 0 00-.495-.135.97.97 0 00-.496.135L7.273 23.16l-2.228-1.358a.98.98 0 00-.91-.058l-2.317 1.05V1.665h16.364v1.666a.8.8 0 00.266.59c.17.156.402.244.643.244a.953.953 0 00.643-.244.8.8 0 00.266-.59V.833a.8.8 0 00-.266-.589A.953.953 0 0019.09 0H.909a.953.953 0 00-.643.244.8.8 0 00-.266.59V24.16a.8.8 0 00.266.59c.17.156.402.244.643.244z" fill="#37AA4C"/></svg>