<svg width="26" height="27" viewBox="0 0 26 27" fill="none" xmlns="http://www.w3.org/2000/svg">
<g clip-path="url(#clip0_9864_14114)">
<path d="M25.5292 5.81292C25.1932 5.41574 24.7227 5.17314 24.2042 5.12984L5.94303 3.60506C5.4245 3.56175 4.92036 3.72296 4.52313 4.05891C4.12753 4.39353 3.88528 4.86166 3.84061 5.3776L3.47322 8.82444H2.00623C0.932307 8.82444 0.0585938 9.69815 0.0585938 10.7721V22.2032C0.0585938 23.2771 0.932307 24.1509 2.00623 24.1509H20.331C21.405 24.1509 22.2787 23.2771 22.2787 22.2032V20.3489L22.9289 20.4032C22.9838 20.4077 23.0383 20.41 23.0924 20.41C24.0936 20.41 24.9471 19.6397 25.0319 18.6243L25.9831 7.23286C26.0264 6.71438 25.8652 6.21014 25.5292 5.81292ZM2.00623 9.83738H20.331C20.8464 9.83738 21.2657 10.2567 21.2657 10.7721V11.8137H1.07154V10.7721C1.07154 10.2567 1.49084 9.83738 2.00623 9.83738ZM1.07154 12.8266H21.2657V14.9279H1.07154V12.8266ZM20.331 23.1379H2.00623C1.49084 23.1379 1.07154 22.7186 1.07154 22.2032V15.9409H21.2657V22.2032C21.2657 22.7186 20.8464 23.1379 20.331 23.1379ZM24.9737 7.14853L24.0225 18.54C23.9796 19.0536 23.5267 19.4368 23.0132 19.3937L22.2787 19.3324V10.7721C22.2787 9.69815 21.405 8.82444 20.331 8.82444H4.49194L4.84844 5.47971C4.84885 5.47586 4.8492 5.47206 4.8495 5.46816C4.8924 4.95455 5.34498 4.57145 5.85875 4.6145L24.12 6.13929C24.3688 6.16005 24.5946 6.27649 24.7558 6.46712C24.917 6.65776 24.9944 6.8997 24.9737 7.14853Z" fill="white"/>
<path d="M19.1465 17.4468H14.2721C13.9924 17.4468 13.7656 17.6735 13.7656 17.9533V21.1333C13.7656 21.4131 13.9924 21.6398 14.2721 21.6398H19.1465C19.4262 21.6398 19.653 21.4131 19.653 21.1333V17.9533C19.653 17.6735 19.4262 17.4468 19.1465 17.4468ZM18.64 20.6269H14.7786V18.4597H18.64V20.6269Z" fill="white"/>
</g>
<defs>
<clipPath id="clip0_9864_14114">
<rect width="25.9314" height="25.9314" fill="white" transform="translate(0.0585938 0.908691)"/>
</clipPath>
</defs>
</svg>
