<svg width="18" height="19" viewBox="0 0 18 19" fill="none" xmlns="http://www.w3.org/2000/svg">
<path d="M5.95882 4.76466C5.65461 4.76466 5.40234 4.51239 5.40234 4.20818V1.98226C5.40234 1.67805 5.65461 1.42578 5.95882 1.42578C6.26303 1.42578 6.5153 1.67805 6.5153 1.98226V4.20818C6.5153 4.51239 6.26303 4.76466 5.95882 4.76466Z" fill="#494949"/>
<path d="M11.8953 4.76466C11.5911 4.76466 11.3389 4.51239 11.3389 4.20818V1.98226C11.3389 1.67805 11.5911 1.42578 11.8953 1.42578C12.1996 1.42578 12.4518 1.67805 12.4518 1.98226V4.20818C12.4518 4.51239 12.1996 4.76466 11.8953 4.76466Z" fill="#494949"/>
<path d="M6.32986 11.2572C6.23341 11.2572 6.13695 11.2349 6.04791 11.1978C5.95146 11.1607 5.87726 11.1088 5.80306 11.042C5.66951 10.901 5.58789 10.7155 5.58789 10.5152C5.58789 10.4187 5.61015 10.3223 5.64725 10.2332C5.68435 10.1442 5.73629 10.0626 5.80306 9.98841C5.87726 9.92163 5.95146 9.86967 6.04791 9.83258C6.31502 9.72128 6.64891 9.78065 6.85666 9.98841C6.99022 10.1294 7.07184 10.3223 7.07184 10.5152C7.07184 10.5597 7.06442 10.6117 7.057 10.6636C7.04958 10.7081 7.03474 10.7526 7.01248 10.7972C6.99764 10.8417 6.97538 10.8862 6.9457 10.9307C6.92344 10.9678 6.88634 11.0049 6.85666 11.042C6.71569 11.1755 6.52278 11.2572 6.32986 11.2572Z" fill="#494949"/>
<path d="M8.92654 11.2566C8.83009 11.2566 8.73363 11.2343 8.64459 11.1972C8.54814 11.1601 8.47394 11.1082 8.39974 11.0414C8.26619 10.9004 8.18457 10.7149 8.18457 10.5146C8.18457 10.4181 8.20683 10.3217 8.24393 10.2326C8.28103 10.1436 8.33297 10.062 8.39974 9.9878C8.47394 9.92102 8.54814 9.86907 8.64459 9.83197C8.9117 9.71325 9.24559 9.78004 9.45334 9.9878C9.5869 10.1288 9.66852 10.3217 9.66852 10.5146C9.66852 10.5591 9.6611 10.6111 9.65368 10.663C9.64626 10.7075 9.63142 10.752 9.60916 10.7965C9.59432 10.8411 9.57206 10.8856 9.54238 10.9301C9.52012 10.9672 9.48302 11.0043 9.45334 11.0414C9.31237 11.1749 9.11946 11.2566 8.92654 11.2566Z" fill="#494949"/>
<path d="M11.5242 11.2566C11.4277 11.2566 11.3313 11.2343 11.2422 11.1972C11.1458 11.1601 11.0716 11.1082 10.9974 11.0414C10.9677 11.0043 10.938 10.9672 10.9084 10.9301C10.8787 10.8856 10.8564 10.8411 10.8416 10.7965C10.8193 10.752 10.8045 10.7075 10.7971 10.663C10.7896 10.6111 10.7822 10.5591 10.7822 10.5146C10.7822 10.3217 10.8638 10.1288 10.9974 9.9878C11.0716 9.92102 11.1458 9.86907 11.2422 9.83197C11.5168 9.71325 11.8432 9.78004 12.051 9.9878C12.1846 10.1288 12.2662 10.3217 12.2662 10.5146C12.2662 10.5591 12.2588 10.6111 12.2513 10.663C12.2439 10.7075 12.2291 10.752 12.2068 10.7965C12.192 10.8411 12.1697 10.8856 12.14 10.9301C12.1178 10.9672 12.0807 11.0043 12.051 11.0414C11.91 11.1749 11.7171 11.2566 11.5242 11.2566Z" fill="#494949"/>
<path d="M6.32986 13.8536C6.23341 13.8536 6.13695 13.8313 6.04791 13.7942C5.95888 13.7571 5.87726 13.7052 5.80306 13.6384C5.66951 13.4974 5.58789 13.3045 5.58789 13.1116C5.58789 13.0151 5.61015 12.9187 5.64725 12.8296C5.68435 12.7332 5.73629 12.6516 5.80306 12.5848C6.07759 12.3103 6.58213 12.3103 6.85666 12.5848C6.99022 12.7258 7.07184 12.9187 7.07184 13.1116C7.07184 13.3045 6.99022 13.4974 6.85666 13.6384C6.71569 13.7719 6.52278 13.8536 6.32986 13.8536Z" fill="#494949"/>
<path d="M8.92654 13.8536C8.73363 13.8536 8.54072 13.7719 8.39974 13.6384C8.26619 13.4974 8.18457 13.3045 8.18457 13.1116C8.18457 13.0151 8.20683 12.9187 8.24393 12.8296C8.28103 12.7332 8.33297 12.6516 8.39974 12.5848C8.67427 12.3103 9.17881 12.3103 9.45334 12.5848C9.52012 12.6516 9.57206 12.7332 9.60916 12.8296C9.64626 12.9187 9.66852 13.0151 9.66852 13.1116C9.66852 13.3045 9.5869 13.4974 9.45334 13.6384C9.31237 13.7719 9.11946 13.8536 8.92654 13.8536Z" fill="#494949"/>
<path d="M11.5242 13.8537C11.3313 13.8537 11.1384 13.7721 10.9974 13.6386C10.9306 13.5718 10.8787 13.4902 10.8416 13.3937C10.8045 13.3047 10.7822 13.2082 10.7822 13.1118C10.7822 13.0153 10.8045 12.9189 10.8416 12.8298C10.8787 12.7334 10.9306 12.6518 10.9974 12.585C11.1681 12.4143 11.4277 12.3327 11.6652 12.3846C11.7171 12.3921 11.7616 12.4069 11.8061 12.4291C11.8507 12.444 11.8952 12.4663 11.9397 12.4959C11.9768 12.5182 12.0139 12.5553 12.051 12.585C12.1846 12.726 12.2662 12.9189 12.2662 13.1118C12.2662 13.3047 12.1846 13.4976 12.051 13.6386C11.91 13.7721 11.7171 13.8537 11.5242 13.8537Z" fill="#494949"/>
<path d="M15.2335 7.79851H2.61996C2.31575 7.79851 2.06348 7.54624 2.06348 7.24203C2.06348 6.93782 2.31575 6.68555 2.61996 6.68555H15.2335C15.5377 6.68555 15.79 6.93782 15.79 7.24203C15.79 7.54624 15.5377 7.79851 15.2335 7.79851Z" fill="#494949"/>
<path d="M11.8955 17.3785H5.9597C3.2515 17.3785 1.69336 15.8204 1.69336 13.1122V6.80541C1.69336 4.09721 3.2515 2.53906 5.9597 2.53906H11.8955C14.6037 2.53906 16.1618 4.09721 16.1618 6.80541V13.1122C16.1618 15.8204 14.6037 17.3785 11.8955 17.3785ZM5.9597 3.65202C3.83766 3.65202 2.80632 4.68336 2.80632 6.80541V13.1122C2.80632 15.2342 3.83766 16.2656 5.9597 16.2656H11.8955C14.0175 16.2656 15.0489 15.2342 15.0489 13.1122V6.80541C15.0489 4.68336 14.0175 3.65202 11.8955 3.65202H5.9597Z" fill="#494949"/>
</svg>
