<svg width="16" height="16" viewBox="0 0 16 16" fill="none" xmlns="http://www.w3.org/2000/svg">
<path d="M3.58697 10.1797L3.58677 10.1795C2.40833 8.76353 1.6116 7.43395 1.08302 5.99929C0.738368 5.0711 0.601973 4.29405 0.660543 3.55731L0.660583 3.5568C0.710791 2.95746 0.953373 2.43788 1.37972 2.01153L2.4974 0.893851L2.49944 0.891818L2.49946 0.891843C2.83773 0.569381 3.23093 0.395439 3.64628 0.395439C4.06389 0.395439 4.45425 0.568822 4.78114 0.888834C4.98643 1.07911 5.19406 1.28979 5.39108 1.49278C5.39109 1.49279 5.3911 1.49281 5.39111 1.49282L5.39907 1.50102C5.49795 1.6028 5.59353 1.7012 5.69468 1.80234L6.58484 2.69251C6.58492 2.69259 6.585 2.69267 6.58508 2.69274C6.92882 3.03343 7.11652 3.43625 7.11652 3.85373C7.11652 4.27173 6.92539 4.6744 6.58524 5.01455C6.49247 5.10732 6.40053 5.19926 6.31168 5.29108L6.31128 5.29149C6.07647 5.53182 5.83215 5.77918 5.57238 6.01794C5.76529 6.44195 6.03707 6.86612 6.43559 7.37062C7.27435 8.39892 8.14937 9.19637 9.11084 9.80687L9.11094 9.80694C9.20372 9.86598 9.30921 9.9203 9.42889 9.98014L9.43023 9.98081C9.50003 10.0157 9.57495 10.0532 9.6502 10.0939L10.6559 9.08819C10.988 8.75603 11.3849 8.57185 11.8048 8.57185C12.2245 8.57185 12.6188 8.75594 12.9425 9.09201L14.7377 10.8872C15.0781 11.2276 15.2548 11.6282 15.2556 12.0385C15.2564 12.4484 15.0816 12.8538 14.7455 13.2041C14.7455 13.2041 14.7455 13.2041 14.7455 13.2041L14.6587 13.1209C14.5213 13.2644 14.3778 13.4048 14.2374 13.5393L3.58697 10.1797ZM3.58697 10.1797C5.02022 11.893 6.7461 13.2425 8.71606 14.1973L8.71702 14.1978C9.46396 14.5518 10.4762 14.9786 11.6087 15.0519L11.6087 15.0519L11.6113 15.052L11.6203 15.0524C11.6854 15.0552 11.751 15.0581 11.8197 15.0581C12.5953 15.0581 13.225 14.7885 13.7354 14.2351C13.7378 14.2327 13.7417 14.2286 13.7459 14.2238C13.7489 14.2203 13.7535 14.2147 13.7584 14.2073C13.9142 14.0202 14.09 13.8497 14.2797 13.6656C14.2933 13.6525 14.307 13.6392 14.3207 13.6259L3.58697 10.1797ZM9.04342 10.7481C9.02184 10.737 9 10.726 8.978 10.7149C8.86899 10.6598 8.75587 10.6025 8.64895 10.5329C7.60897 9.87247 6.66462 9.01479 5.76808 7.90906L9.04342 10.7481ZM9.04342 10.7481C9.16296 10.8079 9.27353 10.8646 9.37215 10.9274L9.04342 10.7481ZM9.35055 11.0525C9.46411 11.1109 9.5783 11.1402 9.69491 11.1402C9.98617 11.1402 10.1721 10.9548 10.2252 10.9018L11.3429 9.78413C11.5017 9.62529 11.6612 9.55336 11.8048 9.55336C11.9822 9.55336 12.1377 9.66467 12.2456 9.78092L12.2456 9.78098L12.2488 9.7842L14.0508 11.5832C14.0508 11.5832 14.0508 11.5832 14.0508 11.5832C14.2149 11.7474 14.2835 11.9049 14.2823 12.0527C14.2811 12.2015 14.2091 12.3656 14.0401 12.5416L14.0389 12.5428C13.9158 12.6748 13.7863 12.8014 13.6462 12.9355L13.6456 12.9361C13.6338 12.9475 13.622 12.959 13.6102 12.9704C13.4132 13.1617 13.2046 13.3641 13.0145 13.5913C12.6953 13.9345 12.319 14.0945 11.8227 14.0945C11.776 14.0945 11.7256 14.0918 11.6747 14.0888C10.7188 14.0275 9.82497 13.6538 9.14328 13.3294C7.30025 12.4374 5.68223 11.1722 4.33932 9.56546C3.23151 8.23192 2.48922 6.99439 1.99878 5.67079L1.99863 5.67039C1.69471 4.85895 1.58346 4.21699 1.62929 3.63977C1.66275 3.27029 1.80307 2.96511 2.06968 2.6985L3.18062 1.58756C3.33749 1.43638 3.50001 1.36798 3.64628 1.36798C3.78818 1.36798 3.94429 1.43514 4.09848 1.59203L4.09838 1.59213L4.10257 1.596C4.27393 1.75457 4.43637 1.91974 4.60968 2.09596C4.63618 2.1229 4.66293 2.1501 4.69 2.17758C4.74107 2.23014 4.79283 2.28265 4.8446 2.33517L4.84553 2.33611C4.8972 2.38852 4.94889 2.44096 5.00054 2.49408L5.00053 2.49409L5.00173 2.49529L5.89229 3.38585C6.06493 3.55849 6.138 3.71799 6.138 3.8597C6.138 4.00142 6.06493 4.16092 5.89229 4.33356C5.84565 4.3802 5.79906 4.42754 5.75288 4.47447L5.75265 4.4747C5.70627 4.52183 5.66028 4.56855 5.61436 4.61447L5.61391 4.61493C5.59308 4.63599 5.57237 4.65694 5.55176 4.67778C5.2965 4.936 5.05697 5.17831 4.79486 5.41038L4.79471 5.41022L4.78955 5.41538L4.77461 5.43032C4.63347 5.57146 4.56756 5.71661 4.55016 5.85814C4.53314 5.9966 4.56404 6.12044 4.59615 6.21675C4.5989 6.22499 4.60162 6.23174 4.60306 6.23533L4.60511 6.24066L4.60481 6.24076L4.60817 6.24884C4.84355 6.81435 5.16982 7.34984 5.67401 7.98386L5.67401 7.98387L5.67473 7.98475C6.57814 9.09896 7.53178 9.96573 8.58392 10.634C8.6967 10.7074 8.81655 10.768 8.9254 10.823C8.94697 10.8339 8.96811 10.8446 8.98868 10.8551L8.98967 10.8556C9.10936 10.9154 9.21484 10.9697 9.30763 11.0288L9.30729 11.0293L9.3184 11.0349C9.32098 11.0362 9.32347 11.0376 9.32896 11.0407L9.32955 11.041C9.33442 11.0438 9.34185 11.0481 9.35055 11.0525ZM9.35055 11.0525C9.35036 11.0524 9.35018 11.0523 9.34999 11.0522L9.40503 10.9453L9.35128 11.0528C9.35104 11.0527 9.3508 11.0526 9.35055 11.0525Z" fill="#37AA4C" stroke="#37AA4C" stroke-width="0.240371"/>
</svg>
