<svg width="20" height="25" viewBox="0 0 20 25" fill="none" xmlns="http://www.w3.org/2000/svg">
<path d="M10.2978 14.0987C9.17326 14.1 8.08303 13.7115 7.21275 12.9993C6.34247 12.2871 5.74596 11.2953 5.5248 10.1927C5.50717 10.0766 5.51501 9.95801 5.54776 9.8452C5.58051 9.73238 5.6374 9.62804 5.71448 9.53939C5.79156 9.45075 5.887 9.37992 5.99417 9.33182C6.10134 9.28372 6.21769 9.2595 6.33516 9.26083C6.52821 9.25802 6.71592 9.32423 6.86449 9.44754C7.01305 9.57085 7.11271 9.74316 7.14551 9.93342C7.29813 10.6619 7.69678 11.3156 8.27449 11.7848C8.85221 12.2541 9.5738 12.5102 10.3181 12.5102C11.0623 12.5102 11.7839 12.2541 12.3616 11.7848C12.9393 11.3156 13.338 10.6619 13.4906 9.93342C13.5234 9.74316 13.6231 9.57085 13.7716 9.44754C13.9202 9.32423 14.1079 9.25802 14.301 9.26083C14.4184 9.2595 14.5348 9.28372 14.6419 9.33182C14.7491 9.37992 14.8446 9.45075 14.9216 9.53939C14.9987 9.62804 15.0556 9.73238 15.0884 9.8452C15.1211 9.95801 15.1289 10.0766 15.1113 10.1927C14.8888 11.3022 14.2864 12.2993 13.4077 13.0123C12.5291 13.7252 11.4293 14.1094 10.2978 14.0987Z" fill="white"/>
<path d="M17.5088 24.7796H3.0845C2.75476 24.78 2.42838 24.7133 2.12521 24.5836C1.82205 24.4539 1.54844 24.2639 1.32103 24.0251C1.09362 23.7863 0.917165 23.5038 0.802396 23.1946C0.687627 22.8855 0.636944 22.5563 0.653432 22.2269L1.30982 8.25639C1.33699 7.63006 1.60506 7.03844 2.05806 6.60507C2.51107 6.1717 3.11397 5.93008 3.74089 5.93067H16.8525C17.4794 5.93008 18.0823 6.1717 18.5353 6.60507C18.9883 7.03844 19.2564 7.63006 19.2835 8.25639L19.9399 22.2269C19.9564 22.5563 19.9057 22.8855 19.7909 23.1946C19.6762 23.5038 19.4997 23.7863 19.2723 24.0251C19.0449 24.2639 18.7713 24.4539 18.4681 24.5836C18.165 24.7133 17.8386 24.78 17.5088 24.7796ZM3.74089 7.55948C3.52597 7.55948 3.31985 7.64486 3.16788 7.79683C3.01591 7.9488 2.93053 8.15492 2.93053 8.36984L2.27414 22.308C2.26865 22.4177 2.28554 22.5275 2.3238 22.6305C2.36206 22.7336 2.42087 22.8278 2.49668 22.9074C2.57248 22.9869 2.66368 23.0503 2.76474 23.0935C2.86579 23.1368 2.97459 23.159 3.0845 23.1588H17.5088C17.6188 23.159 17.7276 23.1368 17.8286 23.0935C17.9297 23.0503 18.0209 22.9869 18.0967 22.9074C18.1725 22.8278 18.2313 22.7336 18.2695 22.6305C18.3078 22.5275 18.3247 22.4177 18.3192 22.308L17.6628 8.33742C17.6628 8.1225 17.5774 7.91639 17.4255 7.76442C17.2735 7.61244 17.0674 7.52707 16.8525 7.52707L3.74089 7.55948Z" fill="white"/>
<path d="M15.1579 6.74901H13.5372V5.33089C13.5372 4.47121 13.1957 3.64674 12.5878 3.03885C11.9799 2.43097 11.1554 2.08946 10.2957 2.08946C9.43605 2.08946 8.61158 2.43097 8.0037 3.03885C7.39581 3.64674 7.05431 4.47121 7.05431 5.33089V6.74901H5.43359V5.33089C5.43359 4.04137 5.94585 2.80467 6.85768 1.89284C7.76951 0.98101 9.00621 0.46875 10.2957 0.46875C11.5853 0.46875 12.822 0.98101 13.7338 1.89284C14.6456 2.80467 15.1579 4.04137 15.1579 5.33089V6.74901Z" fill="white"/>
</svg>
