<svg width="27" height="27" fill="none" xmlns="http://www.w3.org/2000/svg"><path d="M10.758 9.821l.58 2.096c.546 1.975.818 2.962 1.62 3.411.802.45 1.82.185 3.856-.344l2.16-.563c2.037-.528 3.055-.793 3.518-1.57.464-.779.191-1.766-.355-3.74l-.579-2.095c-.545-1.976-.819-2.964-1.62-3.413-.803-.45-1.82-.184-3.857.346l-2.16.56c-2.036.529-3.054.794-3.517 1.573-.463.777-.191 1.765.354 3.74z" fill="#000"/><path d="M2.562 5.903a.844.844 0 011.04-.587l1.915.53A3.045 3.045 0 017.65 7.96l2.42 8.76.178.615a3.33 3.33 0 011.712 1.425l.349-.108 9.979-2.593a.843.843 0 01.425 1.634l-9.942 2.583-.371.115c-.007 1.428-.993 2.735-2.486 3.122-1.789.466-3.628-.564-4.108-2.299-.479-1.736.583-3.52 2.372-3.985.088-.023.177-.042.266-.058l-2.42-8.762a1.358 1.358 0 00-.957-.935L3.15 6.941a.844.844 0 01-.588-1.038z" fill="#000"/></svg>