<svg width="31" height="31" viewBox="0 0 31 31" fill="none" xmlns="http://www.w3.org/2000/svg">
<path fill-rule="evenodd" clip-rule="evenodd" d="M16.2245 0.718725C24.4811 1.11531 30.8528 8.13007 30.4563 16.3866C29.3371 28.3203 17.4039 30.8238 11.5772 30.5838C8.79042 30.5554 5.12897 30.4774 2.69878 30.3348C1.93771 30.2902 1.55968 29.4312 2.01829 28.8221L3.40502 26.9806C3.97285 26.2266 3.91479 25.1836 3.36251 24.4181C1.44901 21.7659 0.387512 18.4711 0.556615 14.9505C0.953198 6.69391 7.96796 0.322142 16.2245 0.718725ZM7.73329 12.9134C7.73329 12.0964 8.39561 11.4341 9.21261 11.4341H21.0567C21.8738 11.4341 22.5361 12.0964 22.5361 12.9134C22.5361 13.7304 21.8738 14.3927 21.0567 14.3927H9.21261C8.39561 14.3927 7.73329 13.7304 7.73329 12.9134ZM7.73331 18.7347C7.72991 17.9177 8.38947 17.2527 9.20647 17.2493L17.486 17.2149C18.303 17.2115 18.9681 17.871 18.9715 18.688C18.9749 19.505 18.3153 20.1701 17.4983 20.1735L9.21876 20.2079C8.40176 20.2113 7.7367 19.5517 7.73331 18.7347Z" fill="#9B51E0"/>
</svg>
