<svg width="16" height="15" viewBox="0 0 16 15" fill="none" xmlns="http://www.w3.org/2000/svg">
<path d="M10.5499 8.96306L8.53904 7.45491V4.3828C8.53904 4.0739 8.28935 3.82422 7.98046 3.82422C7.67156 3.82422 7.42188 4.0739 7.42188 4.3828V7.73423C7.42188 7.91017 7.50455 8.07609 7.64531 8.1811L9.87958 9.85681C9.976 9.92943 10.0935 9.96865 10.2142 9.96853C10.3845 9.96853 10.5521 9.892 10.6616 9.74454C10.8471 9.49817 10.7968 9.14795 10.5499 8.96306Z" fill="#37AA4C"/>
<path d="M7.97872 0.438454C3.98013 0.438454 0.727516 3.69106 0.727516 7.68965C0.727516 11.6882 3.98013 14.9409 7.97872 14.9409C11.9773 14.9409 15.2299 11.6882 15.2299 7.68965C15.2299 3.69106 11.9773 0.438454 7.97872 0.438454ZM7.97872 13.7436C4.64104 13.7436 1.92477 11.0273 1.92477 7.68965C1.92477 4.35198 4.64104 1.63571 7.97872 1.63571C11.317 1.63571 14.0327 4.35198 14.0327 7.68965C14.0327 11.0273 11.3164 13.7436 7.97872 13.7436Z" fill="#37AA4C" stroke="#37AA4C" stroke-width="0.0801238"/>
</svg>
