<svg width="15" height="15" viewBox="0 0 15 15" fill="none" xmlns="http://www.w3.org/2000/svg">
<path d="M8.77268 7.25833L14.1777 1.90984C14.5294 1.56194 14.5294 0.999413 14.1777 0.651552C13.8261 0.303649 13.2576 0.303649 12.9061 0.651552L7.50093 6L2.09598 0.651552C1.74422 0.303649 1.17595 0.303649 0.824364 0.651552C0.472608 0.999455 0.472608 1.56194 0.824364 1.90984L6.22928 7.25833L0.824406 12.6068C0.47265 12.9547 0.47265 13.5172 0.824406 13.8651C0.907804 13.9478 1.00691 14.0135 1.11602 14.0582C1.22513 14.1029 1.3421 14.1259 1.46021 14.1258C1.69039 14.1258 1.92065 14.0386 2.09602 13.8651L7.50093 8.51662L12.9061 13.8651C12.9895 13.9478 13.0886 14.0134 13.1977 14.0582C13.3068 14.1029 13.4238 14.1259 13.5419 14.1258C13.7721 14.1258 14.0023 14.0386 14.1777 13.8651C14.5294 13.5172 14.5294 12.9547 14.1777 12.6068L8.77268 7.25833Z" fill="#ffffff"/>
</svg>
