<svg width="18" height="18" fill="none" xmlns="http://www.w3.org/2000/svg"><path fill-rule="evenodd" clip-rule="evenodd" d="M4.316.769a42.502 42.502 0 019.366 0c1.827.204 3.302 1.643 3.516 3.48.37 3.157.37 6.346 0 9.503-.215 1.837-1.69 3.275-3.516 3.48a42.495 42.495 0 01-9.366 0C2.49 17.027 1.014 15.589.8 13.752a40.903 40.903 0 010-9.503C1.014 2.412 2.49.973 4.316.769zm9.2 1.49a41 41 0 00-9.034 0A2.486 2.486 0 002.29 4.424a39.402 39.402 0 000 9.154 2.486 2.486 0 002.193 2.164c2.977.332 6.057.332 9.034 0a2.486 2.486 0 002.192-2.164c.356-3.04.356-6.113 0-9.154a2.486 2.486 0 00-2.192-2.163" fill="#F6B800"/></svg>