<svg width="24" height="24" fill="none" xmlns="http://www.w3.org/2000/svg"><path d="M12.427 16.315a3.834 3.834 0 100-7.669 3.834 3.834 0 000 7.67z" fill="#37AC4E"/><path d="M23.45 11.522h-2.452a8.64 8.64 0 00-7.612-7.612V1.457a.481.481 0 00-.48-.48h-.958a.48.48 0 00-.48.48V3.91a8.64 8.64 0 00-7.612 7.612H1.403a.48.48 0 00-.48.48v.958a.479.479 0 00.48.48h2.453a8.64 8.64 0 007.612 7.612v2.453a.479.479 0 00.48.479h.958a.481.481 0 00.48-.48v-2.453a8.64 8.64 0 007.612-7.612h2.453a.48.48 0 00.48-.479v-.959a.481.481 0 00-.48-.479zm-11.023 7.669c-3.7 0-6.71-3.01-6.71-6.71s3.01-6.71 6.71-6.71 6.71 3.01 6.71 6.71-3.01 6.71-6.71 6.71z" fill="#37AC4E"/></svg>