<svg width="20" height="21" viewBox="0 0 20 21" fill="none" xmlns="http://www.w3.org/2000/svg">
<path d="M17.9987 8.3093H1.79137C1.45912 8.3093 1.18359 8.03377 1.18359 7.70152C1.18359 7.36927 1.45912 7.09375 1.79137 7.09375H17.9987C18.3309 7.09375 18.6064 7.36927 18.6064 7.70152C18.6064 8.03377 18.3309 8.3093 17.9987 8.3093Z" fill="#37AC4E"/>
<path d="M6.65233 14.7922H5.0316C4.69935 14.7922 4.42383 14.5167 4.42383 14.1844C4.42383 13.8522 4.69935 13.5767 5.0316 13.5767H6.65233C6.98458 13.5767 7.26011 13.8522 7.26011 14.1844C7.26011 14.5167 6.98458 14.7922 6.65233 14.7922Z" fill="#37AC4E"/>
<path d="M11.9195 14.7922H8.67809C8.34584 14.7922 8.07031 14.5167 8.07031 14.1844C8.07031 13.8522 8.34584 13.5767 8.67809 13.5767H11.9195C12.2518 13.5767 12.5273 13.8522 12.5273 14.1844C12.5273 14.5167 12.2518 14.7922 11.9195 14.7922Z" fill="#37AC4E"/>
<path d="M14.4007 18.0337H5.38939C2.16414 18.0337 1.18359 17.0613 1.18359 13.8685V7.20727C1.18359 4.01443 2.16414 3.04199 5.38939 3.04199H14.3925C17.6178 3.04199 18.5983 4.01443 18.5983 7.20727V13.8604C18.6064 17.0613 17.6259 18.0337 14.4007 18.0337ZM5.38939 4.25754C2.84484 4.25754 2.39914 4.69514 2.39914 7.20727V13.8604C2.39914 16.3725 2.84484 16.8101 5.38939 16.8101H14.3925C16.9371 16.8101 17.3828 16.3725 17.3828 13.8604V7.20727C17.3828 4.69514 16.9371 4.25754 14.3925 4.25754H5.38939Z" fill="#37AC4E"/>
</svg>
