<svg width="11" height="15" viewBox="0 0 11 15" fill="none" xmlns="http://www.w3.org/2000/svg">
<path d="M10.0681 5.9225L9.84339 12.7246C9.82425 13.3072 9.57884 13.8593 9.15926 14.2639C8.73967 14.6685 8.17893 14.8937 7.59606 14.8916H3.32613C2.74364 14.8937 2.18323 14.6688 1.7637 14.2647C1.34418 13.8606 1.09852 13.309 1.0788 12.7269L0.854071 5.9225C0.849154 5.77349 0.903631 5.62864 1.00552 5.51979C1.10741 5.41095 1.24836 5.34704 1.39736 5.34213C1.54637 5.33721 1.69123 5.39169 1.80007 5.49357C1.90891 5.59546 1.97282 5.73641 1.97774 5.88542L2.20247 12.6892C2.21366 12.9797 2.33697 13.2545 2.5465 13.4559C2.75602 13.6574 3.03547 13.7698 3.32613 13.7696H7.59606C7.88711 13.7698 8.16687 13.6571 8.37646 13.4551C8.58605 13.2532 8.70911 12.9778 8.71973 12.687L8.94446 5.88542C8.94938 5.73641 9.01329 5.59546 9.12213 5.49357C9.23097 5.39169 9.37583 5.33721 9.52483 5.34213C9.67384 5.34704 9.81479 5.41095 9.91668 5.51979C10.0186 5.62864 10.073 5.77349 10.0681 5.9225ZM10.8114 3.65888C10.8114 3.80788 10.7522 3.95079 10.6469 4.05615C10.5415 4.16152 10.3986 4.22071 10.2496 4.22071H0.673161C0.524154 4.22071 0.381249 4.16152 0.275885 4.05615C0.170521 3.95079 0.111328 3.80788 0.111328 3.65888C0.111328 3.50987 0.170521 3.36696 0.275885 3.2616C0.381249 3.15624 0.524154 3.09704 0.673161 3.09704H2.41484C2.59286 3.09752 2.76468 3.03175 2.89688 2.91254C3.02908 2.79332 3.1122 2.62918 3.13006 2.45206C3.17152 2.03658 3.36617 1.65141 3.6761 1.3716C3.98602 1.0918 4.38902 0.937396 4.80656 0.938482H6.11563C6.53318 0.937396 6.93617 1.0918 7.2461 1.3716C7.55603 1.65141 7.75068 2.03658 7.79214 2.45206C7.81 2.62918 7.89312 2.79332 8.02531 2.91254C8.15751 3.03175 8.32934 3.09752 8.50736 3.09704H10.249C10.398 3.09704 10.5409 3.15624 10.6463 3.2616C10.7517 3.36696 10.8109 3.50987 10.8109 3.65888H10.8114ZM4.1054 3.09704H6.81793C6.7441 2.92835 6.69581 2.7496 6.67466 2.56667C6.66074 2.42819 6.59591 2.2998 6.49274 2.20638C6.38956 2.11296 6.25538 2.06116 6.1162 2.06102H4.80713C4.66794 2.06116 4.53376 2.11296 4.43059 2.20638C4.32741 2.2998 4.26258 2.42819 4.24866 2.56667C4.22733 2.74963 4.17942 2.92838 4.1054 3.09704ZM4.67116 11.6094V6.82537C4.67116 6.67636 4.61197 6.53345 4.50661 6.42809C4.40124 6.32273 4.25834 6.26353 4.10933 6.26353C3.96032 6.26353 3.81742 6.32273 3.71205 6.42809C3.60669 6.53345 3.5475 6.67636 3.5475 6.82537V11.6116C3.5475 11.7606 3.60669 11.9035 3.71205 12.0089C3.81742 12.1143 3.96032 12.1735 4.10933 12.1735C4.25834 12.1735 4.40124 12.1143 4.50661 12.0089C4.61197 11.9035 4.67116 11.7606 4.67116 11.6116V11.6094ZM7.37583 11.6094V6.82537C7.37583 6.67636 7.31663 6.53345 7.21127 6.42809C7.1059 6.32273 6.963 6.26353 6.81399 6.26353C6.66499 6.26353 6.52208 6.32273 6.41672 6.42809C6.31135 6.53345 6.25216 6.67636 6.25216 6.82537V11.6116C6.25216 11.7606 6.31135 11.9035 6.41672 12.0089C6.52208 12.1143 6.66499 12.1735 6.81399 12.1735C6.963 12.1735 7.1059 12.1143 7.21127 12.0089C7.31663 11.9035 7.37583 11.7606 7.37583 11.6116V11.6094Z" fill="#37AA4C"/>
</svg>
