<svg width="20" height="24" fill="none" xmlns="http://www.w3.org/2000/svg"><path d="M16.86 6.256A9.955 9.955 0 0010 3.538c-.05 0-.102.007-.152.008l-.002-.008A4.22 4.22 0 005.77.462c-2.33 0-4.23 1.9-4.23 4.23 0 .623.246 1.416.761 2.462l.006.01A9.938 9.938 0 000 13.54a9.957 9.957 0 003.59 7.673A9.966 9.966 0 0010 23.538c5.514 0 10-4.485 10-10a10.06 10.06 0 00-3.14-7.282zM5.77 2a2.675 2.675 0 012.692 2.692c0 .128-.023.278-.066.446A6.312 6.312 0 018.01 6.16c-.027.059-.047.111-.075.171-.014.03-.033.062-.047.091-.473.967-1.168 2.094-1.836 3.08-.094.138-.188.28-.28.41-.26-.374-.579-.846-.905-1.36L4.86 8.54a24.924 24.924 0 01-.956-1.63l-.008-.013c-.71-1.346-.818-1.96-.818-2.205A2.695 2.695 0 015.769 2zM1.537 13.538c0-1.779.55-3.485 1.563-4.905.061.099.123.19.184.29.03.054.061.108.1.162l.026.041.111.179c.096.155.192.311.286.457 0 0 .007 0 .007.007.116.177.231.346.339.508.108.162.215.315.308.454.083.115.155.215.223.313l.046.065v.006l.173.236.054.074.019.029.035.045.141.192v.001l.004.003a.768.768 0 00.957.223c.058-.029.1-.082.15-.125.04-.035.089-.058.121-.1A44.194 44.194 0 007.83 9.616c.024-.042.05-.083.075-.124.52-.812 1.064-1.738 1.467-2.617.01-.022.025-.045.035-.067.042-.103.086-.204.127-.303a9.15 9.15 0 00.15-.388l.03-.079.004-.01.046-.133c.009-.026.02-.055.027-.08.027-.083.047-.162.07-.242.007-.029.017-.06.025-.088.03-.123.055-.24.072-.355.003-.017.008-.036.01-.053H10c2.1 0 4.094.77 5.644 2.16.496 1.87.28 3.728-.616 5.126-.844 1.32-2.246 2.157-4.056 2.422-2.757.407-5.165 2.022-7.021 4.665a8.422 8.422 0 01-2.413-5.911zM10 22a8.442 8.442 0 01-4.875-1.547c1.633-2.389 3.67-3.791 6.072-4.146 2.262-.332 4.035-1.409 5.127-3.114.686-1.071 1.054-2.343 1.107-3.688a8.493 8.493 0 011.03 4.034C18.462 18.204 14.667 22 10 22z" fill="#37AA4C"/><path d="M5.5 6.462a1.5 1.5 0 100-3 1.5 1.5 0 000 3z" fill="#37AA4C"/></svg>