<svg width="17" height="17" viewBox="0 0 17 17" fill="none" xmlns="http://www.w3.org/2000/svg">
<path d="M5.78125 3.81489L7.87497 2.19395C8.14512 1.92379 8.75298 1.78872 9.15821 1.78872H11.7247C12.5352 1.78872 13.4132 2.39657 13.6158 3.20704L15.2367 8.13741C15.5744 9.08296 14.9666 9.89343 13.9535 9.89343H11.2519C10.8467 9.89343 10.509 10.2311 10.5765 10.7039L10.9142 12.8652C11.0493 13.473 10.6441 14.1484 10.0362 14.351C9.49591 14.5536 8.82052 14.2835 8.55036 13.8782L5.78125 9.75835" stroke="#0B0F0E" stroke-width="1.21571" stroke-miterlimit="10"/>
<path d="M2.33691 3.81666V10.4355C2.33691 11.3811 2.74215 11.7188 3.6877 11.7188H4.36309C5.30864 11.7188 5.71388 11.3811 5.71388 10.4355V3.81666C5.71388 2.87111 5.30864 2.53341 4.36309 2.53341H3.6877C2.74215 2.53341 2.33691 2.87111 2.33691 3.81666Z" stroke="#0B0F0E" stroke-width="1.21571" stroke-linecap="round" stroke-linejoin="round"/>
</svg>
