<svg width="31" height="30" viewBox="0 0 31 30" fill="none" xmlns="http://www.w3.org/2000/svg">
<circle cx="15.4547" cy="14.8922" r="14.857" fill="#37AA4C"/>
<path fill-rule="evenodd" clip-rule="evenodd" d="M20.2409 11.2268C20.2986 11.1691 20.3444 11.1006 20.3757 11.0252C20.4069 10.9498 20.423 10.869 20.4231 10.7874C20.4231 10.7057 20.4071 10.6249 20.3759 10.5495C20.3448 10.474 20.2991 10.4055 20.2414 10.3477C20.1838 10.29 20.1154 10.2442 20.04 10.2129C19.9647 10.1816 19.884 10.1655 19.8024 10.1654C19.7208 10.1654 19.6401 10.1814 19.5647 10.2126C19.4893 10.2438 19.4208 10.2895 19.3631 10.3472L15.6177 14.0957L11.8734 10.3472C11.7568 10.2306 11.5988 10.165 11.4339 10.165C11.2691 10.165 11.1111 10.2306 10.9945 10.3472C10.878 10.4638 10.8125 10.622 10.8125 10.787C10.8125 10.9519 10.878 11.1101 10.9945 11.2268L14.7399 14.9742L10.9945 18.7215C10.9368 18.7793 10.891 18.8479 10.8598 18.9233C10.8286 18.9988 10.8125 19.0797 10.8125 19.1613C10.8125 19.243 10.8286 19.3239 10.8598 19.3993C10.891 19.4748 10.9368 19.5434 10.9945 19.6011C11.1111 19.7178 11.2691 19.7833 11.4339 19.7833C11.5156 19.7833 11.5964 19.7672 11.6718 19.7359C11.7472 19.7047 11.8157 19.6589 11.8734 19.6011L15.6177 15.8527L19.3631 19.6011C19.4797 19.7176 19.6377 19.783 19.8024 19.7829C19.9671 19.7828 20.125 19.7172 20.2414 19.6006C20.3578 19.4839 20.4232 19.3258 20.4231 19.1609C20.423 18.9961 20.3574 18.838 20.2409 18.7215L16.4955 14.9742L20.2409 11.2268Z" fill="white"/>
</svg>
