<svg width="17" height="17" viewBox="0 0 17 17" fill="none" xmlns="http://www.w3.org/2000/svg">
<path d="M9.95001 5.33033C9.82058 5.33033 9.69115 5.28265 9.58898 5.18047L8.20616 3.79766L6.82335 5.18047C6.6258 5.37802 6.29883 5.37802 6.10128 5.18047C5.90374 4.98293 5.90374 4.65596 6.10128 4.45841L7.84513 2.71457C8.04268 2.51702 8.36965 2.51702 8.56719 2.71457L10.311 4.45841C10.5086 4.65596 10.5086 4.98293 10.311 5.18047C10.2089 5.28265 10.0794 5.33033 9.95001 5.33033Z" fill="#096C1B"/>
<path d="M8.20621 10.5608C7.92692 10.5608 7.69531 10.3292 7.69531 10.0499V3.12222C7.69531 2.84293 7.92692 2.61133 8.20621 2.61133C8.48549 2.61133 8.7171 2.84293 8.7171 3.12222V10.0499C8.7171 10.336 8.48549 10.5608 8.20621 10.5608Z" fill="#096C1B"/>
<path d="M8.28756 14.524C4.77943 14.524 2.32715 12.0718 2.32715 8.56363C2.32715 8.28434 2.55875 8.05273 2.83804 8.05273C3.11733 8.05273 3.34893 8.28434 3.34893 8.56363C3.34893 11.4723 5.37888 13.5023 8.28756 13.5023C11.1962 13.5023 13.2262 11.4723 13.2262 8.56363C13.2262 8.28434 13.4578 8.05273 13.7371 8.05273C14.0164 8.05273 14.248 8.28434 14.248 8.56363C14.248 12.0718 11.7957 14.524 8.28756 14.524Z" fill="#096C1B"/>
</svg>
