<svg width="29" height="29" viewBox="0 0 29 29" fill="none" xmlns="http://www.w3.org/2000/svg">
<path fill-rule="evenodd" clip-rule="evenodd" d="M0.896618 9.63583C0.19071 12.6452 0.190711 15.7772 0.896619 18.7865C1.91604 23.1325 5.3094 26.5259 9.65536 27.5453C12.6648 28.2512 15.7967 28.2512 18.8061 27.5453C23.152 26.5259 26.5454 23.1325 27.5648 18.7865C28.2707 15.7772 28.2707 12.6452 27.5648 9.63584C26.5454 5.28987 23.152 1.89651 18.8061 0.877085C15.7967 0.171178 12.6648 0.171181 9.65537 0.877086C5.30941 1.89651 1.91604 5.28987 0.896618 9.63583ZM15.4103 19.1512C15.4103 19.762 14.9152 20.2571 14.3044 20.2571C13.6936 20.2571 13.1984 19.762 13.1984 19.1512C13.1984 18.5404 13.6936 18.0452 14.3044 18.0452C14.9152 18.0452 15.4103 18.5404 15.4103 19.1512ZM12.1662 11.1146C12.1662 9.97447 13.0905 9.05019 14.2307 9.05019C15.3708 9.05019 16.2951 9.97447 16.2951 11.1146V11.2935C16.2951 11.8885 16.0588 12.4591 15.6381 12.8798L13.6051 14.9128C13.2595 15.2583 13.2595 15.8185 13.6051 16.164C13.9506 16.5096 14.5108 16.5096 14.8563 16.164L16.8893 14.131C17.6419 13.3785 18.0646 12.3578 18.0646 11.2935V11.1146C18.0646 8.99719 16.3481 7.28067 14.2307 7.28067C12.1132 7.28067 10.3967 8.99719 10.3967 11.1146V11.8519C10.3967 12.3406 10.7929 12.7367 11.2815 12.7367C11.7701 12.7367 12.1662 12.3406 12.1662 11.8519V11.1146Z" fill="#FFCF19"/>
</svg>
