<svg width="12" height="12" viewBox="0 0 12 12" fill="none" xmlns="http://www.w3.org/2000/svg">
<path d="M3.08903 9.498H3.32795L3.40745 9.27269C3.50048 9.00904 3.67299 8.78074 3.90122 8.61925C4.12945 8.45776 4.40215 8.37104 4.68173 8.37104C4.96131 8.37104 5.23401 8.45776 5.46224 8.61925C5.69046 8.78074 5.86298 9.00904 5.95601 9.27269L6.03551 9.498H6.27443H11.4352C11.5596 9.498 11.6604 9.59879 11.6604 9.72313C11.6604 9.84747 11.5596 9.94827 11.4352 9.94827H6.27443H6.03551L5.95601 10.1736C5.86298 10.4372 5.69046 10.6655 5.46224 10.827C5.23401 10.9885 4.96131 11.0752 4.68173 11.0752C4.40215 11.0752 4.12945 10.9885 3.90122 10.827C3.67299 10.6655 3.50048 10.4372 3.40745 10.1736L3.32795 9.94827H3.08903H1.30498C1.18064 9.94827 1.07985 9.84747 1.07985 9.72313C1.07985 9.59879 1.18064 9.498 1.30498 9.498H3.08903ZM6.46578 5.55846H6.7047L6.7842 5.33315C6.87723 5.0695 7.04974 4.8412 7.27797 4.67971C7.5062 4.51822 7.7789 4.4315 8.05848 4.4315C8.33806 4.4315 8.61076 4.51822 8.83899 4.67971C9.06721 4.8412 9.23973 5.0695 9.33276 5.33315L9.41226 5.55846H9.65118H11.4352C11.5596 5.55846 11.6604 5.65925 11.6604 5.78359C11.6604 5.90793 11.5596 6.00872 11.4352 6.00872H9.65118H9.41226L9.33276 6.23403C9.23973 6.49768 9.06721 6.72599 8.83899 6.88748C8.61076 7.04896 8.33806 7.13569 8.05848 7.13569C7.7789 7.13569 7.5062 7.04896 7.27797 6.88748C7.04974 6.72599 6.87723 6.49768 6.7842 6.23403L6.7047 6.00872H6.46578H1.30498C1.18064 6.00872 1.07985 5.90793 1.07985 5.78359C1.07985 5.65925 1.18064 5.55846 1.30498 5.55846H6.46578ZM3.08903 1.61892H3.32795L3.40745 1.39361C3.50048 1.12996 3.67299 0.901655 3.90122 0.740166C4.12945 0.578677 4.40215 0.491956 4.68173 0.491956C4.96131 0.491956 5.23401 0.578677 5.46224 0.740166C5.69046 0.901655 5.86298 1.12996 5.95601 1.39361L6.03551 1.61892H6.27443H11.4352C11.5596 1.61892 11.6604 1.71971 11.6604 1.84405C11.6604 1.96839 11.5596 2.06918 11.4352 2.06918H6.27443H6.03551L5.95601 2.29449C5.86298 2.55814 5.69046 2.78645 5.46224 2.94793C5.23401 3.10942 4.96131 3.19615 4.68173 3.19615C4.40215 3.19615 4.12945 3.10942 3.90122 2.94793C3.67299 2.78645 3.50048 2.55814 3.40745 2.29449L3.32795 2.06918H3.08903H1.30498C1.18064 2.06918 1.07985 1.96839 1.07985 1.84405C1.07985 1.71971 1.18064 1.61892 1.30498 1.61892H3.08903ZM5.31844 1.20734L5.07968 1.4461L5.31844 1.20734C5.14958 1.03847 4.92054 0.9436 4.68173 0.9436C4.44291 0.9436 4.21388 1.03847 4.04501 1.20734C3.87615 1.3762 3.78128 1.60524 3.78128 1.84405C3.78128 2.08287 3.87615 2.3119 4.04501 2.48077C4.21388 2.64963 4.44291 2.7445 4.68173 2.7445C4.92054 2.7445 5.14958 2.64963 5.31844 2.48077C5.48731 2.3119 5.58218 2.08287 5.58218 1.84405C5.58218 1.60524 5.48731 1.3762 5.31844 1.20734ZM8.05848 6.68404C8.29729 6.68404 8.52633 6.58917 8.69519 6.42031C8.86406 6.25144 8.95893 6.02241 8.95893 5.78359C8.95893 5.54478 8.86406 5.31574 8.69519 5.14688C8.52633 4.97801 8.29729 4.88314 8.05848 4.88314C7.81966 4.88314 7.59063 4.97801 7.42176 5.14688C7.2529 5.31574 7.15803 5.54478 7.15803 5.78359C7.15803 6.02241 7.2529 6.25144 7.42176 6.42031C7.59063 6.58917 7.81966 6.68404 8.05848 6.68404ZM4.68173 10.6236C4.92054 10.6236 5.14958 10.5287 5.31844 10.3598C5.48731 10.191 5.58218 9.96195 5.58218 9.72313C5.58218 9.48432 5.48731 9.25528 5.31844 9.08642C5.14958 8.91755 4.92054 8.82268 4.68173 8.82268C4.44291 8.82268 4.21388 8.91755 4.04501 9.08642C3.87615 9.25528 3.78128 9.48432 3.78128 9.72313C3.78128 9.96195 3.87615 10.191 4.04501 10.3598C4.21388 10.5287 4.44291 10.6236 4.68173 10.6236Z" fill="#37AA4C" stroke="white" stroke-width="0.675318"/>
</svg>
