<svg width="20" height="20" viewBox="0 0 20 20" fill="none" xmlns="http://www.w3.org/2000/svg">
<path d="M10.3274 18.1389C7.22571 18.1389 4.43109 16.4579 3.00307 13.7517C2.98004 13.729 2.96467 13.6989 2.94932 13.6688C2.36583 12.5229 2.06641 11.3017 2.06641 10.0353C2.06641 8.76886 2.36583 7.54765 2.94932 6.40184C4.36199 3.64282 7.18733 1.93164 10.3198 1.93164C12.4234 1.93164 14.3351 2.66284 15.8476 4.04235C15.9628 4.14789 16.0319 4.29112 16.0319 4.44942C16.0319 4.60773 15.9704 4.75097 15.8553 4.86404L13.6902 6.94459C13.4676 7.15567 13.1221 7.16321 12.8917 6.95214C12.4081 6.50738 11.5712 5.97969 10.3198 5.97969C8.7382 5.97969 7.28714 6.91445 6.63455 8.36934C6.5808 8.48995 6.53474 8.60301 6.48867 8.73116C6.3428 9.16838 6.2737 9.61316 6.2737 10.0428C6.2737 10.4725 6.35047 10.9022 6.48867 11.3319C6.48867 11.3394 6.49635 11.347 6.49635 11.362C7.04913 13.0054 8.58464 14.106 10.3198 14.106C11.2334 14.106 12.0165 13.8874 12.6537 13.4501C13.2372 13.0506 13.6058 12.5154 13.8054 12.0329H10.3274C10.0127 12.0329 9.75163 11.7766 9.75163 11.4676V8.67087C9.75163 8.3618 10.0127 8.1055 10.3274 8.1055H17.5367C17.8054 8.1055 18.0357 8.2864 18.0971 8.54271C18.22 9.07039 18.2737 9.56793 18.2737 10.2087C18.2737 12.6059 17.3985 14.7241 15.8015 16.1715C14.3812 17.453 12.4848 18.1389 10.3274 18.1389ZM3.93972 13.0883C3.96276 13.1184 3.98579 13.1561 4.00115 13.1938C5.20652 15.5382 7.63262 17.0082 10.3274 17.0082C12.1931 17.0082 13.8131 16.4278 15.0184 15.3347C16.3774 14.106 17.1221 12.2817 17.1221 10.2011C17.1221 9.82422 17.1067 9.52268 17.0607 9.22869H10.9033V10.8947H14.5578C14.719 10.8947 14.8802 10.9625 14.9877 11.0831C15.0952 11.2037 15.1489 11.3696 15.1259 11.5279C15.0261 12.3722 14.4887 13.5632 13.314 14.3698C12.4848 14.9352 11.4791 15.2292 10.3198 15.2292C8.10096 15.2292 6.13551 13.827 5.41382 11.7314C5.41382 11.7239 5.40614 11.7163 5.40614 11.7088C5.2142 11.1585 5.12207 10.6007 5.12207 10.0428C5.12207 9.49254 5.2142 8.9347 5.39846 8.37686C5.4522 8.21102 5.51362 8.06026 5.58272 7.90949C6.42725 6.04754 8.28522 4.84895 10.3198 4.84895C11.6326 4.84895 12.6 5.30126 13.2603 5.77617L14.6038 4.48713C13.3908 3.55238 11.9167 3.06238 10.3198 3.06238C7.62495 3.06238 5.19117 4.53235 3.97811 6.90691C3.47907 7.89443 3.21804 8.94978 3.21804 10.0353C3.22572 11.0982 3.46372 12.1234 3.93972 13.0883Z" fill="#37AC4E"/>
</svg>
