<svg width="17" height="18" viewBox="0 0 17 18" fill="none" xmlns="http://www.w3.org/2000/svg">
<path d="M6.19141 13.3802V6.51819C6.19141 6.24803 6.27245 5.98463 6.42104 5.76175L8.26486 3.01965C8.55528 2.58065 9.27795 2.26997 9.89256 2.4996C10.5544 2.72248 10.9934 3.46541 10.8516 4.1273L10.5004 6.33583C10.4734 6.53845 10.5274 6.72081 10.6422 6.86264C10.7571 6.99096 10.9259 7.07201 11.1083 7.07201H13.8841C14.4177 7.07201 14.877 7.28813 15.1471 7.66635C15.4038 8.03107 15.451 8.50384 15.2822 8.98337L13.6207 14.0421C13.4114 14.8795 12.4996 15.5617 11.5945 15.5617H8.96052C8.508 15.5617 7.87313 15.4064 7.58271 15.1159L6.71821 14.4473C6.38727 14.1974 6.19141 13.7989 6.19141 13.3802Z" fill="#1D9E34"/>
<path d="M4.04399 5.20117H3.34833C2.30147 5.20117 1.87598 5.60641 1.87598 6.60599V13.4004C1.87598 14.4 2.30147 14.8053 3.34833 14.8053H4.04399C5.09085 14.8053 5.51634 14.4 5.51634 13.4004V6.60599C5.51634 5.60641 5.09085 5.20117 4.04399 5.20117Z" fill="#1D9E34"/>
</svg>
