<svg width="14" height="19" viewBox="0 0 14 19" fill="none" xmlns="http://www.w3.org/2000/svg">
<path d="M6.84735 0.302734C3.42503 0.302734 0.640625 3.05847 0.640625 6.44557C0.640625 7.46237 0.897488 8.47054 1.38579 9.36475L6.50793 18.5332C6.57612 18.6555 6.70606 18.7312 6.84735 18.7312C6.98863 18.7312 7.11858 18.6555 7.18676 18.5332L12.3108 9.36173C12.7972 8.47054 13.0541 7.46234 13.0541 6.44553C13.0541 3.05847 10.2697 0.302734 6.84735 0.302734ZM6.84735 9.51697C5.13619 9.51697 3.744 8.13912 3.744 6.44557C3.744 4.75202 5.13619 3.37417 6.84735 3.37417C8.55851 3.37417 9.95069 4.75202 9.95069 6.44557C9.95069 8.13912 8.55851 9.51697 6.84735 9.51697Z" fill="#37AC4E"/>
</svg>
