<svg width="19" height="12" viewBox="0 0 19 12" fill="none" xmlns="http://www.w3.org/2000/svg">
<path d="M6.97852 10.5381H11.7291V2.03867H6.97852V10.5381Z" fill="#EB001B"/>
<path d="M7.28155 6.28834C7.28155 8.01523 8.09592 9.54696 9.34763 10.5381C8.42774 11.2589 7.2665 11.6943 5.99967 11.6943C2.99838 11.6943 0.570312 9.27669 0.570312 6.28834C0.570312 3.30006 2.99838 0.882348 5.99961 0.882348C7.26643 0.882348 8.42767 1.31781 9.34763 2.03867C8.09592 3.01474 7.28155 4.56145 7.28155 6.28834V6.28834Z" fill="#EB001B"/>
<path d="M18.1406 6.28834C18.1406 3.30006 15.7125 0.882348 12.7113 0.882348C11.4445 0.882348 10.2832 1.31781 9.36328 2.03867C10.6301 3.02972 11.4294 4.56145 11.4294 6.28834C11.4294 8.01523 10.615 9.54696 9.36328 10.5381C10.2832 11.2589 11.4445 11.6943 12.7113 11.6943C15.7125 11.6943 18.1407 9.26164 18.1407 6.28834H18.1406Z" fill="#F79E1B"/>
</svg>
