<svg width="13" height="19" fill="none" xmlns="http://www.w3.org/2000/svg"><path d="M6.5 3.61a2.636 2.636 0 100 5.272 2.636 2.636 0 000-5.271zm0 3.954a1.318 1.318 0 110-2.635 1.318 1.318 0 010 2.635z" fill="#000"/><path d="M12.051 4.656a3.028 3.028 0 01-.362-.559 3.172 3.172 0 01-.151-.684 2.643 2.643 0 00-.623-1.581 2.65 2.65 0 00-1.581-.62 3.197 3.197 0 01-.688-.152 3.051 3.051 0 01-.558-.362A2.694 2.694 0 006.5 0a2.695 2.695 0 00-1.59.696 3.03 3.03 0 01-.559.362 3.18 3.18 0 01-.687.151 2.643 2.643 0 00-1.578.623 2.65 2.65 0 00-.621 1.581 3.197 3.197 0 01-.15.688 3.05 3.05 0 01-.363.558 2.694 2.694 0 00-.698 1.587c.05.593.295 1.152.696 1.591.14.172.262.36.362.559.076.223.126.453.151.687.042.467.187.919.425 1.323v6.383a1.318 1.318 0 002.049 1.096L6.5 16.176l2.564 1.71a1.317 1.317 0 002.049-1.097v-6.383c.238-.404.383-.856.425-1.323.024-.234.075-.465.15-.688.1-.199.222-.386.363-.558.401-.439.646-.998.696-1.59a2.696 2.696 0 00-.696-1.591zM4.524 15.91l-1.318.878v-5.586c.155.032.309.058.461.08.234.026.465.076.688.152.06.028.117.06.172.097l-.003 4.379zm2.635-.865a1.3 1.3 0 00-1.318 0v-2.694a1.61 1.61 0 001.318 0v2.694zm2.636 1.743l-1.318-.878v-4.379c.055-.036.113-.069.173-.097a3.1 3.1 0 01.687-.151c.149-.023.303-.049.461-.08l-.003 5.585zm1.2-9.74c-.21.257-.387.54-.527.841a4.205 4.205 0 00-.236.995c-.012.299-.097.59-.25.846a1.79 1.79 0 01-.845.25c-.34.037-.674.117-.995.236-.302.14-.585.317-.842.527-.225.211-.5.36-.8.431a1.76 1.76 0 01-.802-.434 3.988 3.988 0 00-.842-.527 4.197 4.197 0 00-.991-.234 1.797 1.797 0 01-.846-.249 1.79 1.79 0 01-.25-.846 4.17 4.17 0 00-.24-.991 3.974 3.974 0 00-.526-.843 1.76 1.76 0 01-.431-.805c.071-.3.22-.577.433-.801a3.96 3.96 0 00.527-.843 4.2 4.2 0 00.234-.991c.012-.299.097-.59.25-.846.257-.154.549-.241.849-.253.338-.038.67-.117.988-.236a4 4 0 00.843-.527 1.76 1.76 0 01.804-.431c.301.071.578.221.802.433.258.21.54.388.842.528.321.119.655.198.995.236.299.012.59.097.846.25.153.256.238.547.25.846.038.338.117.67.236.988a4 4 0 00.527.843c.212.226.36.503.431.804a1.755 1.755 0 01-.434.802z" fill="#000"/></svg>