<svg width="14" height="14" viewBox="0 0 14 14" fill="none" xmlns="http://www.w3.org/2000/svg">
<path d="M11.8397 4.25622L5.44745 1.0601C1.15359 -1.09057 -0.608761 0.671783 1.5419 4.96564L2.19158 6.265C2.37827 6.64585 2.37827 7.08644 2.19158 7.46728L1.5419 8.75917C-0.608761 13.053 1.14612 14.8154 5.44745 12.6647L11.8397 9.46859C14.7072 8.03482 14.7072 5.69 11.8397 4.25622ZM9.42767 7.42248H5.39517C5.089 7.42248 4.8351 7.16858 4.8351 6.86241C4.8351 6.55624 5.089 6.30234 5.39517 6.30234H9.42767C9.73384 6.30234 9.98773 6.55624 9.98773 6.86241C9.98773 7.16858 9.73384 7.42248 9.42767 7.42248Z" fill="#1F1724"/>
</svg>
