<svg width="19" height="19" viewBox="0 0 19 19" fill="none" xmlns="http://www.w3.org/2000/svg">
<path d="M13.9099 1.05908H5.23981C4.94321 1.05942 4.65885 1.17739 4.44913 1.38711C4.2394 1.59684 4.12143 1.8812 4.12109 2.1778V16.7211C4.12143 17.0177 4.2394 17.3021 4.44913 17.5118C4.65885 17.7215 4.94321 17.8395 5.23981 17.8398H13.9099C14.2065 17.8395 14.4908 17.7215 14.7005 17.5118C14.9103 17.3021 15.0282 17.0177 15.0286 16.7211V2.1778C15.0282 1.8812 14.9103 1.59684 14.7005 1.38711C14.4908 1.17739 14.2065 1.05942 13.9099 1.05908ZM13.9099 2.1778V3.29652H5.23981V2.1778H13.9099ZM13.9099 4.41523L13.9102 12.2462H5.23981V4.41523H13.9099ZM13.9099 16.7211H5.23981V13.365H13.9104V16.7211H13.9099Z" fill="#37AA4C"/>
<path d="M9.01758 14.4839H10.1319V15.5983H9.01758V14.4839Z" fill="#37AA4C"/>
</svg>
