<svg width="20" height="20" viewBox="0 0 20 20" fill="none" xmlns="http://www.w3.org/2000/svg">
<path d="M12.2379 15.0224H5.11478C4.69339 15.0224 4.2963 14.9819 3.93974 14.9008C3.75336 14.8765 3.52647 14.8117 3.29146 14.7225C2.21367 14.3173 0.941406 13.3206 0.941406 10.8409V6.66749C0.941406 4.0176 2.46489 2.49414 5.11478 2.49414H12.2379C14.4745 2.49414 15.9169 3.5638 16.3059 5.50868C16.3789 5.86524 16.4113 6.2461 16.4113 6.66749V10.8409C16.4113 13.507 14.8959 15.0224 12.2379 15.0224ZM5.12287 3.72591C3.12937 3.72591 2.16504 4.69022 2.16504 6.68372V10.8571C2.16504 12.3077 2.67558 13.1991 3.72095 13.5962C3.88303 13.6529 4.037 13.6934 4.18287 13.7177C4.49081 13.7825 4.79062 13.8149 5.12287 13.8149H12.246C14.2395 13.8149 15.2038 12.8506 15.2038 10.8571V6.68372C15.2038 6.34336 15.1795 6.04352 15.1228 5.768C14.8473 4.39038 13.9072 3.72591 12.246 3.72591H5.12287Z" fill="#37AA4C"/>
<path d="M14.6659 17.4534H7.54281C6.85399 17.4534 6.23811 17.3562 5.71137 17.1536C4.52013 16.7079 3.74218 15.7679 3.47476 14.4227C3.43424 14.2201 3.49908 14.0094 3.64495 13.8716C3.79082 13.7257 4.00151 13.669 4.2041 13.7176C4.47152 13.7744 4.77136 13.8068 5.11171 13.8068H12.2348C14.2283 13.8068 15.1927 12.8425 15.1927 10.849V6.67557C15.1927 6.33521 15.1683 6.03537 15.1116 5.75985C15.0711 5.55726 15.1359 5.35467 15.2737 5.20881C15.4196 5.06294 15.6221 4.9981 15.8247 5.04672C17.7696 5.4438 18.8393 6.88626 18.8393 9.10666V13.2801C18.8393 15.9381 17.3239 17.4534 14.6659 17.4534ZM4.96585 15.0223C5.22517 15.4923 5.61413 15.8246 6.14898 16.0191C6.53795 16.165 7.00795 16.2379 7.55089 16.2379H14.674C16.6675 16.2379 17.6318 15.2736 17.6318 13.2801V9.10666C17.6318 7.82628 17.2348 6.97541 16.4163 6.52971C16.4163 6.57833 16.4163 6.62694 16.4163 6.67557V10.849C16.4163 13.4989 14.8928 15.0223 12.2429 15.0223H5.1198C5.06307 15.0223 5.01447 15.0223 4.96585 15.0223Z" fill="#37AA4C"/>
<path d="M8.67879 11.5138C7.16341 11.5138 5.93164 10.2821 5.93164 8.76668C5.93164 7.2513 7.16341 6.01953 8.67879 6.01953C10.1942 6.01953 11.4259 7.2513 11.4259 8.76668C11.4259 10.2821 10.1942 11.5138 8.67879 11.5138ZM8.67879 7.23508C7.83601 7.23508 7.14719 7.9239 7.14719 8.76668C7.14719 9.60946 7.83601 10.2983 8.67879 10.2983C9.52157 10.2983 10.2104 9.60946 10.2104 8.76668C10.2104 7.9239 9.52157 7.23508 8.67879 7.23508Z" fill="#37AA4C"/>
<path d="M4.04332 11.1572C3.71107 11.1572 3.43555 10.8816 3.43555 10.5494V6.98375C3.43555 6.6515 3.71107 6.37598 4.04332 6.37598C4.37557 6.37598 4.65109 6.6515 4.65109 6.98375V10.5494C4.65109 10.8816 4.38367 11.1572 4.04332 11.1572Z" fill="#37AA4C"/>
<path d="M13.305 11.1572C12.9728 11.1572 12.6973 10.8816 12.6973 10.5494V6.98375C12.6973 6.6515 12.9728 6.37598 13.305 6.37598C13.6373 6.37598 13.9128 6.6515 13.9128 6.98375V10.5494C13.9128 10.8816 13.6454 11.1572 13.305 11.1572Z" fill="#37AA4C"/>
</svg>
