<svg width="32" height="26" viewBox="0 0 32 26" fill="none" xmlns="http://www.w3.org/2000/svg">
<path fill-rule="evenodd" clip-rule="evenodd" d="M17.6521 0.705078C18.0285 0.705128 18.3919 0.843332 18.6732 1.09348C18.9545 1.34362 19.1342 1.68831 19.1782 2.06217L19.189 2.24199C19.1894 2.63371 19.3394 3.01049 19.6083 3.29533C19.8772 3.58018 20.2448 3.75159 20.6358 3.77455C21.0269 3.7975 21.4119 3.67027 21.7123 3.41885C22.0127 3.16743 22.2058 2.81079 22.252 2.4218L22.2628 2.24199C22.2628 1.83437 22.4247 1.44345 22.713 1.15523C23.0012 0.867002 23.3921 0.705078 23.7997 0.705078H26.8735C28.0964 0.705078 29.2691 1.19085 30.1338 2.05553C30.9985 2.92021 31.4843 4.09296 31.4843 5.3158V20.6849C31.4843 21.9077 30.9985 23.0805 30.1338 23.9452C29.2691 24.8098 28.0964 25.2956 26.8735 25.2956H23.7997C23.4233 25.2955 23.0599 25.1573 22.7786 24.9072C22.4973 24.6571 22.3176 24.3124 22.2736 23.9385L22.2628 23.7587C22.2624 23.367 22.1124 22.9902 21.8435 22.7053C21.5745 22.4205 21.207 22.2491 20.816 22.2261C20.4249 22.2032 20.0399 22.3304 19.7395 22.5818C19.4391 22.8333 19.246 23.1899 19.1997 23.5789L19.189 23.7587C19.189 24.1663 19.0271 24.5572 18.7388 24.8454C18.4506 25.1337 18.0597 25.2956 17.6521 25.2956H5.35682C4.13398 25.2956 2.96122 24.8098 2.09654 23.9452C1.23187 23.0805 0.746094 21.9077 0.746094 20.6849V5.3158C0.746094 4.09296 1.23187 2.92021 2.09654 2.05553C2.96122 1.19085 4.13398 0.705078 5.35682 0.705078H17.6521ZM20.7259 14.5372C20.3183 14.5372 19.9274 14.6992 19.6391 14.9874C19.3509 15.2756 19.189 15.6665 19.189 16.0742V17.6111C19.189 18.0187 19.3509 18.4096 19.6391 18.6978C19.9274 18.986 20.3183 19.148 20.7259 19.148C21.1335 19.148 21.5244 18.986 21.8127 18.6978C22.1009 18.4096 22.2628 18.0187 22.2628 17.6111V16.0742C22.2628 15.6665 22.1009 15.2756 21.8127 14.9874C21.5244 14.6992 21.1335 14.5372 20.7259 14.5372ZM20.7259 6.85271C20.3495 6.85276 19.9861 6.99096 19.7048 7.24111C19.4235 7.49125 19.2438 7.83594 19.1997 8.2098L19.189 8.38962V9.92652C19.1894 10.3182 19.3394 10.695 19.6083 10.9799C19.8772 11.2647 20.2448 11.4361 20.6358 11.4591C21.0269 11.482 21.4119 11.3548 21.7123 11.1034C22.0127 10.852 22.2058 10.4953 22.252 10.1063L22.2628 9.92652V8.38962C22.2628 7.982 22.1009 7.59108 21.8127 7.30286C21.5244 7.01463 21.1335 6.85271 20.7259 6.85271Z" fill="#4FBF67"/>
</svg>
