<svg width="18" height="18" viewBox="0 0 18 18" fill="none" xmlns="http://www.w3.org/2000/svg">
<path d="M14.9698 5.12589L9.40285 2.07989C9.25411 1.9977 9.08695 1.95459 8.91701 1.95459C8.74707 1.95459 8.57991 1.9977 8.43117 2.07989L2.86422 5.12716C2.70524 5.21414 2.57253 5.34222 2.47994 5.49801C2.38736 5.6538 2.3383 5.83159 2.33789 6.01281V12.0631C2.3383 12.2443 2.38736 12.4221 2.47994 12.5779C2.57253 12.7337 2.70524 12.8617 2.86422 12.9487L8.43117 15.996C8.57991 16.0782 8.74707 16.1213 8.91701 16.1213C9.08695 16.1213 9.25411 16.0782 9.40285 15.996L14.9698 12.9487C15.1288 12.8617 15.2615 12.7337 15.3541 12.5779C15.4467 12.4221 15.4957 12.2443 15.4961 12.0631V6.01344C15.4961 5.8319 15.4472 5.65371 15.3546 5.49756C15.262 5.34141 15.1291 5.21303 14.9698 5.12589ZM8.91701 2.96554L13.9994 5.74901L12.1161 6.78016L7.0331 3.99669L8.91701 2.96554ZM8.91701 8.53248L3.83464 5.74901L5.97918 4.57489L11.0615 7.35837L8.91701 8.53248ZM3.35006 6.63466L8.41092 9.40422V14.8314L3.35006 12.0637V6.63466ZM14.484 12.0612L9.42309 14.8314V9.40675L11.4474 8.29905V10.5568C11.4474 10.6911 11.5008 10.8198 11.5957 10.9147C11.6906 11.0096 11.8193 11.0629 11.9535 11.0629C12.0877 11.0629 12.2165 11.0096 12.3114 10.9147C12.4063 10.8198 12.4596 10.6911 12.4596 10.5568V7.74489L14.484 6.63466V12.0605V12.0612Z" fill="#F6B800"/>
</svg>
