<svg width="20" height="22" fill="none" xmlns="http://www.w3.org/2000/svg"><path d="M18.97 5.202L10.72.688a1.489 1.489 0 00-1.44 0L1.03 5.203a1.5 1.5 0 00-.78 1.313v8.966a1.5 1.5 0 00.78 1.313l8.25 4.516a1.489 1.489 0 001.44 0l8.25-4.516a1.5 1.5 0 00.78-1.313V6.517a1.5 1.5 0 00-.78-1.315zM10 2l7.532 4.125-2.791 1.528-7.533-4.125L10 2zm0 8.25L2.468 6.125l3.178-1.74 7.532 4.125L10 10.25zM1.75 7.438l7.5 4.104v8.043l-7.5-4.102V7.438zm16.5 8.041l-7.5 4.106v-8.04l3-1.64v3.345a.75.75 0 101.5 0V9.083l3-1.645v8.041z" fill="#F6B800"/></svg>