<svg width="17" height="17" viewBox="0 0 17 17" fill="none" xmlns="http://www.w3.org/2000/svg">
<path d="M5.90319 6.10583C5.99804 6.0111 6.12661 5.95789 6.26066 5.95789C6.39472 5.95789 6.52329 6.0111 6.61814 6.10583L8.2841 7.77179L9.95006 6.10583C9.99637 6.05613 10.0522 6.01626 10.1143 5.98862C10.1763 5.96097 10.2433 5.9461 10.3112 5.9449C10.3791 5.9437 10.4466 5.9562 10.5096 5.98164C10.5726 6.00708 10.6298 6.04495 10.6778 6.09299C10.7259 6.14102 10.7638 6.19824 10.7892 6.26123C10.8146 6.32422 10.8271 6.39168 10.8259 6.45961C10.8247 6.52753 10.8099 6.59451 10.7822 6.65656C10.7546 6.71862 10.7147 6.77446 10.665 6.82077L8.99905 8.48674L10.665 10.1527C10.7544 10.2486 10.803 10.3754 10.8007 10.5065C10.7984 10.6375 10.7453 10.7626 10.6526 10.8552C10.5599 10.9479 10.4349 11.001 10.3038 11.0033C10.1728 11.0056 10.046 10.957 9.95006 10.8676L8.2841 9.20168L6.61814 10.8676C6.57183 10.9173 6.51598 10.9572 6.45393 10.9849C6.39188 11.0125 6.32489 11.0274 6.25697 11.0286C6.18905 11.0298 6.12158 11.0173 6.05859 10.9918C5.9956 10.9664 5.93839 10.9285 5.89035 10.8805C5.84232 10.8324 5.80445 10.7752 5.779 10.7122C5.75356 10.6493 5.74107 10.5818 5.74227 10.5139C5.74346 10.4459 5.75833 10.379 5.78598 10.3169C5.81363 10.2549 5.85349 10.199 5.90319 10.1527L7.56915 8.48674L5.90319 6.82077C5.80846 6.72593 5.75525 6.59735 5.75525 6.4633C5.75525 6.32925 5.80846 6.20068 5.90319 6.10583Z" fill="#F6B800"/>
<path fill-rule="evenodd" clip-rule="evenodd" d="M5.12775 2.93439C7.22798 2.70156 9.34752 2.70156 11.4478 2.93439C12.6806 3.07204 13.6759 4.04305 13.8203 5.28263C14.07 7.41291 14.07 9.56479 13.8203 11.6951C13.6752 12.9346 12.6799 13.905 11.4478 14.0433C9.34752 14.2762 7.22798 14.2762 5.12775 14.0433C3.89492 13.905 2.89962 12.9346 2.75522 11.6951C2.50607 9.56485 2.50607 7.41285 2.75522 5.28263C2.89962 4.04305 3.8956 3.07204 5.12775 2.93439ZM11.3357 3.93981C9.30995 3.71527 7.26555 3.71527 5.23976 3.93981C4.86475 3.98141 4.51471 4.14823 4.2462 4.41332C3.97769 4.6784 3.80639 5.02626 3.75997 5.40071C3.51998 7.4527 3.51998 9.52567 3.75997 11.5777C3.80653 11.952 3.97789 12.2997 4.24639 12.5646C4.51489 12.8296 4.86485 12.9963 5.23976 13.0379C7.24859 13.2619 9.32691 13.2619 11.3357 13.0379C11.7105 12.9962 12.0603 12.8294 12.3287 12.5645C12.5971 12.2995 12.7683 11.9519 12.8149 11.5777C13.0549 9.52567 13.0549 7.4527 12.8149 5.40071C12.7682 5.02661 12.5969 4.67913 12.3285 4.41433C12.0602 4.14953 11.7104 3.98285 11.3357 3.94116" fill="#F6B800"/>
</svg>
