<svg width="17" height="17" viewBox="0 0 17 17" fill="none" xmlns="http://www.w3.org/2000/svg">
<g clip-path="url(#clip0_9864_11286)">
<path d="M8.48788 1.95312C7.15216 1.95312 5.84644 2.34921 4.73583 3.09129C3.62523 3.83338 2.75961 4.88813 2.24846 6.12217C1.7373 7.35621 1.60356 8.71412 1.86414 10.0242C2.12473 11.3342 2.76794 12.5376 3.71243 13.4821C4.65693 14.4266 5.86028 15.0698 7.17033 15.3304C8.48038 15.5909 9.83829 15.4572 11.0723 14.946C12.3064 14.4349 13.3611 13.5693 14.1032 12.4587C14.8453 11.3481 15.2414 10.0423 15.2414 8.70662C15.2414 7.81974 15.0667 6.94154 14.7273 6.12217C14.3879 5.3028 13.8904 4.5583 13.2633 3.93118C12.6362 3.30406 11.8917 2.8066 11.0723 2.4672C10.253 2.12781 9.37476 1.95313 8.48788 1.95312ZM8.48788 14.1094C7.4193 14.1094 6.37473 13.7926 5.48624 13.1989C4.59776 12.6052 3.90527 11.7614 3.49634 10.7742C3.08742 9.78695 2.98042 8.70063 3.18889 7.65259C3.39736 6.60455 3.91193 5.64186 4.66752 4.88627C5.42312 4.13067 6.3858 3.61611 7.43384 3.40764C8.48188 3.19917 9.56821 3.30616 10.5554 3.71509C11.5427 4.12401 12.3865 4.8165 12.9801 5.70499C13.5738 6.59347 13.8907 7.63805 13.8907 8.70662C13.8907 10.1395 13.3215 11.5138 12.3082 12.527C11.295 13.5402 9.92079 14.1094 8.48788 14.1094Z" fill="#37AA4C"/>
<path d="M10.5145 8.03077H9.16327V6.67953C9.16327 6.50034 9.09209 6.3285 8.96538 6.20179C8.83868 6.07509 8.66683 6.00391 8.48765 6.00391C8.30846 6.00391 8.13661 6.07509 8.00991 6.20179C7.8832 6.3285 7.81202 6.50034 7.81202 6.67953V8.03077H6.46078C6.28159 8.03077 6.10975 8.10195 5.98304 8.22866C5.85634 8.35536 5.78516 8.52721 5.78516 8.7064C5.78516 8.88558 5.85634 9.05743 5.98304 9.18413C6.10975 9.31084 6.28159 9.38202 6.46078 9.38202H7.81202V10.7333C7.81202 10.9124 7.8832 11.0843 8.00991 11.211C8.13661 11.3377 8.30846 11.4089 8.48765 11.4089C8.66683 11.4089 8.83868 11.3377 8.96538 11.211C9.09209 11.0843 9.16327 10.9124 9.16327 10.7333V9.38202H10.5145C10.6937 9.38202 10.8655 9.31084 10.9922 9.18413C11.119 9.05743 11.1901 8.88558 11.1901 8.7064C11.1901 8.52721 11.119 8.35536 10.9922 8.22866C10.8655 8.10195 10.6937 8.03077 10.5145 8.03077Z" fill="#37AA4C"/>
</g>
<defs>
<clipPath id="clip0_9864_11286">
<rect width="16.2084" height="16.2084" fill="white" transform="translate(0.376953 0.601562)"/>
</clipPath>
</defs>
</svg>
