<svg width="15" height="13" viewBox="0 0 15 13" fill="none" xmlns="http://www.w3.org/2000/svg">
<path d="M10.6535 11.9593C11.3973 11.9593 12.0003 11.3563 12.0003 10.6125C12.0003 9.86862 11.3973 9.26562 10.6535 9.26562C9.90964 9.26562 9.30664 9.86862 9.30664 10.6125C9.30664 11.3563 9.90964 11.9593 10.6535 11.9593Z" stroke="#F6B800" stroke-width="1.01217" stroke-linecap="round" stroke-linejoin="round"/>
<path d="M3.90152 11.9593C4.64536 11.9593 5.24836 11.3563 5.24836 10.6125C5.24836 9.86862 4.64536 9.26562 3.90152 9.26562C3.15769 9.26562 2.55469 9.86862 2.55469 10.6125C2.55469 11.3563 3.15769 11.9593 3.90152 11.9593Z" stroke="#F6B800" stroke-width="1.01217" stroke-linecap="round" stroke-linejoin="round"/>
<path d="M2.55559 10.5955C1.81536 10.5591 1.35448 10.4491 1.02519 10.1205C0.695897 9.79186 0.586582 9.33031 0.550144 8.59007M5.25472 10.6144H9.30341M12.0025 10.5955C12.7428 10.5591 13.2036 10.4491 13.5329 10.1205C14.0269 9.62586 14.0269 8.83097 14.0269 7.24051V5.89095H10.8554C10.3527 5.89095 10.1017 5.89095 9.89856 5.82482C9.69603 5.75901 9.51194 5.64619 9.36136 5.49561C9.21077 5.34502 9.09796 5.16094 9.03214 4.9584C8.96602 4.75529 8.96602 4.50427 8.96602 4.00156C8.96602 3.24783 8.96602 2.8713 8.86682 2.5663C8.7681 2.2625 8.59888 1.98637 8.373 1.76049C8.14713 1.53461 7.871 1.3654 7.56719 1.26667C7.26219 1.16748 6.88567 1.16748 6.13194 1.16748H0.53125M0.53125 3.86661H4.57994M0.53125 5.89095H3.23038" stroke="#F6B800" stroke-width="1.01217" stroke-linecap="round" stroke-linejoin="round"/>
<path d="M8.96484 2.51758H10.1931C11.1751 2.51758 11.6655 2.51758 12.0647 2.75634C12.4647 2.99443 12.6974 3.42677 13.1628 4.29146L14.0234 5.88997" stroke="#F6B800" stroke-width="1.01217" stroke-linecap="round" stroke-linejoin="round"/>
</svg>
