<svg width="20" height="21" viewBox="0 0 20 21" fill="none" xmlns="http://www.w3.org/2000/svg">
<path d="M9.99623 2.32373C8.39348 2.32373 6.82673 2.799 5.49409 3.68944C4.16145 4.57988 3.12278 5.8455 2.50944 7.32625C1.89609 8.807 1.73561 10.4364 2.04829 12.0083C2.36097 13.5803 3.13277 15.0242 4.26609 16.1575C5.3994 17.2908 6.84334 18.0626 8.41529 18.3753C9.98725 18.688 11.6166 18.5275 13.0974 17.9142C14.5781 17.3008 15.8437 16.2622 16.7342 14.9295C17.6246 13.5969 18.0999 12.0301 18.0999 10.4274C18.0999 9.3632 17.8903 8.30943 17.483 7.32625C17.0758 6.34307 16.4789 5.44973 15.7264 4.69724C14.9739 3.94474 14.0806 3.34783 13.0974 2.94058C12.1142 2.53334 11.0604 2.32373 9.99623 2.32373ZM9.99623 16.9103C8.71403 16.9103 7.46063 16.5301 6.39452 15.8177C5.3284 15.1054 4.49747 14.0929 4.0068 12.9083C3.51612 11.7237 3.38774 10.4202 3.63788 9.16263C3.88803 7.90507 4.50546 6.74992 5.41212 5.84327C6.31877 4.93661 7.47392 4.31917 8.73148 4.06903C9.98904 3.81888 11.2925 3.94727 12.4771 4.43794C13.6617 4.92862 14.6742 5.75955 15.3866 6.82566C16.0989 7.89178 16.4792 9.14518 16.4792 10.4274C16.4792 12.1468 15.7961 13.7957 14.5804 15.0115C13.3646 16.2273 11.7156 16.9103 9.99623 16.9103Z" fill="#37AA4C"/>
<path d="M12.4284 9.61713H10.8077V7.9964C10.8077 7.78148 10.7223 7.57536 10.5703 7.42339C10.4184 7.27141 10.2122 7.18604 9.99732 7.18604C9.7824 7.18604 9.57628 7.27141 9.42431 7.42339C9.27233 7.57536 9.18696 7.78148 9.18696 7.9964V9.61713H7.56622C7.3513 9.61713 7.14518 9.70251 6.99321 9.85448C6.84124 10.0065 6.75586 10.2126 6.75586 10.4275C6.75586 10.6424 6.84124 10.8485 6.99321 11.0005C7.14518 11.1525 7.3513 11.2379 7.56622 11.2379H9.18696V12.8586C9.18696 13.0735 9.27233 13.2796 9.42431 13.4316C9.57628 13.5836 9.7824 13.669 9.99732 13.669C10.2122 13.669 10.4184 13.5836 10.5703 13.4316C10.7223 13.2796 10.8077 13.0735 10.8077 12.8586V11.2379H12.4284C12.6433 11.2379 12.8495 11.1525 13.0014 11.0005C13.1534 10.8485 13.2388 10.6424 13.2388 10.4275C13.2388 10.2126 13.1534 10.0065 13.0014 9.85448C12.8495 9.70251 12.6433 9.61713 12.4284 9.61713Z" fill="#37AA4C"/>
</svg>
