<svg width="17" height="17" viewBox="0 0 17 17" fill="none" xmlns="http://www.w3.org/2000/svg">
<path d="M8.49782 2.00684C7.16323 2.00684 5.8586 2.40259 4.74893 3.14405C3.63926 3.88551 2.77438 4.93937 2.26365 6.17237C1.75292 7.40537 1.61929 8.76214 1.87966 10.0711C2.14003 11.38 2.78269 12.5824 3.72639 13.5261C4.67009 14.4698 5.87244 15.1124 7.18138 15.3728C8.49033 15.6332 9.84709 15.4995 11.0801 14.9888C12.3131 14.4781 13.367 13.6132 14.1084 12.5035C14.8499 11.3939 15.2456 10.0892 15.2456 8.75465C15.2456 7.86851 15.0711 6.99106 14.732 6.17237C14.3929 5.35369 13.8958 4.60982 13.2692 3.98322C12.6426 3.35663 11.8988 2.85959 11.0801 2.52048C10.2614 2.18137 9.38395 2.00684 8.49782 2.00684ZM8.49782 14.1529C7.43014 14.1529 6.38645 13.8363 5.49871 13.2431C4.61097 12.65 3.91906 11.8069 3.51048 10.8205C3.1019 9.83407 2.995 8.74866 3.20329 7.7015C3.41158 6.65435 3.92572 5.69247 4.68068 4.93751C5.43564 4.18255 6.39751 3.66842 7.44467 3.46012C8.49183 3.25183 9.57724 3.35874 10.5636 3.76732C11.55 4.1759 12.3931 4.8678 12.9863 5.75554C13.5795 6.64328 13.8961 7.68698 13.8961 8.75465C13.8961 10.1864 13.3273 11.5594 12.315 12.5718C11.3026 13.5842 9.92952 14.1529 8.49782 14.1529Z" fill="white"/>
<path d="M10.5182 8.07714H9.16926V6.72819C9.16926 6.54931 9.0982 6.37775 8.97171 6.25126C8.84523 6.12477 8.67367 6.05371 8.49479 6.05371C8.3159 6.05371 8.14435 6.12477 8.01786 6.25126C7.89137 6.37775 7.82031 6.54931 7.82031 6.72819V8.07714H6.47135C6.29247 8.07714 6.12091 8.14821 5.99443 8.27469C5.86794 8.40118 5.79687 8.57274 5.79688 8.75162C5.79687 8.93051 5.86794 9.10206 5.99443 9.22855C6.12091 9.35504 6.29247 9.4261 6.47135 9.4261H7.82031V10.7751C7.82031 10.9539 7.89137 11.1255 8.01786 11.252C8.14435 11.3785 8.3159 11.4495 8.49479 11.4495C8.67367 11.4495 8.84523 11.3785 8.97171 11.252C9.0982 11.1255 9.16926 10.9539 9.16926 10.7751V9.4261H10.5182C10.6971 9.4261 10.8687 9.35504 10.9951 9.22855C11.1216 9.10206 11.1927 8.93051 11.1927 8.75162C11.1927 8.57274 11.1216 8.40118 10.9951 8.27469C10.8687 8.14821 10.6971 8.07714 10.5182 8.07714Z" fill="white"/>
</svg>
