<svg width="12" height="12" viewBox="0 0 12 12" fill="none" xmlns="http://www.w3.org/2000/svg">
<path d="M10.9369 5.63077H6.88479V1.57867C6.88479 1.39956 6.81364 1.22778 6.68698 1.10113C6.56033 0.974473 6.38855 0.90332 6.20944 0.90332C6.03033 0.90332 5.85855 0.974473 5.7319 1.10113C5.60524 1.22778 5.53409 1.39956 5.53409 1.57867V5.63077H1.48199C1.30288 5.63077 1.1311 5.70192 1.00445 5.82858C0.877793 5.95523 0.806641 6.12701 0.806641 6.30612C0.806641 6.48523 0.877793 6.65701 1.00445 6.78366C1.1311 6.91032 1.30288 6.98147 1.48199 6.98147H5.53409V11.0336C5.53409 11.2127 5.60524 11.3845 5.7319 11.5111C5.85855 11.6378 6.03033 11.7089 6.20944 11.7089C6.38855 11.7089 6.56033 11.6378 6.68698 11.5111C6.81364 11.3845 6.88479 11.2127 6.88479 11.0336V6.98147H10.9369C11.116 6.98147 11.2878 6.91032 11.4144 6.78366C11.5411 6.65701 11.6122 6.48523 11.6122 6.30612C11.6122 6.12701 11.5411 5.95523 11.4144 5.82858C11.2878 5.70192 11.116 5.63077 10.9369 5.63077Z" fill="white"/>
</svg>
