<svg width="12" height="12" viewBox="0 0 12 12" fill="none" xmlns="http://www.w3.org/2000/svg">
<path d="M10.2512 5.09819H6.74297V1.58997C6.74297 1.10583 6.35092 0.712891 5.86589 0.712891C5.38087 0.712891 4.98881 1.10583 4.98881 1.58997V5.09819H1.48059C0.995569 5.09819 0.603516 5.49113 0.603516 5.97527C0.603516 6.45941 0.995569 6.85234 1.48059 6.85234H4.98881V10.3606C4.98881 10.8447 5.38087 11.2376 5.86589 11.2376C6.35092 11.2376 6.74297 10.8447 6.74297 10.3606V6.85234H10.2512C10.7362 6.85234 11.1283 6.45941 11.1283 5.97527C11.1283 5.49113 10.7362 5.09819 10.2512 5.09819Z" fill="white"/>
</svg>
