<svg width="16" height="15" viewBox="0 0 16 15" fill="none" xmlns="http://www.w3.org/2000/svg">
<path opacity="0.75" d="M14.9073 5.86692L10.4779 5.22319L8.49786 1.20897C8.44378 1.09907 8.3548 1.0101 8.2449 0.956014C7.96926 0.819939 7.6343 0.933335 7.49648 1.20897L5.51642 5.22319L1.08701 5.86692C0.964887 5.88437 0.853236 5.94194 0.767753 6.02917C0.664409 6.13539 0.607461 6.27829 0.609424 6.42648C0.611387 6.57466 0.672099 6.716 0.77822 6.81945L3.98296 9.94394L3.22582 14.3559C3.20807 14.4585 3.21943 14.5641 3.25861 14.6606C3.29779 14.7571 3.36323 14.8407 3.4475 14.9019C3.53178 14.9631 3.63151 14.9995 3.73541 15.0069C3.8393 15.0143 3.94319 14.9925 4.0353 14.9438L7.99717 12.8608L11.959 14.9438C12.0672 15.0014 12.1928 15.0206 12.3132 14.9996C12.6167 14.9473 12.8209 14.6595 12.7685 14.3559L12.0114 9.94394L15.2161 6.81945C15.3033 6.73397 15.3609 6.62231 15.3784 6.5002C15.4255 6.1949 15.2126 5.91228 14.9073 5.86692Z" fill="#1AC84B"/>
</svg>
