<svg width="13" height="12" viewBox="0 0 13 12" fill="none" xmlns="http://www.w3.org/2000/svg">
<path d="M6.70624 9.32712L9.50432 11.0996C9.86201 11.3259 10.3058 10.9891 10.1997 10.5715L9.39159 7.39177C9.36877 7.3032 9.3714 7.20999 9.39919 7.12284C9.42698 7.0357 9.4788 6.95817 9.54869 6.89917L12.0579 4.81116C12.3871 4.5369 12.2176 3.98971 11.7938 3.96219L8.51733 3.74918C8.42912 3.74292 8.3445 3.71173 8.27332 3.65925C8.20213 3.60677 8.14732 3.53515 8.11526 3.45273L6.89308 0.375512C6.8598 0.288059 6.80072 0.212788 6.72369 0.159677C6.64665 0.106566 6.55529 0.078125 6.46172 0.078125C6.36815 0.078125 6.27679 0.106566 6.19975 0.159677C6.12271 0.212788 6.06364 0.288059 6.03036 0.375512L4.80817 3.45273C4.77618 3.53523 4.7214 3.60694 4.65021 3.65951C4.57903 3.71207 4.49437 3.74332 4.4061 3.74962L1.12963 3.96264C0.706256 3.98971 0.535842 4.5369 0.865575 4.81116L3.37474 6.89961C3.44455 6.95858 3.49633 7.03603 3.52411 7.12309C3.5519 7.21014 3.55458 7.30327 3.53184 7.39177L2.78273 10.3407C2.65536 10.8418 3.18835 11.2461 3.61705 10.974L6.21764 9.32712C6.29073 9.28065 6.37555 9.25598 6.46216 9.25598C6.54877 9.25598 6.6336 9.28065 6.70669 9.32712H6.70624Z" fill="#37AA4C"/>
</svg>
