<svg width="21" height="20" viewBox="0 0 21 20" fill="none" xmlns="http://www.w3.org/2000/svg">
<path fill-rule="evenodd" clip-rule="evenodd" d="M10.406 0.480957C5.04242 0.480957 0.681641 4.84174 0.681641 10.2053C0.681641 15.5689 5.04242 19.9297 10.406 19.9297C15.7696 19.9297 20.1304 15.5689 20.1304 10.2053C20.1304 4.84174 15.7696 0.480957 10.406 0.480957Z" fill="#4BAE4F"/>
<path fill-rule="evenodd" clip-rule="evenodd" d="M15.1073 6.92655C15.3428 7.16207 15.3428 7.54952 15.1073 7.78503L9.40945 13.4829C9.29169 13.6007 9.13595 13.6614 8.98021 13.6614C8.82446 13.6614 8.66872 13.6007 8.55096 13.4829L5.70202 10.634C5.46651 10.3985 5.46651 10.011 5.70202 9.77549C5.93754 9.53998 6.32499 9.53998 6.56051 9.77549L8.98021 12.1952L14.2488 6.92655C14.4844 6.68724 14.8718 6.68724 15.1073 6.92655Z" fill="white"/>
</svg>
