<svg width="15" height="15" viewBox="0 0 15 15" fill="none" xmlns="http://www.w3.org/2000/svg">
<path fill-rule="evenodd" clip-rule="evenodd" d="M7.63337 0.768555C3.86585 0.768555 0.802734 3.83167 0.802734 7.59919C0.802734 11.3667 3.86585 14.4298 7.63337 14.4298C11.4009 14.4298 14.464 11.3667 14.464 7.59919C14.464 3.83167 11.4009 0.768555 7.63337 0.768555Z" fill="#4BAE4F"/>
<path fill-rule="evenodd" clip-rule="evenodd" d="M10.9376 5.29648C11.103 5.46191 11.103 5.73407 10.9376 5.8995L6.93528 9.90183C6.85257 9.98454 6.74317 10.0272 6.63378 10.0272C6.52438 10.0272 6.41498 9.98454 6.33227 9.90183L4.3311 7.90066C4.16567 7.73523 4.16567 7.46308 4.3311 7.29765C4.49653 7.13222 4.76869 7.13222 4.93412 7.29765L6.63378 8.9973L10.3346 5.29648C10.5 5.12839 10.7722 5.12839 10.9376 5.29648Z" fill="white"/>
</svg>
