<svg width="27" height="27" viewBox="0 0 27 27" fill="none" xmlns="http://www.w3.org/2000/svg">
<rect width="27" height="27" fill="#C8C8C8"/>
<g id="Checkout - Select Delivery" clip-path="url(#clip0_4253_2)">
<rect width="1166" height="1205" transform="translate(-113.492 -838)" fill="white"/>
<g id="Rectangle 6879" filter="url(#filter0_dd_4253_2)">
<rect x="-32.457" y="-746.43" width="614.061" height="884.909" rx="9.45977" fill="white"/>
<rect x="-31.984" y="-745.957" width="613.115" height="883.963" rx="8.98678" stroke="#D9D9D9" stroke-width="0.945977"/>
</g>
<g id="Frame 1261153513">
<g id="Group 1707484688">
<g id="Group ">
<g id="Group _2">
<g id="Frame ">
<g clip-path="url(#clip1_4253_2)">
<mask id="path-3-inside-1_4253_2" fill="white">
<path d="M0.767578 -13.3579H550.189V50.6603H0.767578V-13.3579Z"/>
</mask>
<g id="Radio">
<rect id="Normal" x="1.65569" y="1.60735" width="24.1552" height="24.1552" rx="12.0776" fill="white" stroke="#00B307" stroke-width="1.77623"/>
<rect id="Normal_2" x="5.95508" y="5.90527" width="15.5588" height="15.5588" rx="7.77942" fill="#00B307"/>
</g>
</g>
<path d="M0.767578 51.1019H1.64806V50.2186H0.767578V51.1019ZM3.40903 51.1019H5.17V50.2186H3.40903V51.1019ZM6.93096 51.1019H8.69193V50.2186H6.93096V51.1019ZM10.4529 51.1019H12.2139V50.2186H10.4529V51.1019ZM13.9748 51.1019H15.7358V50.2186H13.9748V51.1019ZM17.4968 51.1019H19.2577V50.2186H17.4968V51.1019ZM21.0187 51.1019H22.7797V50.2186H21.0187V51.1019ZM24.5406 51.1019H26.3016V50.2186H24.5406V51.1019ZM28.0626 51.1019H29.8235V50.2186H28.0626V51.1019ZM31.5845 51.1019H33.3455V50.2186H31.5845V51.1019ZM35.1064 51.1019H36.8674V50.2186H35.1064V51.1019ZM38.6284 51.1019H40.3893V50.2186H38.6284V51.1019ZM42.1503 51.1019H43.9113V50.2186H42.1503V51.1019ZM45.6722 51.1019H47.4332V50.2186H45.6722V51.1019ZM49.1942 51.1019H50.9551V50.2186H49.1942V51.1019ZM52.7161 51.1019H54.4771V50.2186H52.7161V51.1019ZM56.238 51.1019H57.999V50.2186H56.238V51.1019ZM59.76 51.1019H61.5209V50.2186H59.76V51.1019ZM63.2819 51.1019H65.0429V50.2186H63.2819V51.1019ZM66.8038 51.1019H68.5648V50.2186H66.8038V51.1019ZM70.3258 51.1019H72.0867V50.2186H70.3258V51.1019ZM73.8477 51.1019H75.6087V50.2186H73.8477V51.1019ZM77.3696 51.1019H79.1306V50.2186H77.3696V51.1019ZM80.8915 51.1019H82.6525V50.2186H80.8915V51.1019ZM84.4135 51.1019H86.1744V50.2186H84.4135V51.1019ZM87.9354 51.1019H89.6964V50.2186H87.9354V51.1019ZM91.4573 51.1019H93.2183V50.2186H91.4573V51.1019ZM94.9793 51.1019H96.7402V50.2186H94.9793V51.1019ZM98.5012 51.1019H100.262V50.2186H98.5012V51.1019ZM102.023 51.1019H103.784V50.2186H102.023V51.1019ZM105.545 51.1019H107.306V50.2186H105.545V51.1019ZM109.067 51.1019H110.828V50.2186H109.067V51.1019ZM112.589 51.1019H114.35V50.2186H112.589V51.1019ZM116.111 51.1019H117.872V50.2186H116.111V51.1019ZM119.633 51.1019H121.394V50.2186H119.633V51.1019ZM123.155 51.1019H124.916V50.2186H123.155V51.1019ZM126.677 51.1019H128.438V50.2186H126.677V51.1019ZM130.199 51.1019H131.96V50.2186H130.199V51.1019ZM133.72 51.1019H135.481V50.2186H133.72V51.1019ZM137.242 51.1019H139.003V50.2186H137.242V51.1019ZM140.764 51.1019H142.525V50.2186H140.764V51.1019ZM144.286 51.1019H146.047V50.2186H144.286V51.1019ZM147.808 51.1019H149.569V50.2186H147.808V51.1019ZM151.33 51.1019H153.091V50.2186H151.33V51.1019ZM154.852 51.1019H156.613V50.2186H154.852V51.1019ZM158.374 51.1019H160.135V50.2186H158.374V51.1019ZM161.896 51.1019H163.657V50.2186H161.896V51.1019ZM165.418 51.1019H167.179V50.2186H165.418V51.1019ZM168.94 51.1019H170.701V50.2186H168.94V51.1019ZM172.462 51.1019H174.223V50.2186H172.462V51.1019ZM175.984 51.1019H177.745V50.2186H175.984V51.1019ZM179.506 51.1019H181.267V50.2186H179.506V51.1019ZM183.028 51.1019H184.789V50.2186H183.028V51.1019ZM186.55 51.1019H188.311V50.2186H186.55V51.1019ZM190.072 51.1019H191.833V50.2186H190.072V51.1019ZM193.593 51.1019H195.354V50.2186H193.593V51.1019ZM197.115 51.1019H198.876V50.2186H197.115V51.1019ZM200.637 51.1019H202.398V50.2186H200.637V51.1019ZM204.159 51.1019H205.92V50.2186H204.159V51.1019ZM207.681 51.1019H209.442V50.2186H207.681V51.1019ZM211.203 51.1019H212.964V50.2186H211.203V51.1019ZM214.725 51.1019H216.486V50.2186H214.725V51.1019ZM218.247 51.1019H220.008V50.2186H218.247V51.1019ZM221.769 51.1019H223.53V50.2186H221.769V51.1019ZM225.291 51.1019H227.052V50.2186H225.291V51.1019ZM228.813 51.1019H230.574V50.2186H228.813V51.1019ZM232.335 51.1019H234.096V50.2186H232.335V51.1019ZM235.857 51.1019H237.618V50.2186H235.857V51.1019ZM239.379 51.1019H241.14V50.2186H239.379V51.1019ZM242.901 51.1019H244.662V50.2186H242.901V51.1019ZM246.423 51.1019H248.184V50.2186H246.423V51.1019ZM249.945 51.1019H251.706V50.2186H249.945V51.1019ZM253.467 51.1019H255.227V50.2186H253.467V51.1019ZM256.988 51.1019H258.749V50.2186H256.988V51.1019ZM260.51 51.1019H262.271V50.2186H260.51V51.1019ZM264.032 51.1019H265.793V50.2186H264.032V51.1019ZM267.554 51.1019H269.315V50.2186H267.554V51.1019ZM271.076 51.1019H272.837V50.2186H271.076V51.1019ZM274.598 51.1019H276.359V50.2186H274.598V51.1019ZM278.12 51.1019H279.881V50.2186H278.12V51.1019ZM281.642 51.1019H283.403V50.2186H281.642V51.1019ZM285.164 51.1019H286.925V50.2186H285.164V51.1019ZM288.686 51.1019H290.447V50.2186H288.686V51.1019ZM292.208 51.1019H293.969V50.2186H292.208V51.1019ZM295.729 51.1019H297.49V50.2186H295.729V51.1019ZM299.251 51.1019H301.012V50.2186H299.251V51.1019ZM302.773 51.1019H304.534V50.2186H302.773V51.1019ZM306.295 51.1019H308.056V50.2186H306.295V51.1019ZM309.817 51.1019H311.578V50.2186H309.817V51.1019ZM313.339 51.1019H315.1V50.2186H313.339V51.1019ZM316.861 51.1019H318.622V50.2186H316.861V51.1019ZM320.383 51.1019H322.144V50.2186H320.383V51.1019ZM323.905 51.1019H325.666V50.2186H323.905V51.1019ZM327.427 51.1019H329.188V50.2186H327.427V51.1019ZM330.949 51.1019H332.71V50.2186H330.949V51.1019ZM334.47 51.1019H336.231V50.2186H334.47V51.1019ZM337.992 51.1019H339.753V50.2186H337.992V51.1019ZM341.514 51.1019H343.275V50.2186H341.514V51.1019ZM345.036 51.1019H346.797V50.2186H345.036V51.1019ZM348.558 51.1019H350.319V50.2186H348.558V51.1019ZM352.08 51.1019H353.841V50.2186H352.08V51.1019ZM355.602 51.1019H357.363V50.2186H355.602V51.1019ZM359.124 51.1019H360.885V50.2186H359.124V51.1019ZM362.646 51.1019H364.407V50.2186H362.646V51.1019ZM366.168 51.1019H367.929V50.2186H366.168V51.1019ZM369.69 51.1019H371.451V50.2186H369.69V51.1019ZM373.212 51.1019H374.972V50.2186H373.212V51.1019ZM376.733 51.1019H378.494V50.2186H376.733V51.1019ZM380.255 51.1019H382.016V50.2186H380.255V51.1019ZM383.777 51.1019H385.538V50.2186H383.777V51.1019ZM387.299 51.1019H389.06V50.2186H387.299V51.1019ZM390.821 51.1019H392.582V50.2186H390.821V51.1019ZM394.343 51.1019H396.104V50.2186H394.343V51.1019ZM397.865 51.1019H399.626V50.2186H397.865V51.1019ZM401.387 51.1019H403.148V50.2186H401.387V51.1019ZM404.909 51.1019H406.67V50.2186H404.909V51.1019ZM408.431 51.1019H410.192V50.2186H408.431V51.1019ZM411.953 51.1019H413.714V50.2186H411.953V51.1019ZM415.474 51.1019H417.235V50.2186H415.474V51.1019ZM418.996 51.1019H420.757V50.2186H418.996V51.1019ZM422.518 51.1019H424.279V50.2186H422.518V51.1019ZM426.04 51.1019H427.801V50.2186H426.04V51.1019ZM429.562 51.1019H431.323V50.2186H429.562V51.1019ZM433.084 51.1019H434.845V50.2186H433.084V51.1019ZM436.606 51.1019H438.367V50.2186H436.606V51.1019ZM440.128 51.1019H441.889V50.2186H440.128V51.1019ZM443.65 51.1019H445.411V50.2186H443.65V51.1019ZM447.172 51.1019H448.933V50.2186H447.172V51.1019ZM450.694 51.1019H452.455V50.2186H450.694V51.1019ZM454.215 51.1019H455.976V50.2186H454.215V51.1019ZM457.737 51.1019H459.498V50.2186H457.737V51.1019ZM461.259 51.1019H463.02V50.2186H461.259V51.1019ZM464.781 51.1019H466.542V50.2186H464.781V51.1019ZM468.303 51.1019H470.064V50.2186H468.303V51.1019ZM471.825 51.1019H473.586V50.2186H471.825V51.1019ZM475.347 51.1019H477.108V50.2186H475.347V51.1019ZM478.869 51.1019H480.63V50.2186H478.869V51.1019ZM482.391 51.1019H484.152V50.2186H482.391V51.1019ZM485.913 51.1019H487.674V50.2186H485.913V51.1019ZM489.435 51.1019H491.196V50.2186H489.435V51.1019ZM492.957 51.1019H494.717V50.2186H492.957V51.1019ZM496.478 51.1019H498.239V50.2186H496.478V51.1019ZM500 51.1019H501.761V50.2186H500V51.1019ZM503.522 51.1019H505.283V50.2186H503.522V51.1019ZM507.044 51.1019H508.805V50.2186H507.044V51.1019ZM510.566 51.1019H512.327V50.2186H510.566V51.1019ZM514.088 51.1019H515.849V50.2186H514.088V51.1019ZM517.61 51.1019H519.371V50.2186H517.61V51.1019ZM521.132 51.1019H522.893V50.2186H521.132V51.1019ZM524.654 51.1019H526.415V50.2186H524.654V51.1019ZM528.176 51.1019H529.937V50.2186H528.176V51.1019ZM531.698 51.1019H533.459V50.2186H531.698V51.1019ZM535.22 51.1019H536.981V50.2186H535.22V51.1019ZM538.742 51.1019H540.503V50.2186H538.742V51.1019ZM542.264 51.1019H544.025V50.2186H542.264V51.1019ZM545.786 51.1019H547.547V50.2186H545.786V51.1019ZM549.308 51.1019H550.189V50.2186H549.308V51.1019ZM0.767578 51.5436H1.64806V49.7769H0.767578V51.5436ZM3.40903 51.5436H5.17V49.7769H3.40903V51.5436ZM6.93096 51.5436H8.69193V49.7769H6.93096V51.5436ZM10.4529 51.5436H12.2139V49.7769H10.4529V51.5436ZM13.9748 51.5436H15.7358V49.7769H13.9748V51.5436ZM17.4968 51.5436H19.2577V49.7769H17.4968V51.5436ZM21.0187 51.5436H22.7797V49.7769H21.0187V51.5436ZM24.5406 51.5436H26.3016V49.7769H24.5406V51.5436ZM28.0626 51.5436H29.8235V49.7769H28.0626V51.5436ZM31.5845 51.5436H33.3455V49.7769H31.5845V51.5436ZM35.1064 51.5436H36.8674V49.7769H35.1064V51.5436ZM38.6284 51.5436H40.3893V49.7769H38.6284V51.5436ZM42.1503 51.5436H43.9113V49.7769H42.1503V51.5436ZM45.6722 51.5436H47.4332V49.7769H45.6722V51.5436ZM49.1942 51.5436H50.9551V49.7769H49.1942V51.5436ZM52.7161 51.5436H54.4771V49.7769H52.7161V51.5436ZM56.238 51.5436H57.999V49.7769H56.238V51.5436ZM59.76 51.5436H61.5209V49.7769H59.76V51.5436ZM63.2819 51.5436H65.0429V49.7769H63.2819V51.5436ZM66.8038 51.5436H68.5648V49.7769H66.8038V51.5436ZM70.3258 51.5436H72.0867V49.7769H70.3258V51.5436ZM73.8477 51.5436H75.6087V49.7769H73.8477V51.5436ZM77.3696 51.5436H79.1306V49.7769H77.3696V51.5436ZM80.8915 51.5436H82.6525V49.7769H80.8915V51.5436ZM84.4135 51.5436H86.1744V49.7769H84.4135V51.5436ZM87.9354 51.5436H89.6964V49.7769H87.9354V51.5436ZM91.4573 51.5436H93.2183V49.7769H91.4573V51.5436ZM94.9793 51.5436H96.7402V49.7769H94.9793V51.5436ZM98.5012 51.5436H100.262V49.7769H98.5012V51.5436ZM102.023 51.5436H103.784V49.7769H102.023V51.5436ZM105.545 51.5436H107.306V49.7769H105.545V51.5436ZM109.067 51.5436H110.828V49.7769H109.067V51.5436ZM112.589 51.5436H114.35V49.7769H112.589V51.5436ZM116.111 51.5436H117.872V49.7769H116.111V51.5436ZM119.633 51.5436H121.394V49.7769H119.633V51.5436ZM123.155 51.5436H124.916V49.7769H123.155V51.5436ZM126.677 51.5436H128.438V49.7769H126.677V51.5436ZM130.199 51.5436H131.96V49.7769H130.199V51.5436ZM133.72 51.5436H135.481V49.7769H133.72V51.5436ZM137.242 51.5436H139.003V49.7769H137.242V51.5436ZM140.764 51.5436H142.525V49.7769H140.764V51.5436ZM144.286 51.5436H146.047V49.7769H144.286V51.5436ZM147.808 51.5436H149.569V49.7769H147.808V51.5436ZM151.33 51.5436H153.091V49.7769H151.33V51.5436ZM154.852 51.5436H156.613V49.7769H154.852V51.5436ZM158.374 51.5436H160.135V49.7769H158.374V51.5436ZM161.896 51.5436H163.657V49.7769H161.896V51.5436ZM165.418 51.5436H167.179V49.7769H165.418V51.5436ZM168.94 51.5436H170.701V49.7769H168.94V51.5436ZM172.462 51.5436H174.223V49.7769H172.462V51.5436ZM175.984 51.5436H177.745V49.7769H175.984V51.5436ZM179.506 51.5436H181.267V49.7769H179.506V51.5436ZM183.028 51.5436H184.789V49.7769H183.028V51.5436ZM186.55 51.5436H188.311V49.7769H186.55V51.5436ZM190.072 51.5436H191.833V49.7769H190.072V51.5436ZM193.593 51.5436H195.354V49.7769H193.593V51.5436ZM197.115 51.5436H198.876V49.7769H197.115V51.5436ZM200.637 51.5436H202.398V49.7769H200.637V51.5436ZM204.159 51.5436H205.92V49.7769H204.159V51.5436ZM207.681 51.5436H209.442V49.7769H207.681V51.5436ZM211.203 51.5436H212.964V49.7769H211.203V51.5436ZM214.725 51.5436H216.486V49.7769H214.725V51.5436ZM218.247 51.5436H220.008V49.7769H218.247V51.5436ZM221.769 51.5436H223.53V49.7769H221.769V51.5436ZM225.291 51.5436H227.052V49.7769H225.291V51.5436ZM228.813 51.5436H230.574V49.7769H228.813V51.5436ZM232.335 51.5436H234.096V49.7769H232.335V51.5436ZM235.857 51.5436H237.618V49.7769H235.857V51.5436ZM239.379 51.5436H241.14V49.7769H239.379V51.5436ZM242.901 51.5436H244.662V49.7769H242.901V51.5436ZM246.423 51.5436H248.184V49.7769H246.423V51.5436ZM249.945 51.5436H251.706V49.7769H249.945V51.5436ZM253.467 51.5436H255.227V49.7769H253.467V51.5436ZM256.988 51.5436H258.749V49.7769H256.988V51.5436ZM260.51 51.5436H262.271V49.7769H260.51V51.5436ZM264.032 51.5436H265.793V49.7769H264.032V51.5436ZM267.554 51.5436H269.315V49.7769H267.554V51.5436ZM271.076 51.5436H272.837V49.7769H271.076V51.5436ZM274.598 51.5436H276.359V49.7769H274.598V51.5436ZM278.12 51.5436H279.881V49.7769H278.12V51.5436ZM281.642 51.5436H283.403V49.7769H281.642V51.5436ZM285.164 51.5436H286.925V49.7769H285.164V51.5436ZM288.686 51.5436H290.447V49.7769H288.686V51.5436ZM292.208 51.5436H293.969V49.7769H292.208V51.5436ZM295.729 51.5436H297.49V49.7769H295.729V51.5436ZM299.251 51.5436H301.012V49.7769H299.251V51.5436ZM302.773 51.5436H304.534V49.7769H302.773V51.5436ZM306.295 51.5436H308.056V49.7769H306.295V51.5436ZM309.817 51.5436H311.578V49.7769H309.817V51.5436ZM313.339 51.5436H315.1V49.7769H313.339V51.5436ZM316.861 51.5436H318.622V49.7769H316.861V51.5436ZM320.383 51.5436H322.144V49.7769H320.383V51.5436ZM323.905 51.5436H325.666V49.7769H323.905V51.5436ZM327.427 51.5436H329.188V49.7769H327.427V51.5436ZM330.949 51.5436H332.71V49.7769H330.949V51.5436ZM334.47 51.5436H336.231V49.7769H334.47V51.5436ZM337.992 51.5436H339.753V49.7769H337.992V51.5436ZM341.514 51.5436H343.275V49.7769H341.514V51.5436ZM345.036 51.5436H346.797V49.7769H345.036V51.5436ZM348.558 51.5436H350.319V49.7769H348.558V51.5436ZM352.08 51.5436H353.841V49.7769H352.08V51.5436ZM355.602 51.5436H357.363V49.7769H355.602V51.5436ZM359.124 51.5436H360.885V49.7769H359.124V51.5436ZM362.646 51.5436H364.407V49.7769H362.646V51.5436ZM366.168 51.5436H367.929V49.7769H366.168V51.5436ZM369.69 51.5436H371.451V49.7769H369.69V51.5436ZM373.212 51.5436H374.972V49.7769H373.212V51.5436ZM376.733 51.5436H378.494V49.7769H376.733V51.5436ZM380.255 51.5436H382.016V49.7769H380.255V51.5436ZM383.777 51.5436H385.538V49.7769H383.777V51.5436ZM387.299 51.5436H389.06V49.7769H387.299V51.5436ZM390.821 51.5436H392.582V49.7769H390.821V51.5436ZM394.343 51.5436H396.104V49.7769H394.343V51.5436ZM397.865 51.5436H399.626V49.7769H397.865V51.5436ZM401.387 51.5436H403.148V49.7769H401.387V51.5436ZM404.909 51.5436H406.67V49.7769H404.909V51.5436ZM408.431 51.5436H410.192V49.7769H408.431V51.5436ZM411.953 51.5436H413.714V49.7769H411.953V51.5436ZM415.474 51.5436H417.235V49.7769H415.474V51.5436ZM418.996 51.5436H420.757V49.7769H418.996V51.5436ZM422.518 51.5436H424.279V49.7769H422.518V51.5436ZM426.04 51.5436H427.801V49.7769H426.04V51.5436ZM429.562 51.5436H431.323V49.7769H429.562V51.5436ZM433.084 51.5436H434.845V49.7769H433.084V51.5436ZM436.606 51.5436H438.367V49.7769H436.606V51.5436ZM440.128 51.5436H441.889V49.7769H440.128V51.5436ZM443.65 51.5436H445.411V49.7769H443.65V51.5436ZM447.172 51.5436H448.933V49.7769H447.172V51.5436ZM450.694 51.5436H452.455V49.7769H450.694V51.5436ZM454.215 51.5436H455.976V49.7769H454.215V51.5436ZM457.737 51.5436H459.498V49.7769H457.737V51.5436ZM461.259 51.5436H463.02V49.7769H461.259V51.5436ZM464.781 51.5436H466.542V49.7769H464.781V51.5436ZM468.303 51.5436H470.064V49.7769H468.303V51.5436ZM471.825 51.5436H473.586V49.7769H471.825V51.5436ZM475.347 51.5436H477.108V49.7769H475.347V51.5436ZM478.869 51.5436H480.63V49.7769H478.869V51.5436ZM482.391 51.5436H484.152V49.7769H482.391V51.5436ZM485.913 51.5436H487.674V49.7769H485.913V51.5436ZM489.435 51.5436H491.196V49.7769H489.435V51.5436ZM492.957 51.5436H494.717V49.7769H492.957V51.5436ZM496.478 51.5436H498.239V49.7769H496.478V51.5436ZM500 51.5436H501.761V49.7769H500V51.5436ZM503.522 51.5436H505.283V49.7769H503.522V51.5436ZM507.044 51.5436H508.805V49.7769H507.044V51.5436ZM510.566 51.5436H512.327V49.7769H510.566V51.5436ZM514.088 51.5436H515.849V49.7769H514.088V51.5436ZM517.61 51.5436H519.371V49.7769H517.61V51.5436ZM521.132 51.5436H522.893V49.7769H521.132V51.5436ZM524.654 51.5436H526.415V49.7769H524.654V51.5436ZM528.176 51.5436H529.937V49.7769H528.176V51.5436ZM531.698 51.5436H533.459V49.7769H531.698V51.5436ZM535.22 51.5436H536.981V49.7769H535.22V51.5436ZM538.742 51.5436H540.503V49.7769H538.742V51.5436ZM542.264 51.5436H544.025V49.7769H542.264V51.5436ZM545.786 51.5436H547.547V49.7769H545.786V51.5436ZM549.308 51.5436H550.189V49.7769H549.308V51.5436Z" fill="#E3E3E3" mask="url(#path-3-inside-1_4253_2)"/>
</g>
</g>
</g>
</g>
</g>
</g>
<rect id="Rectangle 3467560" x="-4452.71" y="-17168.7" width="26039.4" height="35072.4" stroke="black" stroke-width="136.585"/>
<defs>
<filter id="filter0_dd_4253_2" x="-51.3766" y="-746.43" width="651.9" height="922.748" filterUnits="userSpaceOnUse" color-interpolation-filters="sRGB">
<feFlood flood-opacity="0" result="BackgroundImageFix"/>
<feColorMatrix in="SourceAlpha" type="matrix" values="0 0 0 0 0 0 0 0 0 0 0 0 0 0 0 0 0 0 127 0" result="hardAlpha"/>
<feMorphology radius="3.78391" operator="erode" in="SourceAlpha" result="effect1_dropShadow_4253_2"/>
<feOffset dy="7.56782"/>
<feGaussianBlur stdDeviation="3.78391"/>
<feColorMatrix type="matrix" values="0 0 0 0 0.0627451 0 0 0 0 0.0941176 0 0 0 0 0.156863 0 0 0 0.04 0"/>
<feBlend mode="normal" in2="BackgroundImageFix" result="effect1_dropShadow_4253_2"/>
<feColorMatrix in="SourceAlpha" type="matrix" values="0 0 0 0 0 0 0 0 0 0 0 0 0 0 0 0 0 0 127 0" result="hardAlpha"/>
<feMorphology radius="3.78391" operator="erode" in="SourceAlpha" result="effect2_dropShadow_4253_2"/>
<feOffset dy="18.9195"/>
<feGaussianBlur stdDeviation="11.3517"/>
<feColorMatrix type="matrix" values="0 0 0 0 0.0627451 0 0 0 0 0.0941176 0 0 0 0 0.156863 0 0 0 0.1 0"/>
<feBlend mode="normal" in2="effect1_dropShadow_4253_2" result="effect2_dropShadow_4253_2"/>
<feBlend mode="normal" in="SourceGraphic" in2="effect2_dropShadow_4253_2" result="shape"/>
</filter>
<clipPath id="clip0_4253_2">
<rect width="1166" height="1205" fill="white" transform="translate(-113.492 -838)"/>
</clipPath>
<clipPath id="clip1_4253_2">
<path d="M0.767578 -13.3579H550.189V50.6603H0.767578V-13.3579Z" fill="white"/>
</clipPath>
</defs>
</svg>
