<svg width="11" height="12" viewBox="0 0 11 12" fill="none" xmlns="http://www.w3.org/2000/svg">
<path d="M6.51504 1.11189L7.466 3.0138C7.59567 3.27855 7.94147 3.5325 8.23324 3.58113L9.95684 3.86749C11.0591 4.0512 11.3184 4.85086 10.5242 5.63972L9.18419 6.9797C8.95726 7.20663 8.83299 7.64429 8.90323 7.95767L9.28685 9.61644C9.58943 10.9294 8.89243 11.4373 7.73075 10.7511L6.11521 9.79474C5.82344 9.62184 5.34256 9.62184 5.04539 9.79474L3.42985 10.7511C2.27358 11.4373 1.57117 10.924 1.87374 9.61644L2.25737 7.95767C2.32761 7.64429 2.20334 7.20663 1.9764 6.9797L0.636425 5.63972C-0.152434 4.85086 0.101514 4.0512 1.20375 3.86749L2.92736 3.58113C3.21372 3.5325 3.55952 3.27855 3.6892 3.0138L4.64015 1.11189C5.15885 0.0798906 6.00174 0.0798906 6.51504 1.11189Z" fill="#FFA439"/>
</svg>
