<svg width="17" height="26" viewBox="0 0 17 26" fill="none" xmlns="http://www.w3.org/2000/svg"><g clip-path="url(#clip0_9864_8710)"><path d="M6.60247 8.04259C6.47679 8.2375 6.40625 8.50117 6.40625 8.776C6.40625 9.05082 6.47679 9.31449 6.60247 9.5094L8.9912 13.244L6.60247 16.9267C6.47679 17.1216 6.40625 17.3852 6.40625 17.6601C6.40625 17.9349 6.47679 18.1985 6.60247 18.3935C6.6652 18.491 6.73983 18.5684 6.82206 18.6212C6.90429 18.674 6.99249 18.7012 7.08157 18.7012C7.17065 18.7012 7.25884 18.674 7.34107 18.6212C7.4233 18.5684 7.49793 18.491 7.56066 18.3935L10.4217 13.9826C10.485 13.8859 10.5352 13.7709 10.5694 13.6441C10.6037 13.5173 10.6213 13.3814 10.6213 13.244C10.6213 13.1067 10.6037 12.9707 10.5694 12.844C10.5352 12.7172 10.485 12.6021 10.4217 12.5054L7.56066 8.04259C7.49793 7.94509 7.4233 7.8677 7.34107 7.81488C7.25884 7.76207 7.17065 7.73488 7.08157 7.73488C6.99249 7.73488 6.90429 7.76207 6.82206 7.81488C6.73983 7.8677 6.6652 7.94509 6.60247 8.04259Z" fill="#1F1724" /></g><defs><clipPath id="clip0_9864_8710"><rect width="24.9668" height="16.1946" fill="white" transform="matrix(0 -1 1 0 0.414062 25.7275)" /></clipPath></defs></svg>