<svg width="10" height="10" viewBox="0 0 10 10" fill="none" xmlns="http://www.w3.org/2000/svg">
<path d="M9.34324 9.21247L6.80132 6.65251C7.37821 5.97947 7.67266 5.16822 7.68468 4.21875C7.66064 3.16112 7.29408 2.27775 6.58498 1.56866C5.87589 0.859564 4.99252 0.492998 3.93489 0.468961C2.87726 0.492998 1.99389 0.859564 1.2848 1.56866C0.587719 2.27775 0.227162 3.16112 0.203125 4.21875C0.227162 5.27639 0.593728 6.15975 1.30282 6.86885C1.9999 7.57794 2.87726 7.94451 3.93489 7.96855C4.88436 7.94451 5.69561 7.64404 6.36865 7.06715L8.9286 9.60908C9.00071 9.66917 9.07283 9.69922 9.14494 9.69922C9.21705 9.69922 9.28315 9.66917 9.34324 9.60908C9.46343 9.47688 9.46343 9.34467 9.34324 9.21247ZM3.95292 7.39165C3.05152 7.36762 2.30036 7.05513 1.69944 6.45421C1.11053 5.8653 0.804053 5.12015 0.780016 4.21875C0.804053 3.31736 1.11053 2.57221 1.69944 1.9833C2.30036 1.38237 3.05152 1.06989 3.95292 1.04585C4.85431 1.06989 5.60547 1.37636 6.2064 1.96527C6.79531 2.5662 7.10178 3.31736 7.12582 4.21875C7.10178 5.12015 6.7893 5.87131 6.18837 6.47223C5.59946 7.06114 4.85431 7.36762 3.95292 7.39165Z" fill="white"/>
</svg>
