<svg width="18" height="17" fill="none" xmlns="http://www.w3.org/2000/svg"><path d="M16.788 15.275h0l.009.008a.784.784 0 01.226.527c0 .204-.094.38-.226.526h0l-.01.01a.749.749 0 01-.535.235.855.855 0 01-.548-.218l-.01-.008-.008-.009-4.178-4.147c-1.157.919-2.534 1.396-4.118 1.436h0-.013c-1.868-.042-3.432-.692-4.673-1.954C1.444 10.42.794 8.846.75 6.979h0v-.013c.042-1.867.681-3.44 1.921-4.701h0l.002-.002C3.935 1.002 5.509.351 7.377.309h.013c1.868.042 3.441.693 4.702 1.954 1.261 1.261 1.912 2.835 1.954 4.703h0v.01c-.02 1.584-.487 2.962-1.406 4.121l4.148 4.178zM3.777 10.579c.967.967 2.173 1.473 3.637 1.513 1.466-.04 2.661-.537 3.607-1.482.967-.968 1.472-2.174 1.513-3.638-.04-1.464-.537-2.67-1.483-3.637-.966-.946-2.172-1.442-3.637-1.483-1.464.04-2.67.546-3.637 1.514-.946.945-1.442 2.14-1.483 3.606.04 1.466.537 2.661 1.483 3.607z" fill="#494949" stroke="#494949" stroke-width=".561"/></svg>