<svg width="26" height="27" viewBox="0 0 26 27" fill="none" xmlns="http://www.w3.org/2000/svg">
<path d="M25.8238 1.86773L24.6191 0.662109L22.1822 3.10063L13.4821 2.90495L0.0224609 16.3739L10.1229 26.4814L23.5826 13.0124L23.3866 4.30624L25.8238 1.86773ZM10.5051 21.4155L5.08484 15.9915L6.28962 14.7855L11.7103 20.2103L10.5051 21.4155ZM13.6725 18.2459L8.25229 12.8219L9.45706 11.6163L14.8773 17.0403L13.6725 18.2459ZM20.5561 8.99357C20.2801 9.26998 19.9344 9.46643 19.5557 9.56207C19.1771 9.6577 18.7797 9.64894 18.4056 9.53673C18.0315 9.42451 17.6948 9.21303 17.4312 8.92473C17.1676 8.63643 16.9869 8.28207 16.9083 7.89928C16.8297 7.51648 16.8562 7.11954 16.9849 6.7506C17.1136 6.38166 17.3398 6.05448 17.6394 5.8038C17.939 5.55313 18.3008 5.38831 18.6864 5.32685C19.0721 5.26539 19.4672 5.30958 19.8298 5.45473L18.4248 6.86072L19.6295 8.06634L21.0345 6.66035C21.1917 7.05344 21.2301 7.48403 21.1451 7.89877C21.06 8.31351 20.8553 8.69416 20.5561 8.99357Z" fill="#37AC4E"/>
</svg>
