<svg width="14" height="12" viewBox="0 0 14 12" fill="none" xmlns="http://www.w3.org/2000/svg">
<path d="M13.1 0.903768C12.9592 0.732814 12.7334 0.638672 12.4643 0.638672C12.3379 0.638672 12.2025 0.659507 12.0617 0.700586L1.15862 3.88047C0.782018 3.9903 0.522454 4.21476 0.446458 4.49633C0.370461 4.77792 0.487874 5.08031 0.768597 5.32599C0.796045 5.35003 0.827587 5.37019 0.862096 5.38576L5.45245 7.45608L7.81875 11.4724C7.83654 11.5026 7.85957 11.5302 7.88701 11.5542C8.1126 11.7516 8.37276 11.856 8.63944 11.856H8.63951C9.04336 11.856 9.38811 11.6096 9.53912 11.213L13.1736 1.67331C13.2878 1.3733 13.2617 1.10001 13.1 0.903768ZM1.17755 4.64739C1.19192 4.59409 1.27571 4.53916 1.39615 4.50402L11.7448 1.48582L5.65966 6.81003L1.26414 4.82761C1.19793 4.75991 1.16521 4.69314 1.17755 4.64739ZM8.82646 11.0052C8.7908 11.0987 8.723 11.1987 8.63951 11.1987C8.58893 11.1987 8.52273 11.1701 8.45665 11.1206L6.19083 7.27478L12.2761 1.95044L8.82646 11.0052Z" fill="#37AA4C"/>
</svg>
