<svg width="15" height="15" fill="none" xmlns="http://www.w3.org/2000/svg"><path d="M10.842 14.213a1.15 1.15 0 01-.537-.133l-3.061-1.61-3.092 1.609a1.144 1.144 0 01-1.214-.088 1.144 1.144 0 01-.459-1.128l.585-3.408L.578 7.012A1.145 1.145 0 01.286 5.83a1.146 1.146 0 01.931-.784l3.422-.498L6.194 1.43A1.146 1.146 0 017.23.787c.442 0 .838.246 1.034.642l1.53 3.1 3.447.517a1.146 1.146 0 01.931.784 1.147 1.147 0 01-.292 1.182l-2.476 2.414.575 3.438a1.148 1.148 0 01-.458 1.128 1.16 1.16 0 01-.678.22zM1.359 6.21l2.476 2.414c.271.265.396.646.332 1.02l-.584 3.409.309.53-.261-.495 3.06-1.61a1.155 1.155 0 011.074 0l3.06 1.61.049-.035-.585-3.408a1.156 1.156 0 01.331-1.021l2.477-2.414-.019-.057-3.421-.498a1.156 1.156 0 01-.869-.63l-1.53-3.101c-.005-.01-.01-.018-.03-.018L5.667 5.024a1.153 1.153 0 01-.867.631l-3.423.498-.41.458.392-.4z" fill="#000"/></svg>