<svg width="48" height="53" viewBox="0 0 48 53" fill="none" xmlns="http://www.w3.org/2000/svg">
<path d="M1.0902 39.9432C0.367836 40.4112 0.157962 41.3795 0.66853 42.0725C3.01224 45.2535 6.05572 47.8635 9.57188 49.6957C13.5496 51.7685 17.9965 52.7753 22.4791 52.6179C26.9617 52.4606 31.3271 51.1445 35.1497 48.7979C38.9723 46.4514 42.1217 43.1544 44.2909 39.2284C46.4601 35.3025 47.575 30.8814 47.5271 26.3963C47.4791 21.9112 46.2699 17.515 44.0173 13.6363C41.7647 9.7576 38.5455 6.52872 34.6736 4.26442C31.251 2.26286 27.4216 1.07538 23.4811 0.784292C22.6227 0.720879 21.9147 1.4139 21.9029 2.27457C21.8911 3.13524 22.5802 3.837 23.438 3.90744C26.8396 4.18676 30.1424 5.22553 33.1001 6.95516C36.507 8.94758 39.3397 11.7888 41.3218 15.2017C43.304 18.6147 44.368 22.483 44.4102 26.4296C44.4524 30.3762 43.4713 34.2664 41.5626 37.721C39.6539 41.1756 36.8826 44.0766 33.519 46.1415C30.1554 48.2063 26.3142 49.3643 22.3698 49.5028C18.4254 49.6412 14.5124 48.7553 11.0123 46.9314C7.97388 45.3481 5.33657 43.1048 3.28964 40.3737C2.77341 39.685 1.81256 39.4751 1.0902 39.9432Z" fill="#37AC4E"/>
</svg>
