<svg width="31" height="20" fill="none" xmlns="http://www.w3.org/2000/svg"><path d="M29.167 8.333H2.333C1.46 8.333.75 9.042.75 9.916v.167c0 .874.709 1.583 1.583 1.583h26.834c.874 0 1.583-.709 1.583-1.583v-.167c0-.874-.709-1.583-1.583-1.583zm0 8.334H2.333c-.874 0-1.583.709-1.583 1.583v.167c0 .874.709 1.583 1.583 1.583h26.834c.874 0 1.583-.709 1.583-1.583v-.167c0-.874-.709-1.583-1.583-1.583zm0-16.667H2.333C1.46 0 .75.709.75 1.583v.167c0 .874.709 1.583 1.583 1.583h26.834c.874 0 1.583-.709 1.583-1.583v-.167C30.75.71 30.041 0 29.167 0z" fill="#000"/></svg>