<svg width="17" height="21" fill="none" xmlns="http://www.w3.org/2000/svg"><path d="M15.63 7.386l-.333 10.08a3.32 3.32 0 01-3.33 3.212H5.64a3.32 3.32 0 01-3.33-3.208L1.976 7.386a.833.833 0 111.665-.055l.333 10.083a1.665 1.665 0 001.665 1.601h6.328a1.665 1.665 0 001.665-1.604l.333-10.08a.833.833 0 011.666.055zm1.102-3.354a.833.833 0 01-.832.832H1.707a.833.833 0 110-1.665h2.58a1.062 1.062 0 001.06-.956A2.49 2.49 0 017.834 0h1.94a2.49 2.49 0 012.485 2.243 1.062 1.062 0 001.06.956h2.58a.832.832 0 01.833.833h.001zm-9.938-.833h4.02a2.746 2.746 0 01-.212-.786.832.832 0 00-.828-.75h-1.94a.833.833 0 00-.828.75 2.746 2.746 0 01-.212.786zm.839 12.615v-7.09a.833.833 0 10-1.666 0v7.093a.832.832 0 101.666 0v-.003zm4.008 0v-7.09a.832.832 0 10-1.666 0v7.093a.833.833 0 101.666 0v-.003z" fill="#37AA4C"/></svg>