<svg width="22" height="18" fill="none" xmlns="http://www.w3.org/2000/svg"><path d="M16 17a2 2 0 100-4 2 2 0 000 4zM6 17a2 2 0 100-4 2 2 0 000 4z" stroke="#F6B800" stroke-width="1.5" stroke-linecap="round" stroke-linejoin="round"/><path d="M4 14.972c-1.097-.054-1.78-.217-2.268-.704-.488-.487-.65-1.171-.704-2.268M8 15h6m4-.028c1.097-.054 1.78-.217 2.268-.704C21 13.535 21 12.357 21 10V8h-4.7c-.745 0-1.117 0-1.418-.098a2 2 0 01-1.284-1.284C13.5 6.317 13.5 5.945 13.5 5.2c0-1.117 0-1.675-.147-2.127a3 3 0 00-1.926-1.926C10.975 1 10.417 1 9.3 1H1m0 4h6M1 8h4" stroke="#F6B800" stroke-width="1.5" stroke-linecap="round" stroke-linejoin="round"/><path d="M13.5 3h1.821c1.456 0 2.183 0 2.775.354.593.353.938.994 1.628 2.276L21 8" stroke="#F6B800" stroke-width="1.5" stroke-linecap="round" stroke-linejoin="round"/></svg>