<svg width="27" height="27" viewBox="0 0 27 27" fill="none" xmlns="http://www.w3.org/2000/svg">
<g clip-path="url(#clip0_9864_14130)">
<path d="M23.8826 23.5306H3.35353C2.6374 23.5297 1.95084 23.2449 1.44445 22.7385C0.938066 22.2321 0.653202 21.5455 0.652344 20.8294L0.652344 6.78322C0.652344 5.29432 1.86464 4.08203 3.35353 4.08203H23.8826C25.3715 4.08203 26.5837 5.29432 26.5837 6.78322V20.8294C26.5837 22.3183 25.3715 23.5306 23.8826 23.5306ZM3.35353 5.16251C2.45998 5.16251 1.73282 5.88967 1.73282 6.78322V20.8294C1.73282 21.7229 2.45998 22.4501 3.35353 22.4501H23.8826C24.7761 22.4501 25.5033 21.7229 25.5033 20.8294V6.78322C25.5033 5.88967 24.7761 5.16251 23.8826 5.16251H3.35353Z" fill="white"/>
<path d="M8.75472 13.8062C7.26582 13.8062 6.05353 12.5939 6.05353 11.105C6.05353 9.6161 7.26582 8.40381 8.75472 8.40381C10.2436 8.40381 11.4559 9.6161 11.4559 11.105C11.4559 12.5939 10.2436 13.8062 8.75472 13.8062ZM8.75472 9.48428C7.86116 9.48428 7.134 10.2114 7.134 11.105C7.134 11.9985 7.86116 12.7257 8.75472 12.7257C9.64827 12.7257 10.3754 11.9985 10.3754 11.105C10.3754 10.2114 9.64827 9.48428 8.75472 9.48428ZM13.0766 19.2086C12.9333 19.2086 12.7959 19.1516 12.6946 19.0503C12.5933 18.949 12.5364 18.8116 12.5364 18.6683V17.5878C12.5364 16.6943 11.8092 15.9671 10.9157 15.9671H6.59377C5.70021 15.9671 4.97305 16.6943 4.97305 17.5878V18.6683C4.97305 18.8116 4.91614 18.949 4.81482 19.0503C4.71351 19.1516 4.5761 19.2086 4.43282 19.2086C4.28954 19.2086 4.15212 19.1516 4.05081 19.0503C3.9495 18.949 3.89258 18.8116 3.89258 18.6683V17.5878C3.89258 16.099 5.10487 14.8867 6.59377 14.8867H10.9157C12.4046 14.8867 13.6169 16.099 13.6169 17.5878V18.6683C13.6169 18.8116 13.5599 18.949 13.4586 19.0503C13.3573 19.1516 13.2199 19.2086 13.0766 19.2086ZM22.8009 10.5648H16.318C16.1748 10.5648 16.0374 10.5078 15.936 10.4065C15.8347 10.3052 15.7778 10.1678 15.7778 10.0245C15.7778 9.88124 15.8347 9.74383 15.936 9.64252C16.0374 9.5412 16.1748 9.48428 16.318 9.48428H22.8009C22.9442 9.48428 23.0816 9.5412 23.1829 9.64252C23.2842 9.74383 23.3411 9.88124 23.3411 10.0245C23.3411 10.1678 23.2842 10.3052 23.1829 10.4065C23.0816 10.5078 22.9442 10.5648 22.8009 10.5648ZM22.8009 14.8867H16.318C16.1748 14.8867 16.0374 14.8297 15.936 14.7284C15.8347 14.6271 15.7778 14.4897 15.7778 14.3464C15.7778 14.2031 15.8347 14.0657 15.936 13.9644C16.0374 13.8631 16.1748 13.8062 16.318 13.8062H22.8009C22.9442 13.8062 23.0816 13.8631 23.1829 13.9644C23.2842 14.0657 23.3411 14.2031 23.3411 14.3464C23.3411 14.4897 23.2842 14.6271 23.1829 14.7284C23.0816 14.8297 22.9442 14.8867 22.8009 14.8867ZM22.8009 19.2086H16.318C16.1748 19.2086 16.0374 19.1516 15.936 19.0503C15.8347 18.949 15.7778 18.8116 15.7778 18.6683C15.7778 18.525 15.8347 18.3876 15.936 18.2863C16.0374 18.185 16.1748 18.1281 16.318 18.1281H22.8009C22.9442 18.1281 23.0816 18.185 23.1829 18.2863C23.2842 18.3876 23.3411 18.525 23.3411 18.6683C23.3411 18.8116 23.2842 18.949 23.1829 19.0503C23.0816 19.1516 22.9442 19.2086 22.8009 19.2086Z" fill="white"/>
</g>
<defs>
<clipPath id="clip0_9864_14130">
<rect width="25.9314" height="25.9314" fill="white" transform="translate(0.650391 0.84082)"/>
</clipPath>
</defs>
</svg>
