<svg width="23" height="24" viewBox="0 0 23 24" fill="none" xmlns="http://www.w3.org/2000/svg">
<g clip-path="url(#clip0_9864_14041)">
<path d="M14.5904 10.9926C15.9904 9.93376 16.9021 8.22013 16.9021 6.28962C16.9021 3.0816 14.3854 0.47168 11.2919 0.47168C8.19846 0.47168 5.68175 3.0816 5.68175 6.28962C5.68175 8.22013 6.59338 9.93376 7.99342 10.9926C4.5132 12.3737 2.03516 15.873 2.03516 19.9618C2.03516 21.7262 3.41934 23.1617 5.12074 23.1617H17.4631C19.1645 23.1617 20.5487 21.7262 20.5487 19.9618C20.5487 15.873 18.0706 12.3737 14.5904 10.9926ZM7.36481 6.28962C7.36481 4.04402 9.12651 2.21708 11.2919 2.21708C13.4573 2.21708 15.219 4.04402 15.219 6.28962C15.219 8.53522 13.4573 10.3622 11.2919 10.3622C9.12651 10.3622 7.36481 8.53522 7.36481 6.28962ZM17.4631 21.4163H5.12074C4.34739 21.4163 3.71822 20.7638 3.71822 19.9618C3.71822 15.6309 7.11572 12.1075 11.2919 12.1075C15.4682 12.1075 18.8657 15.6308 18.8657 19.9618C18.8656 20.7638 18.2365 21.4163 17.4631 21.4163Z" fill="white"/>
</g>
<defs>
<clipPath id="clip0_9864_14041">
<rect width="21.8796" height="22.69" fill="white" transform="translate(0.355469 0.47168)"/>
</clipPath>
</defs>
</svg>
