<svg width="31" height="26" viewBox="0 0 31 26" fill="none" xmlns="http://www.w3.org/2000/svg">
<path d="M30.9443 24.5286C30.9443 24.8343 30.8229 25.1275 30.6067 25.3436C30.3905 25.5598 30.0973 25.6812 29.7916 25.6812H2.12729C1.82158 25.6812 1.52839 25.5598 1.31222 25.3436C1.09605 25.1275 0.974609 24.8343 0.974609 24.5286C0.974609 24.2229 1.09605 23.9297 1.31222 23.7135C1.52839 23.4973 1.82158 23.3759 2.12729 23.3759H29.7916C30.0973 23.3759 30.3905 23.4973 30.6067 23.7135C30.8229 23.9297 30.9443 24.2229 30.9443 24.5286ZM30.9443 2.62763V18.7652C30.9443 19.3766 30.7014 19.963 30.2691 20.3953C29.8367 20.8276 29.2504 21.0705 28.639 21.0705H3.27997C2.66855 21.0705 2.08217 20.8276 1.64983 20.3953C1.21749 19.963 0.974609 19.3766 0.974609 18.7652V2.62763C0.974609 2.01621 1.21749 1.42983 1.64983 0.99749C2.08217 0.565151 2.66855 0.322266 3.27997 0.322266H28.639C29.2504 0.322266 29.8367 0.565151 30.2691 0.99749C30.7014 1.42983 30.9443 2.01621 30.9443 2.62763ZM21.1465 10.6964C21.1465 10.5112 21.1018 10.3287 21.0163 10.1644C20.9307 10.0002 20.8069 9.8589 20.6552 9.75264L14.8918 5.71825C14.7191 5.59727 14.5165 5.52598 14.3061 5.51214C14.0957 5.4983 13.8855 5.54244 13.6984 5.63976C13.5114 5.73708 13.3546 5.88385 13.2452 6.0641C13.1357 6.24434 13.0778 6.45115 13.0778 6.66201V14.7308C13.0778 14.9416 13.1357 15.1485 13.2452 15.3287C13.3546 15.5089 13.5114 15.6557 13.6984 15.753C13.8855 15.8503 14.0957 15.8945 14.3061 15.8807C14.5165 15.8668 14.7191 15.7955 14.8918 15.6745L20.6552 11.6402C20.8069 11.5339 20.9307 11.3926 21.0163 11.2284C21.1018 11.0641 21.1465 10.8816 21.1465 10.6964Z" fill="#FF6628"/>
</svg>
