<svg width="13" height="20" viewBox="0 0 13 20" fill="none" xmlns="http://www.w3.org/2000/svg">
<path d="M5.32318 3.72627H1.82661C1.60283 3.72627 1.42143 3.90768 1.42143 4.13146V6.03405C1.42143 6.25783 1.60283 6.43924 1.82661 6.43924H7.27406L1.12737 13.6896C1.06531 13.7628 1.03125 13.8557 1.03125 13.9516V16.1108C1.03125 16.3345 1.21266 16.516 1.43643 16.516H4.93301V18.8237C4.93301 19.0475 5.11442 19.2289 5.33819 19.2289H7.64923C7.87301 19.2289 8.05442 19.0475 8.05442 18.8237V16.516H11.1608C11.3846 16.516 11.566 16.3345 11.566 16.1108V14.2082C11.566 13.9844 11.3846 13.803 11.1608 13.803H5.32318L11.566 6.05167V4.13146C11.566 3.90768 11.3846 3.72627 11.1608 3.72627H8.05442V1.80606C8.05442 1.58229 7.87301 1.40088 7.64923 1.40088H5.72837C5.50459 1.40088 5.32318 1.58229 5.32318 1.80606V3.72627Z" stroke="#37AC4E" stroke-width="1.13451"/>
</svg>
