<svg width="18" height="21" viewBox="0 0 18 21" fill="none" xmlns="http://www.w3.org/2000/svg">
<path d="M13.3194 3.71484H4.44104C4.24481 3.71484 4.05663 3.78628 3.91787 3.91344C3.77912 4.04059 3.70117 4.21306 3.70117 4.39288C3.70117 4.57271 3.77912 4.74517 3.91787 4.87233C4.05663 4.99949 4.24481 5.07092 4.44104 5.07092H13.3194C13.5157 5.07092 13.7039 4.99949 13.8426 4.87233C13.9814 4.74517 14.0593 4.57271 14.0593 4.39288C14.0593 4.21306 13.9814 4.04059 13.8426 3.91344C13.7039 3.78628 13.5157 3.71484 13.3194 3.71484ZM13.3194 6.427H4.44104C4.24481 6.427 4.05663 6.49844 3.91787 6.62559C3.77912 6.75275 3.70117 6.92521 3.70117 7.10504C3.70117 7.28487 3.77912 7.45733 3.91787 7.58449C4.05663 7.71164 4.24481 7.78308 4.44104 7.78308H13.3194C13.5157 7.78308 13.7039 7.71164 13.8426 7.58449C13.9814 7.45733 14.0593 7.28487 14.0593 7.10504C14.0593 6.92521 13.9814 6.75275 13.8426 6.62559C13.7039 6.49844 13.5157 6.427 13.3194 6.427Z" fill="black"/>
<path d="M1.4801 20.6673C1.65994 20.6671 1.83353 20.6068 1.96841 20.4978L4.38038 19.413L6.24485 20.5521C6.36565 20.625 6.50712 20.6638 6.65177 20.6638C6.79642 20.6638 6.93789 20.625 7.0587 20.5521L8.87877 19.4672L10.6914 20.5521C10.8123 20.625 10.9537 20.6638 11.0984 20.6638C11.243 20.6638 11.3845 20.625 11.5053 20.5521L13.3698 19.413L15.7817 20.4978C15.8883 20.586 16.0206 20.6438 16.1625 20.6643C16.3043 20.6848 16.4496 20.6669 16.5806 20.613C16.7116 20.5591 16.8226 20.4714 16.9002 20.3607C16.9777 20.2499 17.0184 20.1209 17.0173 19.9893V5.75048C17.0173 5.57066 16.9394 5.3982 16.8006 5.27104C16.6619 5.14388 16.4737 5.07245 16.2774 5.07245C16.0812 5.07245 15.893 5.14388 15.7543 5.27104C15.6155 5.3982 15.5376 5.57066 15.5376 5.75048V18.8773L13.6435 18.023C13.5265 17.9705 13.3965 17.9473 13.2666 17.9556C13.1367 17.964 13.0115 18.0036 12.9036 18.0705L11.0984 19.1757L9.2931 18.0908C9.17308 18.0193 9.03301 17.9812 8.88987 17.9812C8.74673 17.9812 8.60666 18.0193 8.48664 18.0908L6.65917 19.1757L4.8465 18.0705C4.73864 18.0036 4.61343 17.964 4.48352 17.9556C4.35361 17.9473 4.2236 17.9705 4.10663 18.023L2.21997 18.8773V1.68225H15.5376V3.03833C15.5376 3.21816 15.6155 3.39062 15.7543 3.51777C15.893 3.64493 16.0812 3.71637 16.2774 3.71637C16.4737 3.71637 16.6619 3.64493 16.8006 3.51777C16.9394 3.39062 17.0173 3.21816 17.0173 3.03833V1.00421C17.0173 0.824384 16.9394 0.651922 16.8006 0.524765C16.6619 0.397608 16.4737 0.326172 16.2774 0.326172H1.4801C1.28388 0.326172 1.09569 0.397608 0.956937 0.524765C0.818185 0.651922 0.740234 0.824384 0.740234 1.00421V19.9893C0.740234 20.1691 0.818185 20.3416 0.956937 20.4688C1.09569 20.5959 1.28388 20.6673 1.4801 20.6673Z" fill="black"/>
</svg>
