<svg width="18" height="19" viewBox="0 0 18 19" fill="none" xmlns="http://www.w3.org/2000/svg">
<path d="M14.4612 4.76626C12.9493 3.34026 10.9672 2.55495 8.87878 2.55495C8.83746 2.55495 8.79608 2.56058 8.75476 2.56115C8.7542 2.55921 8.75414 2.55689 8.75358 2.55495C8.34039 1.09001 7.00692 0.0507812 5.43555 0.0507812C3.53864 0.0507812 1.99232 1.59711 1.99232 3.49401C1.99232 4.00111 2.19265 4.64593 2.6121 5.49735C2.61354 5.50017 2.61517 5.5033 2.61661 5.50611C1.40828 6.95878 0.740234 8.7805 0.740234 10.6935C0.740234 13.1163 1.80582 15.3934 3.66135 16.9383C5.11276 18.1596 6.96579 18.832 8.87878 18.832C13.3663 18.832 17.0173 15.1813 17.0173 10.6935C17.0173 8.46109 16.0856 6.30081 14.4612 4.76626ZM5.43555 1.30287C6.56869 1.30287 7.50149 2.14802 7.61418 3.25612C7.62044 3.33124 7.6267 3.41263 7.6267 3.49401C7.6267 3.59819 7.60804 3.72033 7.57361 3.85693C7.51382 4.09407 7.39938 4.38086 7.25802 4.68888C7.23617 4.73633 7.22046 4.77903 7.19705 4.82767C7.18565 4.85146 7.17082 4.87775 7.15905 4.90173C6.77422 5.68848 6.20859 6.60563 5.66462 7.40866C5.58849 7.5209 5.5118 7.63553 5.43718 7.7424C5.2252 7.43752 4.96583 7.05344 4.70058 6.63487C4.69857 6.63167 4.69663 6.62892 4.69463 6.62573C4.42725 6.20346 4.15404 5.74608 3.9169 5.29845C3.91496 5.29476 3.91189 5.29194 3.90982 5.28825C3.33205 4.19299 3.2444 3.69378 3.2444 3.49401C3.2444 2.28575 4.22729 1.30287 5.43555 1.30287ZM1.99232 10.6935C1.99232 9.24571 2.43944 7.85665 3.26425 6.70098C3.31396 6.78174 3.36373 6.85636 3.41343 6.93725C3.43848 6.98107 3.46352 7.02489 3.49482 7.06871C3.50171 7.08023 3.50897 7.09094 3.51592 7.10246C3.54647 7.15166 3.57639 7.19974 3.60688 7.24808C3.68476 7.37385 3.76314 7.50143 3.83914 7.61963C3.83914 7.61963 3.8454 7.61963 3.8454 7.62589C3.93931 7.76988 4.03322 7.90761 4.12086 8.03908C4.20851 8.17055 4.29615 8.29576 4.37128 8.40844C4.43895 8.50216 4.49805 8.58355 4.55352 8.66356C4.5651 8.6799 4.57925 8.70049 4.59046 8.71614V8.72147C4.64592 8.79709 4.69081 8.85694 4.73163 8.91303C4.74634 8.93338 4.76193 8.95529 4.7752 8.97357C4.78052 8.98134 4.78685 8.9891 4.79073 8.99692C4.80193 9.0107 4.80938 9.02109 4.81915 9.03374C4.8805 9.11769 4.92558 9.1786 4.93422 9.19018L4.93472 9.191L4.93735 9.19319C5.05542 9.34932 5.23979 9.44141 5.43555 9.44141C5.53447 9.44141 5.63019 9.418 5.71608 9.37499C5.76347 9.35114 5.79809 9.30832 5.83828 9.27307C5.87078 9.24465 5.9104 9.22593 5.93689 9.19081C6.08952 8.98678 6.43277 8.51894 6.83169 7.92426C6.92322 7.78854 7.01687 7.64837 7.11341 7.50075C7.13275 7.46738 7.15479 7.43388 7.17495 7.40052C7.59821 6.73923 8.04033 5.98597 8.36881 5.27047C8.3772 5.25238 8.38847 5.2336 8.39673 5.21563C8.43123 5.13187 8.4671 5.05004 8.50022 4.96934C8.54492 4.86229 8.58479 4.75768 8.62273 4.65388C8.6305 4.63278 8.63945 4.61012 8.64715 4.58959C8.6484 4.58639 8.64909 4.58351 8.65034 4.58032C8.66305 4.54426 8.6757 4.50833 8.68747 4.47277C8.69448 4.45136 8.70312 4.42807 8.70975 4.40797C8.73166 4.34036 8.74807 4.27613 8.76597 4.21102C8.77242 4.18717 8.78062 4.16231 8.78663 4.13877C8.81192 4.03942 8.83152 3.94326 8.8456 3.85004C8.84779 3.83615 8.8523 3.82081 8.85431 3.80703C8.86226 3.80703 8.87083 3.80703 8.87878 3.80703C10.5886 3.80703 12.2104 4.43364 13.4719 5.56565C13.8759 7.08693 13.7002 8.59882 12.9713 9.73697C12.2841 10.8105 11.1427 11.4919 9.66991 11.708C7.42574 12.0393 5.46635 13.3536 3.95546 15.5042C2.70194 14.226 1.99232 12.5093 1.99232 10.6935ZM8.87878 17.58C7.44972 17.58 6.06247 17.1361 4.9113 16.3212C6.24064 14.377 7.89828 13.2354 9.85272 12.9467C11.6942 12.6767 13.137 11.8001 14.0259 10.4123C14.5841 9.5407 14.8832 8.50529 14.9269 7.41078C15.4683 8.41183 15.7652 9.54052 15.7652 10.6935C15.7652 14.4907 12.676 17.58 8.87878 17.58Z" fill="black"/>
<path d="M5.21723 4.93446C5.89164 4.93446 6.43836 4.38774 6.43836 3.71332C6.43836 3.03891 5.89164 2.49219 5.21723 2.49219C4.54281 2.49219 3.99609 3.03891 3.99609 3.71332C3.99609 4.38774 4.54281 4.93446 5.21723 4.93446Z" fill="black"/>
</svg>
