<svg width="37" height="36" fill="none" xmlns="http://www.w3.org/2000/svg"><path d="M23.77 4.765c-.371 0-.732 0-1.038.025a2.97 2.97 0 00-1.131.295 2.94 2.94 0 00-1.284 1.284A2.972 2.972 0 0020.02 7.5c-.025.306-.025.667-.025 1.038v4.208c0 .371 0 .733.025 1.038.028.336.092.733.296 1.132A2.94 2.94 0 0021.6 16.2a2.97 2.97 0 001.131.295c.306.025.667.025 1.038.025h4.208c.37 0 .732 0 1.038-.025a2.97 2.97 0 001.131-.295 2.939 2.939 0 001.284-1.284c.204-.4.268-.796.296-1.132.025-.305.025-.667.025-1.038V8.538c0-.37 0-.732-.025-1.038a2.97 2.97 0 00-.296-1.13 2.938 2.938 0 00-1.284-1.285 2.97 2.97 0 00-1.131-.295c-.306-.025-.667-.025-1.038-.025H23.77zM9.075 19.46c-.37 0-.732-.001-1.037.024a2.97 2.97 0 00-1.132.295 2.94 2.94 0 00-1.284 1.285 2.97 2.97 0 00-.295 1.13c-.025.307-.025.668-.025 1.039v4.208c0 .37 0 .732.025 1.038.027.336.092.732.295 1.131a2.938 2.938 0 001.284 1.284 2.97 2.97 0 001.132.296c.305.025.667.025 1.037.025h4.209c.37 0 .732 0 1.038-.025a2.97 2.97 0 001.13-.296 2.939 2.939 0 001.285-1.284 2.97 2.97 0 00.295-1.131c.025-.306.025-.667.025-1.038v-4.208c0-.371 0-.732-.025-1.038a2.97 2.97 0 00-.295-1.131 2.94 2.94 0 00-1.284-1.285 2.97 2.97 0 00-1.131-.295c-.306-.025-.667-.025-1.038-.025H9.075zm14.695 0c-.371 0-.732-.001-1.038.024a2.97 2.97 0 00-1.131.295 2.94 2.94 0 00-1.284 1.285 2.972 2.972 0 00-.296 1.13c-.025.307-.025.668-.025 1.039v4.208c0 .37 0 .732.025 1.038.028.336.092.732.296 1.131a2.939 2.939 0 001.284 1.284 2.97 2.97 0 001.131.296c.306.025.667.025 1.038.025h4.208c.37 0 .732 0 1.038-.025a2.97 2.97 0 001.131-.296 2.938 2.938 0 001.284-1.284 2.97 2.97 0 00.296-1.131c.025-.306.025-.667.025-1.038v-4.208c0-.371 0-.732-.025-1.038a2.97 2.97 0 00-.296-1.131 2.939 2.939 0 00-1.284-1.285 2.97 2.97 0 00-1.131-.295c-.306-.025-.667-.025-1.038-.025H23.77zM9.075 4.765c-.37 0-.732 0-1.037.025a2.97 2.97 0 00-1.132.295 2.939 2.939 0 00-1.284 1.284A2.97 2.97 0 005.327 7.5c-.025.306-.025.667-.025 1.038v4.208c0 .371 0 .733.025 1.038.027.336.092.733.295 1.132A2.94 2.94 0 006.906 16.2a2.97 2.97 0 001.132.295c.305.025.667.025 1.037.025h4.209c.37 0 .732 0 1.038-.025a2.97 2.97 0 001.13-.295 2.94 2.94 0 001.285-1.284 2.97 2.97 0 00.295-1.132c.025-.305.025-.667.025-1.037V8.538c0-.37 0-.732-.025-1.038a2.97 2.97 0 00-.295-1.13 2.94 2.94 0 00-1.284-1.285 2.97 2.97 0 00-1.131-.295c-.306-.025-.667-.025-1.038-.025H9.075z" fill="#37AC4E"/></svg>