<svg width="18" height="19" viewBox="0 0 18 19" fill="none" xmlns="http://www.w3.org/2000/svg">
<path d="M1.90288 16.4265H3.06553V17.5455C3.06553 17.8423 3.18803 18.1269 3.40607 18.3368C3.62411 18.5467 3.91983 18.6646 4.22818 18.6646H15.8547C16.163 18.6646 16.4588 18.5467 16.6768 18.3368C16.8948 18.1269 17.0173 17.8423 17.0173 17.5455V4.11692C17.0173 3.82013 16.8948 3.53549 16.6768 3.32563C16.4588 3.11577 16.163 2.99787 15.8547 2.99787H14.692V1.87882C14.692 1.58203 14.5695 1.29739 14.3515 1.08753C14.1335 0.877665 13.8377 0.759766 13.5294 0.759766H1.90288C1.59453 0.759766 1.29881 0.877665 1.08077 1.08753C0.862727 1.29739 0.740234 1.58203 0.740234 1.87882V15.3074C0.740234 15.6042 0.862727 15.8888 1.08077 16.0987C1.29881 16.3086 1.59453 16.4265 1.90288 16.4265ZM13.5294 15.3074H1.90288V1.87882H13.5294V15.3074ZM15.8547 4.11692V17.5455H4.22818V16.4265H13.5294C13.8377 16.4265 14.1335 16.3086 14.3515 16.0987C14.5695 15.8888 14.692 15.6042 14.692 15.3074V4.11692H15.8547ZM5.39083 4.67644C5.39083 4.82484 5.45208 4.96716 5.5611 5.07209C5.67012 5.17702 5.81798 5.23597 5.97216 5.23597H11.7854C11.9396 5.23597 12.0874 5.17702 12.1965 5.07209C12.3055 4.96716 12.3667 4.82484 12.3667 4.67644C12.3667 4.52805 12.3055 4.38573 12.1965 4.2808C12.0874 4.17587 11.9396 4.11692 11.7854 4.11692H5.97216C5.81798 4.11692 5.67012 4.17587 5.5611 4.2808C5.45208 4.38573 5.39083 4.52805 5.39083 4.67644ZM3.64686 8.59312H11.7854C11.9396 8.59312 12.0874 8.53417 12.1965 8.42924C12.3055 8.32431 12.3667 8.18199 12.3667 8.03359C12.3667 7.8852 12.3055 7.74288 12.1965 7.63795C12.0874 7.53302 11.9396 7.47407 11.7854 7.47407H3.64686C3.49268 7.47407 3.34482 7.53302 3.2358 7.63795C3.12678 7.74288 3.06553 7.8852 3.06553 8.03359C3.06553 8.18199 3.12678 8.32431 3.2358 8.42924C3.34482 8.53417 3.49268 8.59312 3.64686 8.59312ZM3.64686 10.8312H11.7854C11.9396 10.8312 12.0874 10.7723 12.1965 10.6673C12.3055 10.5624 12.3667 10.4201 12.3667 10.2717C12.3667 10.1233 12.3055 9.98098 12.1965 9.87605C12.0874 9.77112 11.9396 9.71217 11.7854 9.71217H3.64686C3.49268 9.71217 3.34482 9.77112 3.2358 9.87605C3.12678 9.98098 3.06553 10.1233 3.06553 10.2717C3.06553 10.4201 3.12678 10.5624 3.2358 10.6673C3.34482 10.7723 3.49268 10.8312 3.64686 10.8312ZM3.64686 13.0693H11.7854C11.9396 13.0693 12.0874 13.0104 12.1965 12.9054C12.3055 12.8005 12.3667 12.6582 12.3667 12.5098C12.3667 12.3614 12.3055 12.2191 12.1965 12.1142C12.0874 12.0092 11.9396 11.9503 11.7854 11.9503H3.64686C3.49268 11.9503 3.34482 12.0092 3.2358 12.1142C3.12678 12.2191 3.06553 12.3614 3.06553 12.5098C3.06553 12.6582 3.12678 12.8005 3.2358 12.9054C3.34482 13.0104 3.49268 13.0693 3.64686 13.0693Z" fill="black"/>
</svg>
