<svg width="20" height="22" fill="none" xmlns="http://www.w3.org/2000/svg"><path d="M1.429 19.25h1.428v1.375c0 .365.15.714.419.972.267.258.63.403 1.01.403H18.57c.38 0 .743-.145 1.01-.403a1.35 1.35 0 00.419-.972v-16.5c0-.365-.15-.714-.418-.972a1.457 1.457 0 00-1.01-.403h-1.43V1.375c0-.365-.15-.714-.418-.972A1.457 1.457 0 0015.714 0H1.43C1.05 0 .687.145.42.403a1.35 1.35 0 00-.42.972v16.5c0 .365.15.714.418.972s.632.403 1.01.403zm14.285-1.375H1.43v-16.5h14.285v16.5zm2.857-13.75v16.5H4.286V19.25h11.428c.38 0 .742-.145 1.01-.403a1.35 1.35 0 00.419-.972V4.125h1.428zm-12.857.688c0 .182.076.357.21.486a.729.729 0 00.505.201h7.142c.19 0 .372-.072.505-.201a.675.675 0 00.21-.487.675.675 0 00-.21-.486.729.729 0 00-.505-.201H6.43a.729.729 0 00-.506.201.675.675 0 00-.209.487zM3.571 9.625h10c.19 0 .372-.072.505-.201a.675.675 0 00.21-.486.675.675 0 00-.21-.487.729.729 0 00-.505-.201h-10a.729.729 0 00-.505.201.675.675 0 00-.209.486c0 .183.075.358.21.487a.729.729 0 00.504.201zm0 2.75h10c.19 0 .372-.072.505-.201a.674.674 0 00.21-.486.674.674 0 00-.21-.487.728.728 0 00-.505-.201h-10a.728.728 0 00-.505.201.675.675 0 00-.209.486c0 .183.075.358.21.487a.728.728 0 00.504.201zm0 2.75h10c.19 0 .372-.072.505-.201a.674.674 0 00.21-.486.674.674 0 00-.21-.487.728.728 0 00-.505-.201h-10a.728.728 0 00-.505.201.675.675 0 00-.209.486c0 .183.075.358.21.487a.728.728 0 00.504.201z" fill="#000"/></svg>