<svg width="19" height="17" viewBox="0 0 19 17" fill="none" xmlns="http://www.w3.org/2000/svg">
<path d="M9.69264 16.2356C9.51945 16.2356 9.37291 16.1757 9.25301 16.0558L3.0183 10.0409C2.95169 9.98762 2.8601 9.90102 2.74353 9.78113C2.62697 9.66123 2.44212 9.44308 2.18901 9.12668C1.93589 8.81028 1.70941 8.48556 1.50958 8.15251C1.30975 7.81946 1.13157 7.41647 0.975035 6.94353C0.818501 6.4706 0.740234 6.01099 0.740234 5.5647C0.740234 4.09928 1.16321 2.95359 2.00916 2.12762C2.85511 1.30165 4.02411 0.888672 5.51618 0.888672C5.92916 0.888672 6.35047 0.960278 6.78011 1.10349C7.20974 1.2467 7.60941 1.43987 7.97909 1.683C8.34878 1.92612 8.66684 2.15426 8.93328 2.36742C9.19972 2.58057 9.45284 2.80704 9.69264 3.04684C9.93244 2.80704 10.1856 2.58057 10.452 2.36742C10.7184 2.15426 11.0365 1.92612 11.4062 1.683C11.7759 1.43987 12.1755 1.2467 12.6052 1.10349C13.0348 0.960278 13.4561 0.888672 13.8691 0.888672C15.3612 0.888672 16.5302 1.30165 17.3761 2.12762C18.2221 2.95359 18.645 4.09928 18.645 5.5647C18.645 7.03679 17.8824 8.53552 16.357 10.0609L10.1323 16.0558C10.0124 16.1757 9.86582 16.2356 9.69264 16.2356Z" fill="black"/>
</svg>
