<svg width="22" height="20" fill="none" xmlns="http://www.w3.org/2000/svg"><path d="M11 19.429a.735.735 0 01-.54-.221L2.8 11.817a4.024 4.024 0 01-.338-.32c-.144-.147-.37-.415-.682-.803-.31-.39-.59-.788-.835-1.197A7.435 7.435 0 01.29 8.01 5.378 5.378 0 010 6.317c0-1.8.52-3.208 1.56-4.223C2.598 1.079 4.034.57 5.867.57A4.89 4.89 0 017.42.834a6.285 6.285 0 011.474.712c.454.3.845.58 1.172.841.327.262.638.54.933.835.295-.294.606-.573.933-.835a15.7 15.7 0 011.172-.84A6.285 6.285 0 0114.58.834 4.894 4.894 0 0116.133.57c1.833 0 3.27.508 4.309 1.523C21.48 3.109 22 4.516 22 6.317c0 1.809-.937 3.65-2.811 5.524l-7.649 7.367a.735.735 0 01-.54.22z" fill="#000"/></svg>