<svg width="18" height="14" viewBox="0 0 18 14" fill="none" xmlns="http://www.w3.org/2000/svg">
<path d="M14.1358 4.2016C13.6376 3.0568 12.7778 2.10692 11.6881 1.49754C10.5984 0.888157 9.33894 0.65288 8.10273 0.827763C6.86652 1.00265 5.72176 1.57804 4.84385 2.46578C3.96594 3.35351 3.40332 4.50461 3.24221 5.74269C2.4648 5.92886 1.78284 6.39405 1.32583 7.04992C0.868813 7.70578 0.668577 8.50665 0.763146 9.30042C0.857715 10.0942 1.2405 10.8256 1.83881 11.3557C2.43712 11.8859 3.20929 12.1778 4.00868 12.1761H5.63946C5.85572 12.1761 6.06312 12.0902 6.21603 11.9373C6.36895 11.7844 6.45485 11.577 6.45485 11.3607C6.45485 11.1445 6.36895 10.9371 6.21603 10.7842C6.06312 10.6313 5.85572 10.5453 5.63946 10.5453H4.00868C3.57617 10.5453 3.16137 10.3735 2.85554 10.0677C2.54971 9.76187 2.3779 9.34707 2.3779 8.91456C2.3779 8.48205 2.54971 8.06726 2.85554 7.76143C3.16137 7.4556 3.57617 7.28378 4.00868 7.28378C4.22493 7.28378 4.43233 7.19787 4.58525 7.04496C4.73816 6.89204 4.82407 6.68465 4.82407 6.46839C4.82615 5.50401 5.17003 4.57159 5.79461 3.83678C6.41918 3.10198 7.28402 2.61236 8.23546 2.45493C9.18691 2.2975 10.1634 2.48243 10.9913 2.97689C11.8193 3.47135 12.4452 4.2433 12.7578 5.15561C12.8044 5.29573 12.8882 5.42056 13.0002 5.51677C13.1123 5.61299 13.2483 5.67698 13.3938 5.70192C13.9599 5.79956 14.4735 6.09325 14.8447 6.53156C15.2159 6.96986 15.421 7.52481 15.4242 8.09917C15.4242 8.74794 15.1664 9.37013 14.7077 9.82888C14.2489 10.2876 13.6268 10.5453 12.978 10.5453C12.7617 10.5453 12.5543 10.6313 12.4014 10.7842C12.2485 10.9371 12.1626 11.1445 12.1626 11.3607C12.1626 11.577 12.2485 11.7844 12.4014 11.9373C12.5543 12.0902 12.7617 12.1761 12.978 12.1761C13.9513 12.1671 14.8892 11.8103 15.6223 11.17C16.3553 10.5298 16.8352 9.64836 16.975 8.68515C17.1149 7.72195 16.9055 6.74049 16.3848 5.91819C15.8641 5.09588 15.0664 4.487 14.1358 4.2016ZM9.65119 12.6817C9.6349 12.6316 9.61008 12.5847 9.5778 12.5431L9.47996 12.4126C9.4007 12.3406 9.30969 12.2827 9.21088 12.2414C9.06239 12.1789 8.89873 12.1619 8.74055 12.1923C8.58237 12.2228 8.43676 12.2995 8.3221 12.4126L8.22425 12.5431C8.19198 12.5847 8.16715 12.6316 8.15087 12.6817C8.12736 12.7279 8.11087 12.7774 8.10194 12.8284C8.09832 12.8827 8.09832 12.9372 8.10194 12.9915C8.09795 13.0431 8.09795 13.0949 8.10194 13.1464C8.1095 13.2005 8.12604 13.2528 8.15087 13.3014C8.16715 13.3515 8.19198 13.3984 8.22425 13.44L8.3221 13.5704C8.47836 13.7194 8.68514 13.8039 8.90103 13.8069C9.00758 13.8056 9.11285 13.7835 9.21088 13.7417C9.30969 13.7004 9.4007 13.6425 9.47996 13.5704L9.5778 13.44C9.61008 13.3984 9.6349 13.3515 9.65119 13.3014C9.67602 13.2528 9.69255 13.2005 9.70011 13.1464C9.70956 13.0953 9.71501 13.0435 9.71642 12.9915C9.72005 12.9372 9.72005 12.8827 9.71642 12.8284C9.70238 12.7764 9.68038 12.7269 9.65119 12.6817ZM8.90103 6.46839C8.47137 6.46811 8.04922 6.58101 7.67705 6.79572C7.30489 7.01043 6.99584 7.31938 6.78101 7.69148C6.7271 7.78454 6.69213 7.88735 6.67812 7.99399C6.66411 8.10062 6.67133 8.20898 6.69937 8.31281C6.72741 8.41664 6.77572 8.5139 6.84151 8.59898C6.9073 8.68407 6.98927 8.75529 7.08271 8.80856C7.26993 8.91487 7.49161 8.94281 7.69936 8.88629C7.90711 8.82977 8.08407 8.69338 8.19164 8.50687C8.26348 8.38244 8.36692 8.2792 8.49149 8.2076C8.61607 8.13601 8.75735 8.0986 8.90103 8.09917C9.11728 8.09917 9.32468 8.18508 9.4776 8.338C9.63051 8.49091 9.71642 8.69831 9.71642 8.91456C9.71642 9.13082 9.63051 9.33822 9.4776 9.49113C9.32468 9.64405 9.11728 9.72996 8.90103 9.72996C8.68477 9.72996 8.47737 9.81586 8.32446 9.96878C8.17154 10.1217 8.08564 10.3291 8.08564 10.5453C8.08564 10.7616 8.17154 10.969 8.32446 11.1219C8.47737 11.2748 8.68477 11.3607 8.90103 11.3607C9.54979 11.3607 10.172 11.103 10.6307 10.6443C11.0895 10.1855 11.3472 9.56333 11.3472 8.91456C11.3472 8.2658 11.0895 7.6436 10.6307 7.18486C10.172 6.72611 9.54979 6.46839 8.90103 6.46839Z" fill="black"/>
</svg>
