<svg width="20" height="16" fill="none" xmlns="http://www.w3.org/2000/svg"><path d="M16.46 4.206A7.014 7.014 0 003.073 6.1a4.008 4.008 0 00.942 7.905H6.02a1.002 1.002 0 000-2.004H4.016a2.004 2.004 0 110-4.008 1.002 1.002 0 001.002-1.002 5.01 5.01 0 019.748-1.613 1.002 1.002 0 00.782.672 3.006 3.006 0 012.494 2.945 3.006 3.006 0 01-3.005 3.006 1.002 1.002 0 000 2.004 5.01 5.01 0 001.422-9.799zm-5.51 10.42a.56.56 0 00-.091-.17l-.12-.16a1.154 1.154 0 00-.33-.211 1.003 1.003 0 00-1.093.21l-.12.16a.561.561 0 00-.09.17.64.64 0 00-.06.181 1.506 1.506 0 000 .2 1.231 1.231 0 000 .19.6.6 0 00.06.191c.02.062.05.12.09.17l.12.16c.192.184.446.288.711.292.131-.002.26-.03.381-.08.122-.051.233-.123.33-.211l.12-.16a.559.559 0 00.091-.17c.03-.06.05-.125.06-.191.012-.063.018-.127.02-.19a1.49 1.49 0 000-.2.64.64 0 00-.08-.181zm-.923-7.635a3.006 3.006 0 00-2.605 1.503 1.002 1.002 0 101.734 1.002 1.002 1.002 0 01.871-.5 1.002 1.002 0 010 2.003 1.002 1.002 0 000 2.004 3.006 3.006 0 000-6.012z" fill="#000"/></svg>