<svg width="37" height="37" fill="none" xmlns="http://www.w3.org/2000/svg"><g fill="#37AC4E" clip-path="url(#clip0_8290_380)"><path d="M35.725 30.38l-.062-.085c-1.293-1.496-2.88-2.592-4.416-3.65-.59-.408-1.61-1.05-2.385-1.59a15.317 15.317 0 002.805-8.859c0-8.5-6.889-15.388-15.387-15.388C7.782.808.894 7.696.894 16.194S7.782 31.581 16.28 31.581c3.17.005 6.264-.974 8.853-2.802.543.774 1.183 1.791 1.59 2.383 1.062 1.535 2.16 3.125 3.654 4.413l.085.062a2.985 2.985 0 001.584.439 3.414 3.414 0 002.284-.886l.924-.923.022-.023c.985-1.077 1.173-2.702.45-3.864zM7.251 25.223A12.769 12.769 0 1125.31 7.165 12.769 12.769 0 017.25 25.223z"/><path d="M16.28 5.322a10.827 10.827 0 100 21.655 10.827 10.827 0 000-21.655zm0 16.922a1.547 1.547 0 110-3.093 1.547 1.547 0 010 3.093zm1.625-10.8c-.073 2.295-.145 3.104-.217 5.397a1.41 1.41 0 01-2.816 0c-.069-2.293-.144-3.1-.216-5.396-.028-.753.7-1.39 1.624-1.39.925 0 1.652.637 1.625 1.39z"/></g><defs><clipPath id="clip0_8290_380"><path fill="#fff" transform="translate(.894 .808)" d="M0 0h35.27v35.27H0z"/></clipPath></defs></svg>