<svg width="37" height="36" fill="none" xmlns="http://www.w3.org/2000/svg"><g clip-path="url(#clip0_8290_393)"><path d="M36.157 12.453H.894v1.47a2.939 2.939 0 002.939 2.939H8.24a2.94 2.94 0 002.94-2.94 2.939 2.939 0 002.939 2.94h8.817a2.94 2.94 0 002.94-2.94 2.939 2.939 0 002.939 2.94h4.408a2.94 2.94 0 002.94-2.94v-1.469h-.007zm-.355-1.47l-2.634-9.221A1.47 1.47 0 0031.755.696h-6.731l2.057 10.287h8.721zM12.033.696h-6.73a1.47 1.47 0 00-1.414 1.066l-2.634 9.221h8.72L12.034.696zm9.993 0h-6.995l-2.058 10.287h11.11L22.028.696zm6.79 17.635a4.395 4.395 0 01-2.94-1.125 4.392 4.392 0 01-2.939 1.125H14.12a4.396 4.396 0 01-2.94-1.125 4.392 4.392 0 01-2.939 1.125H3.833a4.382 4.382 0 01-1.47-.257v16.423a1.47 1.47 0 001.47 1.47h2.939V22.74a1.47 1.47 0 011.47-1.47h7.347a1.47 1.47 0 011.47 1.47v13.226h16.165a1.47 1.47 0 001.47-1.47V18.075c-.472.17-.969.256-1.47.257h-4.408zm1.47 8.818a1.47 1.47 0 01-1.47 1.47h-7.348a1.47 1.47 0 01-1.47-1.47V22.74a1.47 1.47 0 011.47-1.47h7.348a1.47 1.47 0 011.47 1.47v4.409z" fill="#37AC4E"/></g><defs><clipPath id="clip0_8290_393"><path fill="#fff" transform="translate(.894 .696)" d="M0 0h35.27v35.27H0z"/></clipPath></defs></svg>