<svg width="37" height="36" fill="none" xmlns="http://www.w3.org/2000/svg"><path d="M28.816 10.756h-2.94v-1.47a4.409 4.409 0 00-4.408-4.408h-5.879a4.409 4.409 0 00-4.408 4.409v1.47H8.24a2.948 2.948 0 00-2.939 2.938v14.696a2.948 2.948 0 002.94 2.94h20.574a2.948 2.948 0 002.939-2.94V13.695a2.948 2.948 0 00-2.94-2.939zM14.12 9.286a1.47 1.47 0 011.47-1.469h5.878a1.47 1.47 0 011.47 1.47v1.47H14.12v-1.47zm8.817 13.227h-2.939v2.94h-2.94v-2.94H14.12v-2.94h2.939v-2.938h2.94v2.939h2.938v2.939z" fill="#37AC4E"/></svg>