<svg width="20" height="20" fill="none" xmlns="http://www.w3.org/2000/svg"><path d="M19.168 12.224a3.067 3.067 0 01-.732-1.002 2.849 2.849 0 01-.255-1.182V7.498c0-1.988-.862-3.896-2.396-5.302C14.25.79 12.169 0 10 0 7.83 0 5.749.79 4.215 2.196 2.68 3.602 1.818 5.51 1.818 7.498v2.542c.001.405-.085.808-.255 1.182-.17.375-.418.716-.732 1.002a2.541 2.541 0 00-.776 1.332 2.4 2.4 0 00.161 1.502c.215.475.578.881 1.045 1.167a3.025 3.025 0 001.576.438h2.708c.209.942.766 1.788 1.578 2.397.812.608 1.828.94 2.877.94a4.807 4.807 0 002.876-.94c.812-.608 1.37-1.455 1.578-2.397h2.709c.56 0 1.11-.152 1.576-.438.467-.286.83-.692 1.045-1.167a2.4 2.4 0 00.162-1.502 2.543 2.543 0 00-.778-1.332zM10 18.33a2.9 2.9 0 01-1.568-.461 2.535 2.535 0 01-.992-1.205h5.12a2.535 2.535 0 01-.993 1.205A2.9 2.9 0 0110 18.33zm7.162-3.332H2.837c-.201 0-.398-.055-.566-.157a.957.957 0 01-.376-.42.862.862 0 01-.058-.54.913.913 0 01.28-.478c.483-.44.866-.964 1.127-1.542.26-.577.394-1.196.392-1.82V7.498c0-1.546.67-3.03 1.864-4.123C6.693 2.28 8.312 1.666 10 1.666c1.687 0 3.306.615 4.499 1.709 1.193 1.093 1.864 2.577 1.864 4.123v2.542a4.384 4.384 0 00.392 1.82 4.702 4.702 0 001.128 1.542.91.91 0 01.279.479.86.86 0 01-.058.54.957.957 0 01-.376.419 1.085 1.085 0 01-.566.157z" fill="#000"/></svg>