<svg width="18" height="18" viewBox="0 0 18 18" fill="none" xmlns="http://www.w3.org/2000/svg">
<path d="M14.1835 17.1248H3.57939C2.8264 17.1248 2.10425 16.8256 1.5718 16.2932C1.03936 15.7607 0.740234 15.0386 0.740234 14.2856V3.68147C0.741648 2.92941 1.0414 2.20863 1.57369 1.67734C2.10598 1.14605 2.82732 0.847655 3.57939 0.847656H14.1835C14.5557 0.847656 14.9242 0.920955 15.268 1.06337C15.6118 1.20578 15.9242 1.41452 16.1873 1.67766C16.4505 1.94081 16.6592 2.2532 16.8016 2.59702C16.944 2.94083 17.0173 3.30933 17.0173 3.68147V14.2856C17.0173 15.0377 16.7189 15.759 16.1877 16.2913C15.6564 16.8236 14.9356 17.1233 14.1835 17.1248ZM3.57939 2.18184C3.382 2.18114 3.18643 2.21941 3.00387 2.29446C2.82131 2.36951 2.65536 2.47986 2.51554 2.61918C2.37572 2.75851 2.26478 2.92406 2.18908 3.10635C2.11339 3.28865 2.07442 3.48409 2.07442 3.68147V14.2856C2.07442 14.6847 2.23298 15.0675 2.51522 15.3498C2.79745 15.632 3.18025 15.7906 3.57939 15.7906H14.1835C14.3809 15.7906 14.5763 15.7516 14.7586 15.6759C14.9409 15.6002 15.1065 15.4893 15.2458 15.3494C15.3851 15.2096 15.4955 15.0437 15.5705 14.8611C15.6456 14.6786 15.6838 14.483 15.6831 14.2856V3.68147C15.6831 3.28375 15.5251 2.90231 15.2439 2.62108C14.9627 2.33984 14.5812 2.18184 14.1835 2.18184H3.57939Z" fill="black"/>
<path d="M6.75462 9.6533C6.57039 9.65267 6.38842 9.61264 6.22094 9.53589C5.9867 9.42948 5.78839 9.25735 5.65007 9.04041C5.51176 8.82347 5.4394 8.57104 5.44177 8.31377V1.51475C5.44177 1.33783 5.51206 1.16815 5.63716 1.04304C5.76227 0.917939 5.93194 0.847656 6.10887 0.847656C6.28579 0.847656 6.45547 0.917939 6.58058 1.04304C6.70568 1.16815 6.77596 1.33783 6.77596 1.51475V8.31377L8.0301 7.20373C8.26579 6.99331 8.57069 6.87701 8.88665 6.87701C9.2026 6.87701 9.5075 6.99331 9.7432 7.20373L11.0294 8.31911L10.9867 1.51475C10.9867 1.33783 11.0569 1.16815 11.182 1.04304C11.3072 0.917939 11.4768 0.847656 11.6538 0.847656C11.8307 0.847656 12.0004 0.917939 12.1255 1.04304C12.2506 1.16815 12.3209 1.33783 12.3209 1.51475V8.31377C12.3232 8.57104 12.2509 8.82347 12.1126 9.04041C11.9742 9.25735 11.7759 9.42948 11.5417 9.53589C11.3144 9.64041 11.0616 9.67638 10.8142 9.63942C10.5668 9.60245 10.3356 9.49414 10.1488 9.32776L8.87864 8.22839L7.6085 9.33309C7.37253 9.54054 7.0688 9.65444 6.75462 9.6533ZM9.67916 13.8266H4.87608C4.69915 13.8266 4.52948 13.7564 4.40437 13.6313C4.27927 13.5061 4.20898 13.3365 4.20898 13.1595C4.20898 12.9826 4.27927 12.8129 4.40437 12.6878C4.52948 12.5627 4.69915 12.4925 4.87608 12.4925H9.67916C9.85608 12.4925 10.0258 12.5627 10.1509 12.6878C10.276 12.8129 10.3463 12.9826 10.3463 13.1595C10.3463 13.3365 10.276 13.5061 10.1509 13.6313C10.0258 13.7564 9.85608 13.8266 9.67916 13.8266Z" fill="black"/>
</svg>
