<svg width="20" height="20" fill="none" xmlns="http://www.w3.org/2000/svg"><path d="M16.518 20H3.488A3.488 3.488 0 010 16.512V3.482A3.489 3.489 0 013.489 0h13.029A3.482 3.482 0 0120 3.482v13.03A3.488 3.488 0 0116.518 20zM3.488 1.64A1.843 1.843 0 001.64 3.481v13.03a1.849 1.849 0 001.85 1.849h13.029a1.843 1.843 0 001.843-1.85V3.483a1.843 1.843 0 00-1.843-1.843H3.488z" fill="#000"/><path d="M7.39 10.82a1.632 1.632 0 01-1.613-1.646V.82a.82.82 0 011.639 0v8.354l1.54-1.364a1.58 1.58 0 012.106 0l1.58 1.37L12.59.82a.82.82 0 111.639 0v8.354a1.633 1.633 0 01-.957 1.501 1.58 1.58 0 01-1.712-.255L10 9.069l-1.561 1.357a1.58 1.58 0 01-1.05.394zm3.593 5.127H5.081a.82.82 0 110-1.639h5.902a.82.82 0 010 1.64z" fill="#000"/></svg>