<svg width="33" height="33" fill="none" xmlns="http://www.w3.org/2000/svg"><path d="M25.325.356H8.202A7.33 7.33 0 00.894 7.665v17.123a7.33 7.33 0 007.308 7.308h17.123a7.329 7.329 0 007.309-7.308V7.665A7.33 7.33 0 0025.325.356zm-2.044 17.238h-4.818a.279.279 0 00-.282.282V22.7a1.418 1.418 0 11-2.835 0v-4.824a.279.279 0 00-.282-.282h-4.818a1.419 1.419 0 010-2.836h4.818a.282.282 0 00.26-.173.279.279 0 00.022-.108V9.659a1.418 1.418 0 012.835 0v4.818a.28.28 0 00.282.288h4.818a1.418 1.418 0 010 2.835v-.006z" fill="#37AC4E"/></svg>