<svg width="18" height="17" viewBox="0 0 18 17" fill="none" xmlns="http://www.w3.org/2000/svg">
<path d="M16.4358 0.728525H10.6205C10.5439 0.728083 10.4681 0.742752 10.3972 0.771692C10.3264 0.800632 10.2619 0.843273 10.2076 0.89717L1.31593 9.80626C0.947317 10.1749 0.740234 10.6748 0.740234 11.1961C0.740234 11.7174 0.947317 12.2174 1.31593 12.586L5.15986 16.4299C5.52848 16.7985 6.02843 17.0056 6.54973 17.0056C7.07102 17.0056 7.57097 16.7985 7.93959 16.4299L16.8487 7.53828C16.9026 7.48394 16.9452 7.4195 16.9742 7.34864C17.0031 7.27779 17.0178 7.20192 17.0173 7.12539V1.31006C17.0173 1.15583 16.9561 1.00791 16.847 0.898852C16.7379 0.789794 16.59 0.728525 16.4358 0.728525ZM15.8543 6.88696L7.13126 15.61C7.05587 15.688 6.96552 15.7502 6.86561 15.7926C6.7657 15.835 6.65827 15.8568 6.54973 15.8568C6.44118 15.8568 6.33375 15.835 6.23384 15.7926C6.13393 15.7502 6.04358 15.688 5.96819 15.61L2.12426 11.7777C2.04617 11.7023 1.98407 11.6119 1.94165 11.512C1.89923 11.4121 1.87737 11.3047 1.87737 11.1961C1.87737 11.0876 1.89923 10.9801 1.94165 10.8802C1.98407 10.7803 2.04617 10.69 2.12426 10.6146L10.8473 1.89159H15.8543V6.88696Z" fill="black"/>
<path d="M12.9458 6.54389C13.2908 6.54389 13.6281 6.44157 13.915 6.24987C14.2019 6.05817 14.4255 5.7857 14.5576 5.46692C14.6896 5.14813 14.7242 4.79735 14.6568 4.45893C14.5895 4.12051 14.4234 3.80966 14.1794 3.56567C13.9354 3.32168 13.6245 3.15553 13.2861 3.08821C12.9477 3.02089 12.5969 3.05544 12.2781 3.18749C11.9594 3.31953 11.6869 3.54314 11.4952 3.83004C11.3035 4.11694 11.2012 4.45424 11.2012 4.79929C11.2012 5.26198 11.385 5.70573 11.7122 6.03291C12.0393 6.36008 12.4831 6.54389 12.9458 6.54389ZM12.9458 4.21775C13.0608 4.21775 13.1732 4.25186 13.2689 4.31576C13.3645 4.37966 13.439 4.47048 13.483 4.57674C13.5271 4.68301 13.5386 4.79993 13.5161 4.91274C13.4937 5.02555 13.4383 5.12916 13.357 5.21049C13.2756 5.29182 13.172 5.34721 13.0592 5.36965C12.9464 5.39209 12.8295 5.38057 12.7232 5.33655C12.617 5.29254 12.5261 5.218 12.4622 5.12237C12.3983 5.02674 12.3642 4.9143 12.3642 4.79929C12.3642 4.64506 12.4255 4.49714 12.5346 4.38808C12.6436 4.27902 12.7915 4.21775 12.9458 4.21775Z" fill="black"/>
</svg>
