<svg width="20" height="20" fill="none" xmlns="http://www.w3.org/2000/svg"><path d="M19.32 7.55l-1.89-.63.89-1.78A1 1 0 0018.13 4L16 1.87a1 1 0 00-1.15-.19l-1.78.89-.63-1.89A1 1 0 0011.5 0h-3a1 1 0 00-.95.68l-.63 1.89-1.78-.89A1 1 0 004 1.87L1.87 4a1 1 0 00-.19 1.15l.89 1.78-1.89.63A1 1 0 000 8.5v3a1 1 0 00.68.95l1.89.63-.89 1.78A1 1 0 001.87 16L4 18.13a1 1 0 001.15.19l1.78-.89.63 1.89a1 1 0 00.95.68h3a1 1 0 00.95-.68l.63-1.89 1.78.89a1 1 0 001.13-.19L18.13 16a1 1 0 00.19-1.15l-.89-1.78 1.89-.63a1 1 0 00.68-.94v-3a1 1 0 00-.68-.95zM18 10.78l-1.2.4A2 2 0 0015.64 14l.57 1.14-1.1 1.1-1.11-.6a2 2 0 00-2.79 1.16l-.4 1.2H9.22l-.4-1.2A2 2 0 006 15.64l-1.14.57-1.1-1.1.6-1.11a2 2 0 00-1.16-2.82l-1.2-.4V9.22l1.2-.4A2 2 0 004.36 6l-.57-1.11 1.1-1.1L6 4.36A2 2 0 008.82 3.2l.4-1.2h1.56l.4 1.2A2 2 0 0014 4.36l1.14-.57 1.1 1.1-.6 1.11a2 2 0 001.16 2.79l1.2.4v1.59zM10 6a4 4 0 100 8 4 4 0 000-8zm0 6a2 2 0 110-4 2 2 0 010 4z" fill="#000"/></svg>