<svg width="18" height="17" viewBox="0 0 18 17" fill="none" xmlns="http://www.w3.org/2000/svg">
<path d="M16.4639 6.60164L14.9257 6.08891L15.6501 4.64025C15.7235 4.48862 15.748 4.31793 15.7203 4.15175C15.6926 3.98557 15.6141 3.83208 15.4954 3.71245L13.7619 1.97894C13.6417 1.85856 13.4867 1.7789 13.3188 1.75117C13.1509 1.72343 12.9786 1.74901 12.826 1.82431L11.3773 2.54864L10.8646 1.01046C10.8104 0.85012 10.7077 0.710652 10.5705 0.611461C10.4334 0.512271 10.2688 0.458291 10.0996 0.457034H7.658C7.48738 0.456594 7.32094 0.509787 7.1822 0.609096C7.04346 0.708405 6.93944 0.848807 6.88484 1.01046L6.37211 2.54864L4.92345 1.82431C4.77182 1.75088 4.60114 1.72633 4.43495 1.75402C4.26877 1.78172 4.11528 1.86031 3.99566 1.97894L2.26215 3.71245C2.14176 3.83271 2.06211 3.98768 2.03437 4.15556C2.00663 4.32344 2.03221 4.4958 2.10751 4.64839L2.83184 6.09705L1.29366 6.60978C1.13332 6.66393 0.993855 6.76671 0.894664 6.90383C0.795474 7.04094 0.741494 7.20557 0.740237 7.3748V9.81636C0.739797 9.98698 0.79299 10.1534 0.892299 10.2922C0.991608 10.4309 1.13201 10.5349 1.29366 10.5895L2.83184 11.1023L2.10751 12.5509C2.03409 12.7025 2.00953 12.8732 2.03723 13.0394C2.06492 13.2056 2.14351 13.3591 2.26215 13.4787L3.99566 15.2122C4.11592 15.3326 4.27088 15.4123 4.43876 15.44C4.60665 15.4677 4.779 15.4422 4.93159 15.3669L6.38025 14.6425L6.89298 16.1807C6.94758 16.3424 7.0516 16.4828 7.19034 16.5821C7.32908 16.6814 7.49552 16.7346 7.66614 16.7341H10.1077C10.2783 16.7346 10.4448 16.6814 10.5835 16.5821C10.7222 16.4828 10.8263 16.3424 10.8809 16.1807L11.3936 14.6425L12.8423 15.3669C12.9929 15.4384 13.1619 15.462 13.3264 15.4343C13.4909 15.4067 13.6429 15.3291 13.7619 15.2122L15.4954 13.4787C15.6158 13.3585 15.6955 13.2035 15.7232 13.0356C15.7509 12.8677 15.7254 12.6954 15.6501 12.5428L14.9257 11.0941L16.4639 10.5814C16.6242 10.5272 16.7637 10.4245 16.8629 10.2873C16.9621 10.1502 17.0161 9.98559 17.0173 9.81636V7.3748C17.0178 7.20418 16.9646 7.03774 16.8653 6.899C16.766 6.76026 16.6256 6.65624 16.4639 6.60164ZM15.3896 9.23039L14.413 9.55593C14.1884 9.62878 13.9824 9.74961 13.8092 9.91004C13.6359 10.0705 13.4997 10.2667 13.4099 10.485C13.3201 10.7034 13.2788 10.9386 13.289 11.1745C13.2992 11.4104 13.3606 11.6412 13.4689 11.851L13.9328 12.7788L13.0376 13.674L12.1342 13.1857C11.9255 13.0817 11.6969 13.0238 11.4638 13.0159C11.2308 13.0079 10.9988 13.0501 10.7835 13.1397C10.5682 13.2292 10.3746 13.3639 10.2159 13.5347C10.0572 13.7056 9.93702 13.9085 9.86355 14.1298L9.53801 15.1064H8.24398L7.91844 14.1298C7.84559 13.9052 7.72476 13.6992 7.56433 13.526C7.40389 13.3527 7.2077 13.2165 6.98936 13.1267C6.77101 13.0369 6.53574 12.9956 6.29986 13.0058C6.06398 13.016 5.83315 13.0774 5.62337 13.1857L4.69557 13.6496L3.80033 12.7544L4.28864 11.851C4.39696 11.6412 4.45835 11.4104 4.46854 11.1745C4.47874 10.9386 4.4375 10.7034 4.34768 10.485C4.25786 10.2667 4.12162 10.0705 3.94841 9.91004C3.77519 9.74961 3.56915 9.62878 3.34457 9.55593L2.36795 9.23039V7.96078L3.34457 7.63523C3.56915 7.56239 3.77519 7.44156 3.94841 7.28112C4.12162 7.12069 4.25786 6.9245 4.34768 6.70615C4.4375 6.48781 4.47874 6.25254 4.46854 6.01666C4.45835 5.78078 4.39696 5.54995 4.28864 5.34016L3.82475 4.43678L4.71999 3.54154L5.62337 4.00544C5.83315 4.11376 6.06398 4.17515 6.29986 4.18534C6.53574 4.19553 6.77101 4.15429 6.98936 4.06448C7.2077 3.97466 7.40389 3.83842 7.56433 3.66521C7.72476 3.49199 7.84559 3.28595 7.91844 3.06137L8.24398 2.08474H9.51359L9.83913 3.06137C9.91198 3.28595 10.0328 3.49199 10.1932 3.66521C10.3537 3.83842 10.5499 3.97466 10.7682 4.06448C10.9866 4.15429 11.2218 4.19553 11.4577 4.18534C11.6936 4.17515 11.9244 4.11376 12.1342 4.00544L13.062 3.54154L13.9572 4.43678L13.4689 5.34016C13.3649 5.54887 13.307 5.77748 13.2991 6.01053C13.2911 6.24357 13.3333 6.47559 13.4229 6.6909C13.5124 6.90621 13.6471 7.09977 13.8179 7.25848C13.9888 7.41719 14.1917 7.53735 14.413 7.61082L15.3896 7.93636V9.23039ZM8.87879 5.34016C8.23492 5.34016 7.60552 5.53109 7.07017 5.8888C6.53482 6.24651 6.11756 6.75494 5.87117 7.34979C5.62477 7.94464 5.56031 8.59919 5.68592 9.23068C5.81153 9.86217 6.12158 10.4422 6.57686 10.8975C7.03213 11.3528 7.61219 11.6628 8.24368 11.7884C8.87517 11.9141 9.52973 11.8496 10.1246 11.6032C10.7194 11.3568 11.2279 10.9395 11.5856 10.4042C11.9433 9.86884 12.1342 9.23944 12.1342 8.59558C12.1342 7.73219 11.7912 6.90416 11.1807 6.29365C10.5702 5.68314 9.74218 5.34016 8.87879 5.34016ZM8.87879 10.2233C8.55685 10.2233 8.24215 10.1278 7.97448 9.94897C7.7068 9.77012 7.49817 9.5159 7.37498 9.21848C7.25178 8.92105 7.21955 8.59378 7.28235 8.27803C7.34516 7.96229 7.50018 7.67226 7.72782 7.44462C7.95546 7.21698 8.24549 7.06195 8.56123 6.99915C8.87698 6.93634 9.20426 6.96858 9.50168 7.09177C9.79911 7.21497 10.0533 7.4236 10.2322 7.69127C10.411 7.95895 10.5065 8.27365 10.5065 8.59558C10.5065 9.02728 10.335 9.44129 10.0297 9.74655C9.72449 10.0518 9.31048 10.2233 8.87879 10.2233Z" fill="black"/>
</svg>
