<svg width="36" height="36" fill="none" xmlns="http://www.w3.org/2000/svg"><path d="M25.401 22.098c-3.521 0-6.386 2.634-6.386 5.87 0 3.238 2.865 5.872 6.386 5.872s6.386-2.634 6.386-5.872c0-3.236-2.865-5.87-6.386-5.87zm3.896 6.566h-3.14v2.886h-1.512v-2.886h-3.14v-1.391h3.14v-2.886h1.512v2.886h3.14v1.391zm-5.982-7.7a8.26 8.26 0 00-1.485.528c-2.565 1.2-4.327 3.653-4.327 6.476 0 1.021.23 1.992.645 2.874.231.492.521.959.865 1.392H4.23c-1.898 0-3.443-1.42-3.443-3.167v-.953c0-6.391 5.655-11.59 12.606-11.59 3.871 0 7.54 1.65 9.922 4.44zM6.019 8.62c0-3.739 3.308-6.78 7.374-6.78 4.065 0 7.373 3.041 7.373 6.78 0 3.738-3.308 6.78-7.373 6.78-4.066 0-7.374-3.042-7.374-6.78z" fill="#37AC4E"/></svg>