<svg width="37" height="36" fill="none" xmlns="http://www.w3.org/2000/svg"><g fill="#37AC4E" clip-path="url(#clip0_8290_368)"><path fill-rule="evenodd" clip-rule="evenodd" d="M27.45 13.49l4.666-4.666c.013-.012.068-.16-.043-.5a3.389 3.389 0 00-.841-1.263c-.854-.86-1.653-.996-1.764-.885l-4.666 4.665a5.066 5.066 0 012.649 2.649zm-10.828 5.525l-1.955 1.962a4.825 4.825 0 011.584 1.064c.46.45.822.989 1.064 1.584l9.072-9.07c.11-.112-.025-.917-.88-1.77-.853-.854-1.658-.99-1.769-.88l-7.097 7.098c-.006.006-.012.012-.019.012z"/><path d="M3.405 23.68c2.414 1.727 6.522 2.996 11.169 3.435a1.856 1.856 0 011.572 1.2 2.51 2.51 0 002.382 1.35 2.51 2.51 0 002.382-1.35 1.857 1.857 0 011.572-1.2c4.647-.44 8.75-1.708 11.162-3.434-1.745-2.011-5.63-3.595-10.407-4.226l-6.108 6.107a1.387 1.387 0 01-1.008.384 3.84 3.84 0 01-2.512-1.263c-1.25-1.256-1.628-2.766-.879-3.52l1.794-1.795c-5.098.57-9.275 2.178-11.119 4.313zm22.548.416a.619.619 0 110 1.237.619.619 0 010-1.237zm-3.094-1.238a.618.618 0 110 1.237.618.618 0 010-1.237zm-1.856 1.856a.62.62 0 110 1.239.62.62 0 010-1.239zM9.865 23.477a.618.618 0 110 1.236.618.618 0 010-1.236z"/><g fill-rule="evenodd" clip-rule="evenodd"><path d="M24.332 18.36c4.703.754 8.422 2.394 10.266 4.529a3.584 3.584 0 001.256-2.506c0-2.24-3.008-4.4-7.877-5.668l-3.645 3.644zm-10.587 3.65a.265.265 0 00-.142.025c-.105.111.03.916.885 1.77.854.853 1.658.996 1.77.884.11-.111-.031-.916-.885-1.77a3.438 3.438 0 00-1.263-.84 1.284 1.284 0 00-.365-.069z"/><path d="M34.913 24.269c-2.543 2.091-7.035 3.582-12.32 4.084a.63.63 0 00-.532.408 3.694 3.694 0 01-3.533 2.14 3.695 3.695 0 01-3.533-2.14.629.629 0 00-.532-.408c-5.284-.502-9.777-1.993-12.32-4.084a8.277 8.277 0 01-.94-.916v5.693c0 3.687 7.932 6.806 17.325 6.806 9.393 0 17.326-3.119 17.326-6.806v-5.693c-.29.33-.604.636-.94.916zM15.893 18l1.998-1.999a3.637 3.637 0 01-2.797-1.856.603.603 0 00-.563-.378c-7.722.73-13.328 3.515-13.328 6.615a3.56 3.56 0 001.256 2.5C4.705 20.27 9.736 18.427 15.892 18zM14.045 3.89a1.635 1.635 0 010-2.284.62.62 0 00-.936-.81 2.859 2.859 0 000 3.904c.62.635.62 1.648 0 2.283a2.859 2.859 0 000 3.905.618.618 0 10.936-.81 1.635 1.635 0 010-2.284 2.858 2.858 0 000-3.904zm2.475 0a.62.62 0 10-.936.81c.62.635.62 1.648 0 2.283a2.859 2.859 0 000 3.905.617.617 0 001.021-.128.62.62 0 00-.085-.683 1.635 1.635 0 010-2.283 2.859 2.859 0 000-3.904z"/></g></g><defs><clipPath id="clip0_8290_368"><path fill="#fff" transform="translate(.894 .583)" d="M0 0h35.27v35.27H0z"/></clipPath></defs></svg>