<svg width="38" height="38" viewBox="0 0 38 38" fill="none" xmlns="http://www.w3.org/2000/svg">
<rect x="1.33366" y="1.33341" width="36" height="36" rx="18" fill="#FEFEFE"/>
<rect x="1.33366" y="1.33341" width="36" height="36" rx="18" stroke="#DDDCDB" stroke-width="1.33333"/>
<g clip-path="url(#clip0_15871_649)">
<path d="M24.0007 14.0002H23.662L22.206 12.1122C22.0183 11.8707 21.7782 11.6751 21.5038 11.5402C21.2293 11.4053 20.9278 11.3346 20.622 11.3335H18.046C17.7402 11.3346 17.4386 11.4053 17.1642 11.5402C16.8898 11.6751 16.6496 11.8707 16.462 12.1122L15.006 14.0002H14.6673C13.7836 14.0012 12.9364 14.3528 12.3115 14.9776C11.6866 15.6025 11.335 16.4498 11.334 17.3335V24.0002C11.335 24.8839 11.6866 25.7311 12.3115 26.356C12.9364 26.9809 13.7836 27.3324 14.6673 27.3335H24.0007C24.8844 27.3324 25.7316 26.9809 26.3565 26.356C26.9814 25.7311 27.3329 24.8839 27.334 24.0002V17.3335C27.3329 16.4498 26.9814 15.6025 26.3565 14.9776C25.7316 14.3528 24.8844 14.0012 24.0007 14.0002ZM17.518 12.9268C17.5804 12.8462 17.6604 12.7809 17.7519 12.7358C17.8434 12.6908 17.944 12.6672 18.046 12.6668H20.622C20.724 12.6673 20.8245 12.6909 20.916 12.736C21.0074 12.781 21.0875 12.8463 21.15 12.9268L21.978 14.0002H16.69L17.518 12.9268ZM26.0007 24.0002C26.0007 24.5306 25.7899 25.0393 25.4149 25.4144C25.0398 25.7895 24.5311 26.0002 24.0007 26.0002H14.6673C14.1369 26.0002 13.6282 25.7895 13.2531 25.4144C12.878 25.0393 12.6673 24.5306 12.6673 24.0002V17.3335C12.6673 16.8031 12.878 16.2944 13.2531 15.9193C13.6282 15.5442 14.1369 15.3335 14.6673 15.3335H24.0007C24.5311 15.3335 25.0398 15.5442 25.4149 15.9193C25.7899 16.2944 26.0007 16.8031 26.0007 17.3335V24.0002Z" fill="#131313"/>
<path d="M19.334 16.6668C18.5429 16.6668 17.7695 16.9014 17.1117 17.341C16.4539 17.7805 15.9412 18.4052 15.6385 19.1361C15.3357 19.867 15.2565 20.6713 15.4108 21.4472C15.5652 22.2231 15.9461 22.9358 16.5056 23.4953C17.065 24.0547 17.7777 24.4356 18.5536 24.59C19.3295 24.7443 20.1338 24.6651 20.8647 24.3623C21.5956 24.0596 22.2203 23.5469 22.6599 22.8891C23.0994 22.2313 23.334 21.458 23.334 20.6668C23.3329 19.6063 22.9112 18.5895 22.1612 17.8396C21.4113 17.0897 20.3945 16.6679 19.334 16.6668ZM19.334 23.3335C18.8066 23.3335 18.291 23.1771 17.8525 22.8841C17.4139 22.5911 17.0721 22.1746 16.8703 21.6873C16.6685 21.2 16.6157 20.6639 16.7186 20.1466C16.8215 19.6293 17.0754 19.1542 17.4484 18.7812C17.8213 18.4083 18.2965 18.1543 18.8137 18.0514C19.331 17.9485 19.8672 18.0013 20.3545 18.2032C20.8417 18.405 21.2582 18.7468 21.5512 19.1853C21.8443 19.6238 22.0007 20.1394 22.0007 20.6668C22.0007 21.3741 21.7197 22.0524 21.2196 22.5524C20.7195 23.0525 20.0412 23.3335 19.334 23.3335Z" fill="#131313"/>
</g>
<defs>
<clipPath id="clip0_15871_649">
<rect width="16" height="16" fill="white" transform="translate(11.334 11.3335)"/>
</clipPath>
</defs>
</svg>
