<svg width="25" height="24" viewBox="0 0 25 24" fill="none" xmlns="http://www.w3.org/2000/svg">
<path d="M12.4997 0.333252C6.07134 0.333252 0.833008 5.57158 0.833008 11.9999C0.833008 18.4283 6.07134 23.6666 12.4997 23.6666C18.928 23.6666 24.1663 18.4283 24.1663 11.9999C24.1663 5.57158 18.928 0.333252 12.4997 0.333252ZM18.0763 9.31658L11.4613 15.9316C11.298 16.0949 11.0763 16.1883 10.843 16.1883C10.6097 16.1883 10.388 16.0949 10.2247 15.9316L6.92301 12.6299C6.58467 12.2916 6.58467 11.7316 6.92301 11.3933C7.26134 11.0549 7.82134 11.0549 8.15967 11.3933L10.843 14.0766L16.8397 8.07992C17.178 7.74159 17.738 7.74159 18.0763 8.07992C18.4147 8.41825 18.4147 8.96659 18.0763 9.31658Z" fill="#28A745"/>
</svg>
