<svg width="24" height="24" fill="none" xmlns="http://www.w3.org/2000/svg"><path d="M10.703 18.297l9.594-9.594A.961.961 0 0020.594 8a.961.961 0 00-.297-.703l-1.594-1.594A.961.961 0 0018 5.406a.961.961 0 00-.703.297L10 13 6.703 9.703A.961.961 0 006 9.406a.961.961 0 00-.703.297l-1.594 1.594a.961.961 0 00-.297.703c0 .27.1.505.297.703l5.594 5.594a.961.961 0 00.703.297c.27 0 .505-.1.703-.297zM24 4.5v15c0 1.24-.44 2.3-1.32 3.18-.88.88-1.94 1.32-3.18 1.32h-15c-1.24 0-2.3-.44-3.18-1.32C.44 21.8 0 20.74 0 19.5v-15c0-1.24.44-2.3 1.32-3.18C2.2.44 3.26 0 4.5 0h15c1.24 0 2.3.44 3.18 1.32C23.56 2.2 24 3.26 24 4.5z" fill="#37AA4C"/></svg>