<svg width="36" height="36" viewBox="0 0 36 36" fill="none" xmlns="http://www.w3.org/2000/svg">
<rect width="36" height="36" rx="18" fill="#FEFEFE"/>
<g clip-path="url(#clip0_15871_718)">
<path d="M25.8045 10.1952C25.6795 10.0702 25.51 10 25.3332 10C25.1564 10 24.9869 10.0702 24.8619 10.1952L17.9999 17.0572L11.1379 10.1952C11.0128 10.0702 10.8433 10 10.6665 10C10.4897 10 10.3202 10.0702 10.1952 10.1952C10.0702 10.3202 10 10.4897 10 10.6665C10 10.8433 10.0702 11.0128 10.1952 11.1379L17.0572 17.9999L10.1952 24.8619C10.0702 24.9869 10 25.1564 10 25.3332C10 25.51 10.0702 25.6795 10.1952 25.8045C10.3202 25.9295 10.4897 25.9997 10.6665 25.9997C10.8433 25.9997 11.0128 25.9295 11.1379 25.8045L17.9999 18.9425L24.8619 25.8045C24.9869 25.9295 25.1564 25.9997 25.3332 25.9997C25.51 25.9997 25.6795 25.9295 25.8045 25.8045C25.9295 25.6795 25.9997 25.51 25.9997 25.3332C25.9997 25.1564 25.9295 24.9869 25.8045 24.8619L18.9425 17.9999L25.8045 11.1379C25.9295 11.0128 25.9997 10.8433 25.9997 10.6665C25.9997 10.4897 25.9295 10.3202 25.8045 10.1952Z" fill="#131313"/>
</g>
<defs>
<clipPath id="clip0_15871_718">
<rect width="16" height="16" fill="white" transform="translate(10 10)"/>
</clipPath>
</defs>
</svg>
