<svg width="36" height="37" viewBox="0 0 36 37" fill="none" xmlns="http://www.w3.org/2000/svg">
<rect y="0.530396" width="36" height="36" rx="18" fill="#DC3545"/>
<g clip-path="url(#clip0_15871_622)">
<path d="M23.9997 13.1971H21.933C21.7783 12.4447 21.3689 11.7686 20.7738 11.2829C20.1788 10.7971 19.4345 10.5314 18.6663 10.5304H17.333C16.5649 10.5314 15.8206 10.7971 15.2255 11.2829C14.6305 11.7686 14.2211 12.4447 14.0663 13.1971H11.9997C11.8229 13.1971 11.6533 13.2673 11.5283 13.3923C11.4032 13.5173 11.333 13.6869 11.333 13.8637C11.333 14.0405 11.4032 14.2101 11.5283 14.3351C11.6533 14.4602 11.8229 14.5304 11.9997 14.5304H12.6663V23.1971C12.6674 24.0808 13.0189 24.928 13.6438 25.5529C14.2687 26.1778 15.1159 26.5293 15.9997 26.5304H19.9997C20.8834 26.5293 21.7306 26.1778 22.3555 25.5529C22.9804 24.928 23.3319 24.0808 23.333 23.1971V14.5304H23.9997C24.1765 14.5304 24.3461 14.4602 24.4711 14.3351C24.5961 14.2101 24.6663 14.0405 24.6663 13.8637C24.6663 13.6869 24.5961 13.5173 24.4711 13.3923C24.3461 13.2673 24.1765 13.1971 23.9997 13.1971ZM17.333 11.8637H18.6663C19.0799 11.8642 19.4831 11.9926 19.8207 12.2314C20.1584 12.4701 20.414 12.8074 20.5523 13.1971H15.447C15.5854 12.8074 15.8409 12.4701 16.1786 12.2314C16.5163 11.9926 16.9195 11.8642 17.333 11.8637ZM21.9997 23.1971C21.9997 23.7275 21.789 24.2362 21.4139 24.6113C21.0388 24.9863 20.5301 25.1971 19.9997 25.1971H15.9997C15.4692 25.1971 14.9605 24.9863 14.5855 24.6113C14.2104 24.2362 13.9997 23.7275 13.9997 23.1971V14.5304H21.9997V23.1971Z" fill="white"/>
<path d="M16.6663 22.5304C16.8432 22.5304 17.0127 22.4602 17.1377 22.3351C17.2628 22.2101 17.333 22.0405 17.333 21.8637V17.8637C17.333 17.6869 17.2628 17.5173 17.1377 17.3923C17.0127 17.2673 16.8432 17.1971 16.6663 17.1971C16.4895 17.1971 16.32 17.2673 16.1949 17.3923C16.0699 17.5173 15.9997 17.6869 15.9997 17.8637V21.8637C15.9997 22.0405 16.0699 22.2101 16.1949 22.3351C16.32 22.4602 16.4895 22.5304 16.6663 22.5304Z" fill="white"/>
<path d="M19.333 22.5304C19.5098 22.5304 19.6794 22.4602 19.8044 22.3351C19.9294 22.2101 19.9997 22.0405 19.9997 21.8637V17.8637C19.9997 17.6869 19.9294 17.5173 19.8044 17.3923C19.6794 17.2673 19.5098 17.1971 19.333 17.1971C19.1562 17.1971 18.9866 17.2673 18.8616 17.3923C18.7366 17.5173 18.6663 17.6869 18.6663 17.8637V21.8637C18.6663 22.0405 18.7366 22.2101 18.8616 22.3351C18.9866 22.4602 19.1562 22.5304 19.333 22.5304Z" fill="white"/>
</g>
<defs>
<clipPath id="clip0_15871_622">
<rect width="16" height="16" fill="white" transform="translate(10 10.5304)"/>
</clipPath>
</defs>
</svg>
