<svg width="36" height="33" viewBox="0 0 36 33" fill="none" xmlns="http://www.w3.org/2000/svg">
<rect x="0.275391" y="0.000976562" width="35.7113" height="32.3893" rx="10.7964" fill="white"/>
<mask id="mask0_9864_7331" style="mask-type:luminance" maskUnits="userSpaceOnUse" x="0" y="0" width="36" height="33">
<rect x="0.275391" y="0.000976562" width="35.7113" height="32.3893" fill="white"/>
</mask>
<g mask="url(#mask0_9864_7331)">
<rect x="0.275391" y="0.000976562" width="35.7113" height="32.3893" fill="#F6B800"/>
<path d="M12.1346 19.0986V12.4858H13.4099V15.1026L15.8 12.4858H17.3682L14.9403 15.1026L17.4438 19.0986H15.885L14.024 16.0945L13.4099 16.7558V19.0986H12.1346ZM18.3987 19.0986V12.4858H20.8643C21.3997 12.4858 21.8405 12.5771 22.1869 12.7598C22.5333 12.9424 22.7915 13.188 22.9615 13.4966C23.1316 13.7989 23.2166 14.1359 23.2166 14.5075C23.2166 14.8601 23.1316 15.1908 22.9615 15.4994C22.7978 15.8017 22.5427 16.0473 22.1964 16.2362C21.85 16.4189 21.4028 16.5102 20.8549 16.5102H19.674V19.0986H18.3987ZM21.8279 19.0986L20.4676 16.189H21.8468L23.2827 19.0986H21.8279ZM19.674 15.5844H20.7888C21.1729 15.5844 21.4563 15.4899 21.639 15.301C21.8216 15.1121 21.9129 14.8633 21.9129 14.5547C21.9129 14.2461 21.8216 14.0036 21.639 13.8273C21.4626 13.6446 21.1792 13.5533 20.7888 13.5533H19.674V15.5844Z" fill="white"/>
</g>
</svg>
