<svg width="29" height="29" viewBox="0 0 29 29" fill="none" xmlns="http://www.w3.org/2000/svg">
<rect x="0.404297" y="0.27832" width="28.3406" height="28.3406" rx="7.45806" fill="#37966F" fill-opacity="0.1"/>
<path d="M18.9099 6.05908H10.2398C9.94321 6.05942 9.65885 6.17739 9.44913 6.38711C9.2394 6.59684 9.12143 6.8812 9.12109 7.1778V21.7211C9.12143 22.0177 9.2394 22.3021 9.44913 22.5118C9.65885 22.7215 9.94321 22.8395 10.2398 22.8398H18.9099C19.2065 22.8395 19.4908 22.7215 19.7005 22.5118C19.9103 22.3021 20.0282 22.0177 20.0286 21.7211V7.1778C20.0282 6.8812 19.9103 6.59684 19.7005 6.38711C19.4908 6.17739 19.2065 6.05942 18.9099 6.05908ZM18.9099 7.1778V8.29652H10.2398V7.1778H18.9099ZM18.9099 9.41523L18.9102 17.2462H10.2398V9.41523H18.9099ZM18.9099 21.7211H10.2398V18.365H18.9104V21.7211H18.9099Z" fill="#37AA4C"/>
<path d="M14.0176 19.4839H15.1319V20.5983H14.0176V19.4839Z" fill="#37AA4C"/>
</svg>
