<svg width="53" height="53" viewBox="0 0 53 53" fill="none" xmlns="http://www.w3.org/2000/svg">
<path d="M52.5286 26.6738C52.5286 41.0112 40.9058 52.6339 26.5685 52.6339C12.2311 52.6339 0.608398 41.0112 0.608398 26.6738C0.608398 12.3365 12.2311 0.713745 26.5685 0.713745C40.9058 0.713745 52.5286 12.3365 52.5286 26.6738ZM3.72547 26.6738C3.72547 39.2897 13.9526 49.5168 26.5685 49.5168C39.1843 49.5168 49.4115 39.2897 49.4115 26.6738C49.4115 14.058 39.1843 3.83081 26.5685 3.83081C13.9526 3.83081 3.72547 14.058 3.72547 26.6738Z" fill="#E1E1E1"/>
<path d="M6.0902 39.9432C5.36784 40.4112 5.15796 41.3795 5.66853 42.0725C8.01224 45.2535 11.0557 47.8635 14.5719 49.6957C18.5496 51.7685 22.9965 52.7753 27.4791 52.6179C31.9617 52.4606 36.3271 51.1445 40.1497 48.7979C43.9723 46.4514 47.1217 43.1544 49.2909 39.2284C51.4601 35.3025 52.575 30.8814 52.5271 26.3963C52.4791 21.9112 51.2699 17.515 49.0173 13.6363C46.7647 9.7576 43.5455 6.52872 39.6736 4.26442C36.251 2.26286 32.4216 1.07538 28.4811 0.784292C27.6227 0.720879 26.9147 1.4139 26.9029 2.27457C26.8911 3.13524 27.5802 3.837 28.438 3.90744C31.8396 4.18676 35.1424 5.22553 38.1001 6.95516C41.507 8.94758 44.3397 11.7888 46.3218 15.2017C48.304 18.6147 49.368 22.483 49.4102 26.4296C49.4524 30.3762 48.4713 34.2664 46.5626 37.721C44.6539 41.1756 41.8826 44.0766 38.519 46.1415C35.1554 48.2063 31.3142 49.3643 27.3698 49.5028C23.4254 49.6412 19.5124 48.7553 16.0123 46.9314C12.9739 45.3481 10.3366 43.1048 8.28964 40.3737C7.77341 39.685 6.81256 39.4751 6.0902 39.9432Z" fill="#37AC4E"/>
</svg>
