<svg width="23" height="24" viewBox="0 0 23 24" fill="none" xmlns="http://www.w3.org/2000/svg">
<path d="M12.5254 17.6736C12.5254 17.9277 12.45 18.1761 12.3089 18.3873C12.1677 18.5986 11.9671 18.7632 11.7324 18.8605C11.4976 18.9577 11.2393 18.9831 10.9902 18.9336C10.741 18.884 10.5121 18.7617 10.3324 18.582C10.1528 18.4023 10.0304 18.1735 9.98083 17.9243C9.93127 17.6751 9.95671 17.4168 10.0539 17.182C10.1512 16.9473 10.3158 16.7467 10.5271 16.6055C10.7383 16.4644 10.9867 16.389 11.2408 16.389C11.5815 16.389 11.9082 16.5244 12.1491 16.7653C12.39 17.0062 12.5254 17.3329 12.5254 17.6736ZM11.2408 6.1121C8.87922 6.1121 6.95871 7.84098 6.95871 9.96595V10.3942C6.95871 10.6213 7.04894 10.8391 7.20955 10.9997C7.37016 11.1603 7.58799 11.2506 7.81512 11.2506C8.04226 11.2506 8.26009 11.1603 8.4207 10.9997C8.58131 10.8391 8.67154 10.6213 8.67154 10.3942V9.96595C8.67154 8.78838 9.82448 7.82492 11.2408 7.82492C12.6571 7.82492 13.81 8.78838 13.81 9.96595C13.81 11.1435 12.6571 12.107 11.2408 12.107C11.0136 12.107 10.7958 12.1972 10.6352 12.3578C10.4746 12.5184 10.3844 12.7363 10.3844 12.9634V13.8198C10.3844 14.0469 10.4746 14.2648 10.6352 14.4254C10.7958 14.586 11.0136 14.6762 11.2408 14.6762C11.4679 14.6762 11.6857 14.586 11.8463 14.4254C12.007 14.2648 12.0972 14.0469 12.0972 13.8198V13.7427C14.0498 13.3841 15.5228 11.8265 15.5228 9.96595C15.5228 7.84098 13.6023 6.1121 11.2408 6.1121ZM22.3741 12.107C22.3741 14.3089 21.7211 16.4615 20.4978 18.2923C19.2745 20.1232 17.5357 21.5502 15.5013 22.3928C13.467 23.2355 11.2284 23.456 9.06876 23.0264C6.9091 22.5968 4.92533 21.5365 3.36831 19.9794C1.81128 18.4224 0.750933 16.4386 0.321351 14.279C-0.108232 12.1193 0.112246 9.88078 0.954902 7.84643C1.79756 5.81208 3.22455 4.07329 5.05542 2.84994C6.88628 1.62659 9.0388 0.973633 11.2408 0.973633C14.1926 0.97675 17.0226 2.15072 19.1098 4.23796C21.197 6.32519 22.371 9.15518 22.3741 12.107ZM20.6613 12.107C20.6613 10.2438 20.1088 8.42241 19.0736 6.87321C18.0385 5.32402 16.5672 4.11657 14.8458 3.40355C13.1245 2.69053 11.2303 2.50397 9.40292 2.86747C7.57551 3.23096 5.89694 4.12818 4.57945 5.44566C3.26197 6.76314 2.36475 8.44172 2.00126 10.2691C1.63777 12.0965 1.82433 13.9907 2.53734 15.7121C3.25036 17.4334 4.45781 18.9047 6.00701 19.9398C7.5562 20.975 9.37757 21.5275 11.2408 21.5275C13.7384 21.5247 16.1329 20.5312 17.899 18.7652C19.665 16.9991 20.6585 14.6046 20.6613 12.107Z" fill="black"/>
</svg>
