<svg width="28" height="28" viewBox="0 0 28 28" fill="none" xmlns="http://www.w3.org/2000/svg">
<path d="M14 0.740723C6.65334 0.740723 0.666672 6.72739 0.666672 14.0741C0.666672 21.4207 6.65334 27.4074 14 27.4074C21.3467 27.4074 27.3333 21.4207 27.3333 14.0741C27.3333 6.72739 21.3467 0.740723 14 0.740723ZM20.3733 11.0074L12.8133 18.5674C12.6267 18.7541 12.3733 18.8607 12.1067 18.8607C11.84 18.8607 11.5867 18.7541 11.4 18.5674L7.62667 14.7941C7.24001 14.4074 7.24001 13.7674 7.62667 13.3807C8.01334 12.9941 8.65334 12.9941 9.04 13.3807L12.1067 16.4474L18.96 9.59406C19.3467 9.20739 19.9867 9.20739 20.3733 9.59406C20.76 9.98072 20.76 10.6074 20.3733 11.0074Z" fill="#37AA4C"/>
</svg>
