<svg width="28" height="28" viewBox="0 0 28 28" fill="none" xmlns="http://www.w3.org/2000/svg">
<path d="M14 0.717285C6.65335 0.717285 0.666687 6.70395 0.666687 14.0506C0.666687 21.3973 6.65335 27.384 14 27.384C21.3467 27.384 27.3334 21.3973 27.3334 14.0506C27.3334 6.70395 21.3467 0.717285 14 0.717285ZM20.3734 10.984L12.8134 18.544C12.6267 18.7306 12.3734 18.8373 12.1067 18.8373C11.84 18.8373 11.5867 18.7306 11.4 18.544L7.62669 14.7706C7.24002 14.384 7.24002 13.744 7.62669 13.3573C8.01335 12.9706 8.65335 12.9706 9.04002 13.3573L12.1067 16.424L18.96 9.57062C19.3467 9.18395 19.9867 9.18395 20.3734 9.57062C20.76 9.95729 20.76 10.584 20.3734 10.984Z" fill="white"/>
</svg>
