<svg width="19" height="18" viewBox="0 0 19 18" fill="none" xmlns="http://www.w3.org/2000/svg">
<path d="M14.8424 17.6637C13.5196 17.6637 12.2702 16.9778 11.568 15.851C11.1924 15.2712 10.9801 14.5771 10.9637 13.8667C10.9392 12.6745 11.4455 11.564 12.3519 10.8128C13.0296 10.2493 13.8789 9.93088 14.7526 9.90638C15.8141 9.89822 16.7695 10.2657 17.5207 10.9842C18.272 11.7028 18.6966 12.6664 18.7129 13.7034C18.7292 14.4138 18.5496 15.1079 18.1903 15.7203C17.9943 16.0632 17.7412 16.3817 17.4391 16.6512C16.7695 17.2799 15.8713 17.6474 14.9159 17.6637C14.8996 17.6637 14.8751 17.6637 14.8424 17.6637ZM14.8424 11.1312C14.8261 11.1312 14.8016 11.1312 14.7852 11.1312C14.181 11.1476 13.6094 11.3599 13.1358 11.7518C12.5152 12.2663 12.1722 13.0256 12.1886 13.8422C12.1967 14.324 12.3437 14.7976 12.5969 15.1977C13.095 15.9979 13.9605 16.4879 14.8914 16.4389C15.5365 16.4225 16.1489 16.1776 16.6143 15.7448C16.8267 15.557 16.9981 15.3447 17.1288 15.116C17.3737 14.6914 17.4962 14.2178 17.488 13.7361C17.4717 13.0256 17.1859 12.3642 16.6715 11.8743C16.1816 11.3925 15.5283 11.1312 14.8424 11.1312Z" fill="black"/>
<path d="M11.8547 15.6723L11.8548 15.6722L11.8516 15.6672C11.5108 15.1413 11.3165 14.5085 11.3015 13.8593C11.2793 12.7692 11.7414 11.7576 12.5675 11.0729L12.5679 11.0726C13.1864 10.5584 13.9616 10.2674 14.7586 10.2442C15.7345 10.2375 16.6029 10.5739 17.2872 11.2284C17.9738 11.8852 18.3602 12.763 18.375 13.7087L18.375 13.7087L18.3751 13.7112C18.39 14.359 18.2263 14.9911 17.8989 15.5493L17.8988 15.5493L17.8969 15.5527C17.7182 15.8654 17.4878 16.155 17.2142 16.399L17.2141 16.3989L17.2078 16.4049C16.6008 16.9748 15.7844 17.3102 14.9129 17.3258H14.9129H14.9128H14.9127H14.9126H14.9125H14.9124H14.9123H14.9122H14.9121H14.912H14.9119H14.9118H14.9117H14.9116H14.9115H14.9114H14.9113H14.9112H14.9111H14.911H14.9109H14.9108H14.9107H14.9106H14.9104H14.9103H14.9102H14.9101H14.91H14.9099H14.9098H14.9097H14.9096H14.9095H14.9094H14.9093H14.9092H14.9091H14.909H14.9088H14.9087H14.9086H14.9085H14.9084H14.9083H14.9082H14.9081H14.908H14.9079H14.9077H14.9076H14.9075H14.9074H14.9073H14.9072H14.9071H14.907H14.9069H14.9067H14.9066H14.9065H14.9064H14.9063H14.9062H14.9061H14.906H14.9058H14.9057H14.9056H14.9055H14.9054H14.9053H14.9052H14.905H14.9049H14.9048H14.9047H14.9046H14.9045H14.9043H14.9042H14.9041H14.904H14.9039H14.9038H14.9036H14.9035H14.9034H14.9033H14.9032H14.9031H14.9029H14.9028H14.9027H14.9026H14.9025H14.9023H14.9022H14.9021H14.902H14.9019H14.9018H14.9016H14.9015H14.9014H14.9013H14.9011H14.901H14.9009H14.9008H14.9007H14.9005H14.9004H14.9003H14.9002H14.9001H14.8999H14.8998H14.8997H14.8996H14.8994H14.8993H14.8992H14.8991H14.8989H14.8988H14.8987H14.8986H14.8984H14.8983H14.8982H14.8981H14.8979H14.8978H14.8977H14.8976H14.8974H14.8973H14.8972H14.897H14.8969H14.8968H14.8967H14.8965H14.8964H14.8963H14.8962H14.896H14.8959H14.8958H14.8956H14.8955H14.8954H14.8952H14.8951H14.895H14.8949H14.8947H14.8946H14.8945H14.8943H14.8942H14.8941H14.8939H14.8938H14.8937H14.8935H14.8934H14.8933H14.8931H14.893H14.8929H14.8927H14.8926H14.8925H14.8923H14.8922H14.8921H14.8919H14.8918H14.8917H14.8915H14.8914H14.8913H14.8911H14.891H14.8909H14.8907H14.8906H14.8905H14.8903H14.8902H14.89H14.8899H14.8898H14.8896H14.8895H14.8894H14.8892H14.8891H14.8889H14.8888H14.8887H14.8885H14.8884H14.8882H14.8881H14.888H14.8878H14.8877H14.8875H14.8874H14.8873H14.8871H14.887H14.8868H14.8867H14.8866H14.8864H14.8863H14.8861H14.886H14.8858H14.8857H14.8856H14.8854H14.8853H14.8851H14.885H14.8848H14.8847H14.8846H14.8844H14.8843H14.8841H14.884H14.8838H14.8837H14.8835H14.8834H14.8832H14.8831H14.8829H14.8828H14.8827H14.8825H14.8824H14.8822H14.8821H14.8819H14.8818H14.8816H14.8815H14.8813H14.8812H14.881H14.8809H14.8807H14.8806H14.8804H14.8803H14.8801H14.88H14.8798H14.8797H14.8795H14.8794H14.8792H14.8791H14.8789H14.8788H14.8786H14.8785H14.8783H14.8782H14.878H14.8779H14.8777H14.8776H14.8774H14.8772H14.8771H14.8769H14.8768H14.8766H14.8765H14.8763H14.8762H14.876H14.8759H14.8757H14.8755H14.8754H14.8752H14.8751H14.8749H14.8748H14.8746H14.8745H14.8743H14.8741H14.874H14.8738H14.8737H14.8735H14.8733H14.8732H14.873H14.8729H14.8727H14.8726H14.8724H14.8722H14.8721H14.8719H14.8718H14.8716H14.8714H14.8713H14.8711H14.871H14.8708H14.8706H14.8705H14.8703H14.8701H14.87H14.8698H14.8697H14.8695H14.8693H14.8692H14.869H14.8688H14.8687H14.8685H14.8684H14.8682H14.868H14.8679H14.8677H14.8675H14.8674H14.8672H14.867H14.8669H14.8667H14.8665H14.8664H14.8662H14.866H14.8659H14.8657H14.8655H14.8654H14.8652H14.865H14.8649H14.8647H14.8645H14.8644H14.8642H14.864H14.8639H14.8637H14.8635H14.8633H14.8632H14.863H14.8628H14.8627H14.8625H14.8623H14.8622H14.862H14.8618H14.8616H14.8615H14.8613H14.8611H14.861H14.8608H14.8606H14.8604H14.8603H14.8601H14.8599H14.8597H14.8596H14.8594H14.8592H14.859H14.8589H14.8587H14.8585H14.8583H14.8582H14.858H14.8578H14.8576H14.8575H14.8573H14.8571H14.8569H14.8568H14.8566H14.8564H14.8562H14.8561H14.8559H14.8557H14.8555H14.8553H14.8552H14.855H14.8548H14.8546H14.8544H14.8543H14.8541H14.8539H14.8537H14.8535H14.8534H14.8532H14.853H14.8528H14.8526H14.8525H14.8523H14.8521H14.8519H14.8517H14.8516H14.8514H14.8512H14.851H14.8508H14.8506H14.8505H14.8503H14.8501H14.8499H14.8497H14.8495H14.8494H14.8492H14.849H14.8488H14.8486H14.8484H14.8482H14.8481H14.8479H14.8477H14.8475H14.8473H14.8471H14.8469H14.8468H14.8466H14.8464H14.8462H14.846H14.8458H14.8456H14.8454H14.8453H14.8451H14.8449H14.8447H14.8445H14.8443H14.8441H14.8439H14.8437H14.8435H14.8434H14.8432H14.843H14.8428H14.8426H14.8424C13.6351 17.3258 12.4947 16.6992 11.8547 15.6723ZM14.7852 10.7933V10.7932L14.7761 10.7935C14.0966 10.8118 13.4523 11.0513 12.9204 11.4915L12.9202 11.4917C12.2188 12.0731 11.8326 12.9313 11.8508 13.8485C11.8601 14.3936 12.0259 14.9268 12.3107 15.3773C12.8673 16.2708 13.8425 16.8307 14.9045 16.7765C15.6266 16.7572 16.3154 16.4828 16.8414 15.9951C17.0793 15.784 17.2732 15.5441 17.4218 15.2843C17.6968 14.8073 17.8351 14.2736 17.8259 13.7303L17.8258 13.7283C17.8075 12.9312 17.4863 12.1846 16.9065 11.6315C16.3522 11.0874 15.6141 10.7933 14.8424 10.7933H14.8423H14.8422H14.8421H14.842H14.8419H14.8418H14.8417H14.8416H14.8415H14.8414H14.8413H14.8412H14.8411H14.841H14.8409H14.8408H14.8407H14.8407H14.8406H14.8405H14.8404H14.8403H14.8402H14.8401H14.84H14.8399H14.8398H14.8397H14.8396H14.8395H14.8393H14.8392H14.8391H14.839H14.8389H14.8388H14.8387H14.8386H14.8385H14.8384H14.8383H14.8382H14.8381H14.838H14.8379H14.8378H14.8377H14.8376H14.8375H14.8374H14.8373H14.8372H14.8371H14.837H14.8369H14.8368H14.8367H14.8366H14.8365H14.8364H14.8362H14.8361H14.836H14.8359H14.8358H14.8357H14.8356H14.8355H14.8354H14.8353H14.8352H14.8351H14.835H14.8349H14.8348H14.8346H14.8345H14.8344H14.8343H14.8342H14.8341H14.834H14.8339H14.8338H14.8337H14.8336H14.8334H14.8333H14.8332H14.8331H14.833H14.8329H14.8328H14.8327H14.8326H14.8325H14.8324H14.8322H14.8321H14.832H14.8319H14.8318H14.8317H14.8316H14.8315H14.8314H14.8312H14.8311H14.831H14.8309H14.8308H14.8307H14.8306H14.8305H14.8303H14.8302H14.8301H14.83H14.8299H14.8298H14.8297H14.8296H14.8294H14.8293H14.8292H14.8291H14.829H14.8289H14.8288H14.8286H14.8285H14.8284H14.8283H14.8282H14.8281H14.828H14.8279H14.8277H14.8276H14.8275H14.8274H14.8273H14.8272H14.827H14.8269H14.8268H14.8267H14.8266H14.8265H14.8264H14.8262H14.8261H14.826H14.8259H14.8258H14.8257H14.8255H14.8254H14.8253H14.8252H14.8251H14.825H14.8248H14.8247H14.8246H14.8245H14.8244H14.8243H14.8241H14.824H14.8239H14.8238H14.8237H14.8236H14.8234H14.8233H14.8232H14.8231H14.823H14.8229H14.8227H14.8226H14.8225H14.8224H14.8223H14.8222H14.822H14.8219H14.8218H14.8217H14.8216H14.8214H14.8213H14.8212H14.8211H14.821H14.8209H14.8207H14.8206H14.8205H14.8204H14.8203H14.8201H14.82H14.8199H14.8198H14.8197H14.8195H14.8194H14.8193H14.8192H14.8191H14.819H14.8188H14.8187H14.8186H14.8185H14.8184H14.8182H14.8181H14.818H14.8179H14.8178H14.8176H14.8175H14.8174H14.8173H14.8172H14.817H14.8169H14.8168H14.8167H14.8166H14.8165H14.8163H14.8162H14.8161H14.816H14.8159H14.8157H14.8156H14.8155H14.8154H14.8153H14.8151H14.815H14.8149H14.8148H14.8147H14.8145H14.8144H14.8143H14.8142H14.8141H14.8139H14.8138H14.8137H14.8136H14.8135H14.8133H14.8132H14.8131H14.813H14.8129H14.8127H14.8126H14.8125H14.8124H14.8123H14.8121H14.812H14.8119H14.8118H14.8117H14.8115H14.8114H14.8113H14.8112H14.8111H14.811H14.8108H14.8107H14.8106H14.8105H14.8104H14.8102H14.8101H14.81H14.8099H14.8098H14.8096H14.8095H14.8094H14.8093H14.8092H14.809H14.8089H14.8088H14.8087H14.8086H14.8084H14.8083H14.8082H14.8081H14.808H14.8079H14.8077H14.8076H14.8075H14.8074H14.8073H14.8071H14.807H14.8069H14.8068H14.8067H14.8065H14.8064H14.8063H14.8062H14.8061H14.806H14.8058H14.8057H14.8056H14.8055H14.8054H14.8053H14.8051H14.805H14.8049H14.8048H14.8047H14.8045H14.8044H14.8043H14.8042H14.8041H14.804H14.8038H14.8037H14.8036H14.8035H14.8034H14.8033H14.8031H14.803H14.8029H14.8028H14.8027H14.8026H14.8024H14.8023H14.8022H14.8021H14.802H14.8019H14.8017H14.8016H14.8015H14.8014H14.8013H14.8012H14.8011H14.8009H14.8008H14.8007H14.8006H14.8005H14.8004H14.8002H14.8001H14.8H14.7999H14.7998H14.7997H14.7996H14.7994H14.7993H14.7992H14.7991H14.799H14.7989H14.7988H14.7986H14.7985H14.7984H14.7983H14.7982H14.7981H14.798H14.7979H14.7977H14.7976H14.7975H14.7974H14.7973H14.7972H14.7971H14.797H14.7968H14.7967H14.7966H14.7965H14.7964H14.7963H14.7962H14.7961H14.796H14.7958H14.7957H14.7956H14.7955H14.7954H14.7953H14.7952H14.7951H14.795H14.7948H14.7947H14.7946H14.7945H14.7944H14.7943H14.7942H14.7941H14.794H14.7939H14.7938H14.7936H14.7935H14.7934H14.7933H14.7932H14.7931H14.793H14.7929H14.7928H14.7927H14.7926H14.7925H14.7924H14.7922H14.7921H14.792H14.7919H14.7918H14.7917H14.7916H14.7915H14.7914H14.7913H14.7912H14.7911H14.791H14.7909H14.7908H14.7907H14.7906H14.7904H14.7903H14.7902H14.7901H14.79H14.7899H14.7898H14.7897H14.7896H14.7895H14.7894H14.7893H14.7892H14.7891H14.789H14.7889H14.7888H14.7887H14.7886H14.7885H14.7884H14.7883H14.7882H14.7881H14.788H14.7879H14.7878H14.7877H14.7876H14.7875H14.7874H14.7873H14.7872H14.7871H14.787H14.7869H14.7868H14.7867H14.7866H14.7865H14.7864H14.7863H14.7862H14.7861H14.786H14.7859H14.7858H14.7857H14.7856H14.7855H14.7854H14.7853H14.7852Z" stroke="black" stroke-opacity="0.2" stroke-width="0.675774"/>
<path d="M14.3934 15.213C14.2382 15.213 14.0912 15.1558 13.9687 15.0415L13.144 14.2576C12.8991 14.0208 12.8909 13.637 13.1277 13.3921C13.3645 13.1471 13.7483 13.1389 13.9932 13.3757L14.3934 13.7595L15.6753 12.5183C15.9203 12.2815 16.3041 12.2897 16.5409 12.5346C16.7777 12.7796 16.7695 13.1634 16.5246 13.4002L14.818 15.0497C14.6955 15.1558 14.5403 15.213 14.3934 15.213Z" fill="black"/>
<path d="M13.7584 13.6186L13.7594 13.6196L14.1595 14.0033L14.3945 14.2287L14.6284 14.0022L15.9102 12.7613C15.9102 12.7612 15.9103 12.7612 15.9103 12.7612C16.0199 12.6553 16.1897 12.6575 16.298 12.7695C16.4039 12.8791 16.4018 13.049 16.2898 13.1573C16.2898 13.1573 16.2897 13.1573 16.2897 13.1573L14.5909 14.7992C14.5286 14.8508 14.4541 14.8751 14.3934 14.8751C14.3266 14.8751 14.2617 14.8523 14.2002 14.7953L13.378 14.0139C13.2668 13.9055 13.265 13.7362 13.3706 13.6269C13.4789 13.5149 13.6488 13.5127 13.7584 13.6186Z" stroke="black" stroke-opacity="0.2" stroke-width="0.675774"/>
<path d="M9.12225 9.94511C9.0161 9.94511 8.90994 9.92064 8.81195 9.86348L1.60174 5.69086C1.30777 5.51939 1.20977 5.14374 1.38125 4.84978C1.55273 4.55582 1.92836 4.45782 2.21416 4.6293L9.11408 8.62229L15.9732 4.65382C16.2672 4.48234 16.6428 4.58851 16.8061 4.8743C16.9776 5.16827 16.8714 5.54386 16.5856 5.71534L9.42438 9.86348C9.33455 9.91247 9.2284 9.94511 9.12225 9.94511Z" fill="black"/>
<path d="M8.98221 9.57161L8.9812 9.57103L1.77199 5.399C1.77185 5.39892 1.77171 5.39884 1.77158 5.39876C1.63984 5.32162 1.59532 5.15339 1.67311 5.02003C1.75185 4.88505 1.91951 4.84655 2.04031 4.91903L2.04029 4.91907L2.04492 4.92174L8.94484 8.91474L9.11406 9.01266L9.28329 8.91475L16.1424 4.94628L16.1435 4.94568C16.274 4.86953 16.4419 4.91797 16.5127 5.04194L16.5127 5.04195L16.5142 5.04455C16.5886 5.17211 16.5454 5.3441 16.4136 5.42451L9.25936 9.56858C9.21029 9.59473 9.16071 9.60722 9.12225 9.60722C9.06895 9.60722 9.02281 9.5953 8.98221 9.57161Z" stroke="black" stroke-opacity="0.2" stroke-width="0.675774"/>
<path d="M9.12609 17.3439C8.7913 17.3439 8.51367 17.0663 8.51367 16.7315V9.32531C8.51367 8.99052 8.7913 8.71289 9.12609 8.71289C9.46088 8.71289 9.73851 8.99052 9.73851 9.32531V16.7315C9.73851 17.0663 9.46088 17.3439 9.12609 17.3439Z" fill="black"/>
<path d="M9.12609 17.0061C8.97791 17.0061 8.85156 16.8797 8.85156 16.7315V9.32531C8.85156 9.17713 8.97791 9.05078 9.12609 9.05078C9.27427 9.05078 9.40063 9.17713 9.40063 9.32531V16.7315C9.40063 16.8797 9.27427 17.0061 9.12609 17.0061Z" stroke="black" stroke-opacity="0.2" stroke-width="0.675774"/>
<path d="M9.12593 17.6621C8.40736 17.6621 7.68878 17.507 7.13352 17.1885L2.77309 14.7715C1.58908 14.1183 0.658203 12.5423 0.658203 11.1868V6.56506C0.658203 5.20957 1.58908 3.64181 2.77309 2.9804L7.13352 0.563361C8.24404 -0.065391 9.99148 -0.065391 11.1102 0.563361L15.4706 2.9804C16.6546 3.63365 17.5855 5.20957 17.5855 6.56506V11.1868C17.5855 11.2685 17.5855 11.3338 17.5692 11.4154C17.5283 11.6277 17.3732 11.8074 17.1691 11.8727C16.9649 11.9462 16.7363 11.8972 16.5648 11.7584C15.6257 10.9419 14.1723 10.9092 13.1842 11.7013C12.5555 12.1994 12.188 12.9587 12.188 13.7671C12.188 14.2489 12.3187 14.7225 12.5718 15.1308C12.6371 15.2451 12.7025 15.3349 12.776 15.4248C12.8984 15.5636 12.9474 15.7514 12.9148 15.931C12.8821 16.1107 12.7678 16.2658 12.6045 16.3557L11.1102 17.1803C10.5549 17.507 9.8445 17.6621 9.12593 17.6621ZM9.12593 1.33093C8.61966 1.33093 8.10522 1.43709 7.73777 1.64123L3.37734 4.05826C2.58527 4.49104 1.89937 5.66684 1.89937 6.56506V11.1868C1.89937 12.085 2.59344 13.2609 3.37734 13.6937L7.73777 16.1107C8.48084 16.5271 9.77917 16.5271 10.5222 16.1107L11.4368 15.6044C11.1347 15.0573 10.9714 14.4204 10.9714 13.7671C10.9714 12.575 11.5021 11.4726 12.4248 10.7377C13.5354 9.84767 15.1195 9.65983 16.3688 10.1906V6.54876C16.3688 5.65055 15.6747 4.47469 14.8908 4.04192L10.5304 1.62488C10.1466 1.43707 9.6322 1.33093 9.12593 1.33093Z" fill="black"/>
<path d="M7.30162 16.8954L7.30164 16.8954L7.29733 16.893L2.9369 14.476L2.93632 14.4757C2.40815 14.1843 1.91965 13.6757 1.56263 13.0708C1.20562 12.4659 0.99609 11.7917 0.99609 11.1868V6.56506C0.99609 5.96029 1.20553 5.28829 1.56251 4.68439C1.91933 4.08076 2.40803 3.57151 2.93738 3.27565C2.93755 3.27556 2.93771 3.27547 2.93787 3.27538L7.29733 0.858883L7.29734 0.858895L7.29999 0.857392C7.79345 0.578006 8.44748 0.429684 9.11878 0.429684C9.78997 0.429684 10.4465 0.577969 10.9446 0.857917L10.9464 0.858883L15.3068 3.27592L15.3074 3.27624C15.8355 3.56765 16.324 4.07621 16.6811 4.68113C17.0381 5.28602 17.2476 5.96014 17.2476 6.56506V11.1868C17.2476 11.2701 17.2468 11.3043 17.2378 11.3492L17.2374 11.3516C17.219 11.447 17.1483 11.5246 17.0661 11.5509L17.066 11.5507L17.0546 11.5548C16.9751 11.5834 16.8707 11.5693 16.7811 11.4988C15.7183 10.5792 14.0866 10.5454 12.9737 11.437C12.2642 11.9994 11.8501 12.8562 11.8501 13.7671C11.8501 14.3077 11.9962 14.8414 12.2815 15.3037C12.3572 15.4355 12.4331 15.5393 12.5144 15.6387L12.5143 15.6389L12.5226 15.6483C12.5742 15.7069 12.5972 15.7891 12.5823 15.8706C12.5686 15.9462 12.5195 16.0168 12.4416 16.0596L12.4412 16.0598L10.9469 16.8845L10.9468 16.8844L10.9389 16.8891C10.4483 17.1777 9.80099 17.3243 9.12593 17.3243C8.45029 17.3243 7.7934 17.1775 7.30162 16.8954ZM9.12593 0.993042C8.58137 0.993042 8.00592 1.10582 7.57396 1.3457L3.21403 13.9895L7.57258 16.4054C7.57281 16.4055 7.57304 16.4057 7.57327 16.4058C8.01015 16.6504 8.5821 16.7609 9.13 16.7609C9.67786 16.7609 10.2498 16.6504 10.6866 16.4059C10.6869 16.4057 10.6872 16.4056 10.6874 16.4054L11.6004 15.9L11.8957 15.7365L11.7326 15.441C11.4588 14.9454 11.3093 14.3649 11.3093 13.7671C11.3093 12.6772 11.7937 11.6724 12.6353 11.002L12.6362 11.0014C13.6477 10.1907 15.0995 10.0185 16.2367 10.5016L16.7067 10.7013V10.1906V6.54876C16.7067 6.02148 16.5065 5.44365 16.2148 4.94915C15.9233 4.45481 15.5149 4.00058 15.0545 3.7463C15.0544 3.74624 15.0543 3.74618 15.0542 3.74611L10.6942 1.32936L10.6867 1.32517L10.6789 1.32138C10.2402 1.10669 9.67302 0.993042 9.12593 0.993042Z" stroke="black" stroke-opacity="0.2" stroke-width="0.675774"/>
</svg>
