<svg width="27" height="26" viewBox="0 0 27 26" fill="none" xmlns="http://www.w3.org/2000/svg">
<path d="M20.9889 25.9999C19.0314 25.9999 17.1826 24.9849 16.1435 23.3174C15.5876 22.4595 15.2735 21.4323 15.2493 20.3811C15.2131 18.6169 15.9622 16.9736 17.3035 15.8619C18.3064 15.0282 19.5631 14.557 20.856 14.5207C22.4268 14.5086 23.8406 15.0524 24.9522 16.1157C26.0639 17.179 26.6922 18.6049 26.7164 20.1395C26.7405 21.1907 26.4747 22.2178 25.9431 23.124C25.6531 23.6315 25.2785 24.1028 24.8314 24.5015C23.8405 25.432 22.5114 25.9757 21.0976 25.9999C21.0735 25.9999 21.0372 25.9999 20.9889 25.9999ZM20.9889 16.3332C20.9647 16.3332 20.9285 16.3332 20.9043 16.3332C20.0101 16.3574 19.1643 16.6715 18.4635 17.2515C17.5451 18.0128 17.0376 19.1365 17.0618 20.3449C17.0739 21.0578 17.2914 21.7586 17.666 22.3507C18.4031 23.5348 19.6839 24.2599 21.0614 24.1874C22.016 24.1632 22.9222 23.8007 23.611 23.1603C23.9252 22.8824 24.1789 22.5682 24.3722 22.2299C24.7347 21.6015 24.916 20.9007 24.9039 20.1878C24.8797 19.1365 24.4568 18.1578 23.6955 17.4328C22.9705 16.7198 22.0039 16.3332 20.9889 16.3332Z" fill="#10A12C"/>
<path d="M20.3237 22.3758C20.0941 22.3758 19.8766 22.2911 19.6953 22.122L18.4749 20.962C18.1124 20.6116 18.1003 20.0437 18.4507 19.6812C18.8012 19.3187 19.3691 19.3066 19.7316 19.657L20.3237 20.2249L22.2207 18.3883C22.5832 18.0379 23.1511 18.0499 23.5016 18.4124C23.852 18.7749 23.8399 19.3429 23.4774 19.6933L20.952 22.1341C20.7707 22.2912 20.5412 22.3758 20.3237 22.3758Z" fill="#10A12C"/>
<path d="M12.5301 14.5819C12.373 14.5819 12.2159 14.5457 12.0709 14.4611L1.40132 8.28657C0.966324 8.03282 0.8213 7.47695 1.07505 7.04195C1.3288 6.60695 1.88466 6.46193 2.30757 6.71568L12.518 12.6244L22.668 6.75196C23.103 6.49821 23.6588 6.65532 23.9005 7.07823C24.1542 7.51323 23.9972 8.06903 23.5742 8.32278L12.9771 14.4611C12.8442 14.5336 12.6871 14.5819 12.5301 14.5819Z" fill="#10A12C"/>
<path d="M12.5303 25.5289C12.0349 25.5289 11.624 25.1181 11.624 24.6227V13.6631C11.624 13.1677 12.0349 12.7568 12.5303 12.7568C13.0257 12.7568 13.4365 13.1677 13.4365 13.6631V24.6227C13.4365 25.1181 13.0257 25.5289 12.5303 25.5289Z" fill="#10A12C"/>
<path d="M12.5304 26.0003C11.4671 26.0003 10.4037 25.7707 9.58208 25.2995L3.12958 21.7228C1.3775 20.7562 0 18.4241 0 16.4182V9.57903C0 7.5732 1.3775 5.25326 3.12958 4.27451L9.58208 0.697812C11.2254 -0.232604 13.8112 -0.232604 15.4667 0.697812L21.9191 4.27451C23.6712 5.24117 25.0487 7.5732 25.0487 9.57903V16.4182C25.0487 16.5391 25.0487 16.6357 25.0246 16.7565C24.9642 17.0707 24.7346 17.3365 24.4325 17.4332C24.1304 17.542 23.7921 17.4695 23.5383 17.2641C22.1487 16.0558 19.9979 16.0074 18.5358 17.1795C17.6054 17.9166 17.0617 19.0403 17.0617 20.2365C17.0617 20.9495 17.255 21.6503 17.6296 22.2545C17.7262 22.4237 17.8229 22.5566 17.9317 22.6895C18.1129 22.8949 18.1854 23.1728 18.1371 23.4387C18.0888 23.7045 17.9196 23.9341 17.6779 24.067L15.4667 25.2874C14.645 25.7707 13.5937 26.0003 12.5304 26.0003ZM12.5304 1.83365C11.7812 1.83365 11.02 1.99074 10.4762 2.29282L4.02373 5.86951C2.85165 6.50993 1.83665 8.24987 1.83665 9.57903V16.4182C1.83665 17.7474 2.86373 19.4874 4.02373 20.1278L10.4762 23.7045C11.5758 24.3207 13.4971 24.3207 14.5967 23.7045L15.95 22.9553C15.5029 22.1457 15.2613 21.2032 15.2613 20.2365C15.2613 18.4724 16.0467 16.8412 17.4121 15.7537C19.0554 14.4366 21.3996 14.1586 23.2483 14.944V9.55492C23.2483 8.22575 22.2212 6.48574 21.0612 5.84532L14.6087 2.26863C14.0408 1.99071 13.2796 1.83365 12.5304 1.83365Z" fill="#10A12C"/>
</svg>
