<svg width="29" height="29" viewBox="0 0 29 29" fill="none" xmlns="http://www.w3.org/2000/svg">
<path d="M18.1254 27.4896C17.7991 27.4896 17.4971 27.3083 17.34 27.0304C17.1829 26.7525 17.1829 26.4021 17.3521 26.1242L18.6208 24.0096C18.8746 23.5746 19.4304 23.4416 19.8654 23.6954C20.3004 23.9491 20.4333 24.505 20.1796 24.94L19.8533 25.4838C23.1883 24.6984 25.6895 21.7017 25.6895 18.125C25.6895 17.6296 26.1004 17.2188 26.5958 17.2188C27.0912 17.2188 27.502 17.6296 27.502 18.125C27.49 23.2846 23.285 27.4896 18.1254 27.4896Z" fill="#10A12C"/>
<path d="M2.41699 11.7816C1.92158 11.7816 1.51074 11.3707 1.51074 10.8753C1.51074 5.71574 5.71574 1.51074 10.8753 1.51074C11.2016 1.51074 11.5037 1.692 11.6607 1.96991C11.8178 2.24783 11.8178 2.59825 11.6487 2.87616L10.3799 4.99075C10.1262 5.42575 9.57032 5.55868 9.13532 5.30493C8.70032 5.05118 8.56741 4.49531 8.82116 4.06031L9.14742 3.51654C5.81242 4.30196 3.31117 7.29866 3.31117 10.8753C3.32325 11.3707 2.91241 11.7816 2.41699 11.7816Z" fill="#10A12C"/>
<path d="M21.3636 9.0625C21.2065 9.0625 21.0494 9.02628 20.9044 8.9417L16.1074 6.16247C15.6724 5.90872 15.5274 5.35293 15.7811 4.91793C16.0349 4.48293 16.5907 4.3379 17.0136 4.59165L21.3636 7.10501L25.6774 4.60375C26.1124 4.35 26.6682 4.5071 26.9099 4.93002C27.1636 5.36502 27.0065 5.92082 26.5836 6.17457L21.8107 8.9296C21.6778 9.01418 21.5207 9.0625 21.3636 9.0625Z" fill="#10A12C"/>
<path d="M21.3633 13.9798C20.8679 13.9798 20.457 13.569 20.457 13.0736V8.14355C20.457 7.64814 20.8679 7.2373 21.3633 7.2373C21.8587 7.2373 22.2695 7.64814 22.2695 8.14355V13.0736C22.2695 13.5811 21.8587 13.9798 21.3633 13.9798Z" fill="#10A12C"/>
<path d="M21.3635 14.1978C20.8077 14.1978 20.2398 14.0769 19.7927 13.8232L16.8927 12.2161C15.9502 11.6965 15.2373 10.4761 15.2373 9.40073V6.33152C15.2373 5.24402 15.9502 4.03572 16.9048 3.50406L19.8048 1.89695C20.699 1.40154 22.0402 1.40154 22.9465 1.89695L25.8465 3.50406C26.789 4.02364 27.5019 5.244 27.5019 6.31942V9.38863C27.5019 10.4761 26.789 11.6844 25.8465 12.204L22.9465 13.8111C22.4752 14.0769 21.9194 14.1978 21.3635 14.1978ZM20.6748 3.46777L17.7748 5.07488C17.4123 5.28029 17.0498 5.89649 17.0498 6.30733V9.37654C17.0498 9.79946 17.4123 10.4157 17.7748 10.6091L20.6748 12.2282C21.0252 12.4215 21.7019 12.4215 22.0523 12.2282L24.9523 10.6211C25.3148 10.4157 25.6773 9.79947 25.6773 9.38863V6.31942C25.6773 5.8965 25.3148 5.2803 24.9523 5.08697L22.0523 3.47987C21.7019 3.27445 21.0131 3.27444 20.6748 3.46777Z" fill="#10A12C"/>
<path d="M7.63706 22.3545C7.47998 22.3545 7.32289 22.3183 7.17789 22.2337L2.3808 19.4545C1.9458 19.2007 1.8008 18.6449 2.05455 18.2099C2.3083 17.7749 2.86414 17.6299 3.28705 17.8836L7.63706 20.397L11.9508 17.8957C12.3858 17.642 12.9416 17.7991 13.1833 18.222C13.4371 18.657 13.28 19.2128 12.8571 19.4666L8.08414 22.2216C7.95122 22.3062 7.79414 22.3545 7.63706 22.3545Z" fill="#10A12C"/>
<path d="M7.63672 27.2718C7.1413 27.2718 6.73047 26.861 6.73047 26.3656V21.4355C6.73047 20.9401 7.1413 20.5293 7.63672 20.5293C8.13214 20.5293 8.54297 20.9401 8.54297 21.4355V26.3656C8.54297 26.8731 8.14422 27.2718 7.63672 27.2718Z" fill="#10A12C"/>
<path d="M7.637 27.4894C7.08117 27.4894 6.51325 27.3686 6.06616 27.1148L3.16615 25.5077C2.22365 24.9881 1.51074 23.7678 1.51074 22.6923V19.6231C1.51074 18.5356 2.22365 17.3273 3.16615 16.8077L6.06616 15.2007C6.96033 14.7052 8.31365 14.7052 9.20782 15.2007L12.1078 16.8077C13.0503 17.3273 13.7632 18.5477 13.7632 19.6231V22.6923C13.7632 23.7798 13.0503 24.9881 12.0957 25.5198L9.19574 27.1269C8.76074 27.3686 8.20492 27.4894 7.637 27.4894ZM6.94824 16.7594L4.04825 18.3665C3.68575 18.5719 3.32324 19.1881 3.32324 19.5989V22.6682C3.32324 23.0911 3.68575 23.7073 4.04825 23.9007L6.94824 25.5077C7.29866 25.701 7.97533 25.701 8.32574 25.5077L11.2257 23.9007C11.5882 23.6953 11.9507 23.079 11.9507 22.6682V19.5989C11.9507 19.176 11.5882 18.5598 11.2257 18.3665L8.32574 16.7473C7.98741 16.566 7.29866 16.5661 6.94824 16.7594Z" fill="#10A12C"/>
</svg>
