
<svg width="28" height="28" viewBox="0 0 28 28" fill="none" xmlns="http://www.w3.org/2000/svg">
<path d="M17.4997 26.5413H10.4997C4.16467 26.5413 1.45801 23.8347 1.45801 17.4997V10.4997C1.45801 4.16467 4.16467 1.45801 10.4997 1.45801H17.4997C23.8347 1.45801 26.5413 4.16467 26.5413 10.4997V17.4997C26.5413 23.8347 23.8347 26.5413 17.4997 26.5413ZM10.4997 3.20801C5.12134 3.20801 3.20801 5.12134 3.20801 10.4997V17.4997C3.20801 22.878 5.12134 24.7913 10.4997 24.7913H17.4997C22.878 24.7913 24.7913 22.878 24.7913 17.4997V10.4997C24.7913 5.12134 22.878 3.20801 17.4997 3.20801H10.4997Z" fill="black"/>
<path d="M13.9997 15.2595C13.8481 15.2595 13.6964 15.2245 13.5564 15.1428L7.37307 11.5728C6.95307 11.3278 6.81305 10.7912 7.05805 10.3828C7.30305 9.96282 7.83974 9.82282 8.24807 10.0678L13.9881 13.3928L19.6931 10.0912C20.1131 9.84616 20.6497 9.99782 20.8831 10.4062C21.1164 10.8145 20.9764 11.3628 20.5681 11.5962L14.4314 15.1428C14.3031 15.2128 14.1514 15.2595 13.9997 15.2595Z" fill="black"/>
<path d="M14 21.6064C13.5217 21.6064 13.125 21.2098 13.125 20.7314V14.3848C13.125 13.9064 13.5217 13.5098 14 13.5098C14.4783 13.5098 14.875 13.9064 14.875 14.3848V20.7314C14.875 21.2098 14.4783 21.6064 14 21.6064Z" fill="black"/>
<path d="M14.0003 21.8749C13.3236 21.8749 12.6586 21.7233 12.122 21.4316L8.38862 19.3549C7.26862 18.7366 6.40527 17.2549 6.40527 15.9716V12.0166C6.40527 10.7449 7.28029 9.26327 8.38862 8.63327L12.122 6.5566C13.1953 5.9616 14.8053 5.9616 15.8786 6.5566L19.6119 8.63327C20.7319 9.2516 21.5953 10.7333 21.5953 12.0166V15.9716C21.5953 17.2433 20.7203 18.7249 19.6119 19.3549L15.8786 21.4316C15.3419 21.7349 14.677 21.8749 14.0003 21.8749ZM14.0003 7.87493C13.6153 7.87493 13.2419 7.94493 12.9736 8.0966L9.2403 10.1733C8.66863 10.4883 8.15527 11.3749 8.15527 12.0166V15.9716C8.15527 16.6249 8.66863 17.4999 9.2403 17.8149L12.9736 19.8916C13.5103 20.1949 14.4903 20.1949 15.027 19.8916L18.7603 17.8149C19.3319 17.4999 19.8453 16.6133 19.8453 15.9716V12.0166C19.8453 11.3633 19.3319 10.4883 18.7603 10.1733L15.027 8.0966C14.7586 7.94493 14.3853 7.87493 14.0003 7.87493Z" fill="black"/>
</svg>
