<svg width="20" height="20" viewBox="0 0 20 20" fill="none" xmlns="http://www.w3.org/2000/svg">
<path d="M10.3438 12.1102H1.67138C1.34814 12.1102 1.08008 11.8422 1.08008 11.5189V5.21171C1.08008 3.1461 2.75938 1.4668 4.82499 1.4668H11.9206C12.2439 1.4668 12.5119 1.73485 12.5119 2.0581V9.94213C12.5119 11.1405 11.5422 12.1102 10.3438 12.1102ZM2.26268 10.9276H10.3438C10.8878 10.9276 11.3293 10.4861 11.3293 9.94213V2.6494H4.82499C3.41375 2.6494 2.26268 3.80047 2.26268 5.21171V10.9276Z" fill="black"/>
<path d="M15.0742 16.8407H14.2858C13.9626 16.8407 13.6945 16.5726 13.6945 16.2494C13.6945 15.7054 13.253 15.2639 12.709 15.2639C12.165 15.2639 11.7235 15.7054 11.7235 16.2494C11.7235 16.5726 11.4555 16.8407 11.1322 16.8407H7.97861C7.65536 16.8407 7.3873 16.5726 7.3873 16.2494C7.3873 15.7054 6.9458 15.2639 6.4018 15.2639C5.8578 15.2639 5.4163 15.7054 5.4163 16.2494C5.4163 16.5726 5.14824 16.8407 4.82499 16.8407H4.03659C2.4046 16.8407 1.08008 15.5162 1.08008 13.8842V11.519C1.08008 11.1957 1.34814 10.9277 1.67138 10.9277H10.3438C10.8878 10.9277 11.3293 10.4862 11.3293 9.94216V4.42333C11.3293 4.10009 11.5974 3.83203 11.9206 3.83203H13.3713C14.1518 3.83203 14.8693 4.2499 15.2556 4.92792L16.6037 7.28524C16.7062 7.46657 16.7062 7.69521 16.6037 7.87654C16.5012 8.05788 16.3042 8.16825 16.0913 8.16825H15.0742C14.9639 8.16825 14.8771 8.25497 14.8771 8.36535V10.7306C14.8771 10.8409 14.9639 10.9277 15.0742 10.9277H17.4394C17.7627 10.9277 18.0307 11.1957 18.0307 11.519V13.8842C18.0307 15.5162 16.7062 16.8407 15.0742 16.8407ZM14.7983 15.6581H15.0742C16.0519 15.6581 16.8481 14.8618 16.8481 13.8842V12.1103H15.0742C14.3174 12.1103 13.6945 11.4874 13.6945 10.7306V8.36535C13.6945 7.60848 14.3095 6.98564 15.0742 6.98564L14.2306 5.51133C14.0572 5.20386 13.7261 5.01464 13.3713 5.01464H12.5119V9.94216C12.5119 11.1405 11.5422 12.1103 10.3438 12.1103H2.26268V13.8842C2.26268 14.8618 3.05897 15.6581 4.03659 15.6581H4.31254C4.57271 14.7514 5.40841 14.0813 6.4018 14.0813C7.39519 14.0813 8.23089 14.7514 8.49106 15.6581H10.6276C10.8878 14.7514 11.7235 14.0813 12.7169 14.0813C13.7103 14.0813 14.5381 14.7514 14.7983 15.6581Z" fill="black"/>
<path d="M6.40053 18.4163C5.20216 18.4163 4.23242 17.4466 4.23242 16.2482C4.23242 15.0498 5.20216 14.0801 6.40053 14.0801C7.5989 14.0801 8.56864 15.0498 8.56864 16.2482C8.56864 17.4466 7.5989 18.4163 6.40053 18.4163ZM6.40053 15.2627C5.85653 15.2627 5.41503 15.7042 5.41503 16.2482C5.41503 16.7922 5.85653 17.2337 6.40053 17.2337C6.94453 17.2337 7.38603 16.7922 7.38603 16.2482C7.38603 15.7042 6.94453 15.2627 6.40053 15.2627Z" fill="black"/>
<path d="M12.7091 18.4163C11.5108 18.4163 10.541 17.4466 10.541 16.2482C10.541 15.0498 11.5108 14.0801 12.7091 14.0801C13.9075 14.0801 14.8772 15.0498 14.8772 16.2482C14.8772 17.4466 13.9075 18.4163 12.7091 18.4163ZM12.7091 15.2627C12.1651 15.2627 11.7236 15.7042 11.7236 16.2482C11.7236 16.7922 12.1651 17.2337 12.7091 17.2337C13.2531 17.2337 13.6946 16.7922 13.6946 16.2482C13.6946 15.7042 13.2531 15.2627 12.7091 15.2627Z" fill="black"/>
<path d="M17.4383 12.109H15.0731C14.3162 12.109 13.6934 11.4862 13.6934 10.7293V8.36408C13.6934 7.60721 14.3162 6.98438 15.0731 6.98438H16.0901C16.303 6.98438 16.5001 7.09476 16.6026 7.28397L17.9507 9.64918C17.998 9.73591 18.0296 9.83839 18.0296 9.94089V11.5177C18.0296 11.8409 17.7615 12.109 17.4383 12.109ZM15.0731 8.16698C14.9627 8.16698 14.876 8.2537 14.876 8.36408V10.7293C14.876 10.8397 14.9627 10.9264 15.0731 10.9264H16.847V10.0986L15.7432 8.16698H15.0731Z" fill="black"/>
</svg>
