<svg width="20" height="20" viewBox="0 0 20 20" fill="none" xmlns="http://www.w3.org/2000/svg">
<path d="M10.3438 12.0518H1.67138C1.34814 12.0518 1.08008 11.7837 1.08008 11.4605V6.43049C1.08008 6.1782 1.23775 5.95743 1.46639 5.8707C1.70291 5.78398 1.9631 5.85496 2.12078 6.04418C2.6017 6.61971 3.35069 6.94295 4.09178 6.91929C4.72251 6.90353 5.30591 6.66702 5.74741 6.24917C5.9524 6.07572 6.11797 5.87072 6.24411 5.64208C6.48851 5.22423 6.60678 4.76695 6.5989 4.30179C6.58313 3.57646 6.26779 2.9142 5.73168 2.43328C5.54246 2.26771 5.47937 2.00753 5.56609 1.77889C5.65282 1.55025 5.87358 1.39258 6.11799 1.39258H11.9206C12.2439 1.39258 12.5119 1.66064 12.5119 1.98388V9.86791C12.5119 11.0821 11.5422 12.0518 10.3438 12.0518ZM2.26268 10.8692H10.3438C10.8878 10.8692 11.3293 10.4277 11.3293 9.8837V2.59097H7.34C7.61594 3.10343 7.76574 3.67897 7.78151 4.27816C7.79727 4.96407 7.62381 5.64208 7.27692 6.23339C7.0877 6.5724 6.82753 6.89566 6.54371 7.13218C5.91298 7.73136 5.04573 8.08614 4.1233 8.10979C3.46104 8.13344 2.82246 7.96788 2.27057 7.66829V10.8692H2.26268Z" fill="black"/>
<path d="M15.0742 16.7821H14.2858C13.9626 16.7821 13.6945 16.514 13.6945 16.1908C13.6945 15.6468 13.253 15.2053 12.709 15.2053C12.165 15.2053 11.7235 15.6468 11.7235 16.1908C11.7235 16.514 11.4555 16.7821 11.1322 16.7821H7.97861C7.65536 16.7821 7.3873 16.514 7.3873 16.1908C7.3873 15.6468 6.9458 15.2053 6.4018 15.2053C5.8578 15.2053 5.4163 15.6468 5.4163 16.1908C5.4163 16.514 5.14824 16.7821 4.82499 16.7821H4.03659C2.4046 16.7821 1.08008 15.4576 1.08008 13.8256V11.4604C1.08008 11.1371 1.34814 10.8691 1.67138 10.8691H10.3438C10.8878 10.8691 11.3293 10.4276 11.3293 9.88356V4.36474C11.3293 4.04149 11.5974 3.77344 11.9206 3.77344H13.3713C14.1518 3.77344 14.8692 4.1913 15.2556 4.86933L16.6037 7.22665C16.7062 7.40798 16.7062 7.63662 16.6037 7.81795C16.5012 7.99928 16.3041 8.10966 16.0913 8.10966H15.0742C14.9639 8.10966 14.8771 8.19638 14.8771 8.30676V10.672C14.8771 10.7823 14.9639 10.8691 15.0742 10.8691H17.4394C17.7627 10.8691 18.0307 11.1371 18.0307 11.4604V13.8256C18.0307 15.4576 16.7062 16.7821 15.0742 16.7821ZM14.7983 15.5995H15.0742C16.0519 15.5995 16.8481 14.8032 16.8481 13.8256V12.0517H15.0742C14.3174 12.0517 13.6945 11.4288 13.6945 10.672V8.30676C13.6945 7.54989 14.3095 6.92705 15.0742 6.92705L14.2306 5.45274C14.0572 5.14526 13.7261 4.95604 13.3713 4.95604H12.5119V9.88356C12.5119 11.0819 11.5422 12.0517 10.3438 12.0517H2.26268V13.8256C2.26268 14.8032 3.05897 15.5995 4.03659 15.5995H4.31251C4.57269 14.6928 5.40841 14.0227 6.4018 14.0227C7.39519 14.0227 8.23092 14.6928 8.49109 15.5995H10.6276C10.8878 14.6928 11.7235 14.0227 12.7169 14.0227C13.7103 14.0227 14.5381 14.6928 14.7983 15.5995Z" fill="black"/>
<path d="M6.40053 18.3577C5.20216 18.3577 4.23242 17.388 4.23242 16.1896C4.23242 14.9912 5.20216 14.0215 6.40053 14.0215C7.5989 14.0215 8.56864 14.9912 8.56864 16.1896C8.56864 17.388 7.5989 18.3577 6.40053 18.3577ZM6.40053 15.2041C5.85653 15.2041 5.41503 15.6456 5.41503 16.1896C5.41503 16.7336 5.85653 17.1751 6.40053 17.1751C6.94453 17.1751 7.38603 16.7336 7.38603 16.1896C7.38603 15.6456 6.94453 15.2041 6.40053 15.2041Z" fill="black"/>
<path d="M12.7091 18.3577C11.5108 18.3577 10.541 17.388 10.541 16.1896C10.541 14.9912 11.5108 14.0215 12.7091 14.0215C13.9075 14.0215 14.8772 14.9912 14.8772 16.1896C14.8772 17.388 13.9075 18.3577 12.7091 18.3577ZM12.7091 15.2041C12.1651 15.2041 11.7236 15.6456 11.7236 16.1896C11.7236 16.7336 12.1651 17.1751 12.7091 17.1751C13.2531 17.1751 13.6946 16.7336 13.6946 16.1896C13.6946 15.6456 13.2531 15.2041 12.7091 15.2041Z" fill="black"/>
<path d="M17.4383 12.0504H15.0731C14.3162 12.0504 13.6934 11.4276 13.6934 10.6707V8.30549C13.6934 7.54862 14.3162 6.92578 15.0731 6.92578H16.0901C16.303 6.92578 16.5001 7.03616 16.6026 7.22538L17.9508 9.59059C17.9981 9.67731 18.0296 9.7798 18.0296 9.88229V11.4591C18.0296 11.7823 17.7615 12.0504 17.4383 12.0504ZM15.0731 8.10839C14.9627 8.10839 14.876 8.19511 14.876 8.30549V10.6707C14.876 10.7811 14.9627 10.8678 15.0731 10.8678H16.847V10.04L15.7432 8.10839H15.0731Z" fill="black"/>
<path d="M4.02744 8.10897C2.93945 8.10897 1.91453 7.63591 1.22073 6.80809C1.11035 6.68983 0.992107 6.52426 0.889614 6.36658C0.519065 5.80682 0.31408 5.14456 0.298312 4.45077C0.266776 3.2997 0.755595 2.21958 1.63861 1.48636C2.30875 0.934483 3.11288 0.634909 3.96436 0.619141C4.89467 0.627025 5.82503 0.934504 6.51883 1.55734C7.30723 2.25114 7.76449 3.22088 7.78814 4.27734C7.80391 4.96325 7.63045 5.64126 7.28355 6.23257C7.09434 6.57158 6.83417 6.89484 6.55034 7.13136C5.91962 7.73054 5.05237 8.08532 4.12994 8.10897C4.09052 8.10897 4.05898 8.10897 4.02744 8.10897ZM4.02744 1.80175C4.01168 1.80175 3.99591 1.80175 3.98014 1.80175C3.40461 1.80963 2.85271 2.02251 2.38755 2.40094C1.78837 2.89763 1.45726 3.63873 1.47303 4.41925C1.48879 4.89229 1.62283 5.34169 1.87512 5.71224C1.94607 5.82262 2.01701 5.92507 2.10374 6.01968C2.60832 6.61887 3.35731 6.93424 4.09053 6.91847C4.72125 6.90271 5.30465 6.6662 5.74616 6.24835C5.95114 6.0749 6.11671 5.8699 6.24286 5.64126C6.48726 5.22341 6.60553 4.76613 6.59765 4.30097C6.58188 3.57564 6.26654 2.91338 5.73042 2.43246C5.25738 2.03037 4.65817 1.80175 4.02744 1.80175Z" fill="black"/>
<path d="M3.60158 5.74301C3.45179 5.74301 3.30986 5.6878 3.1916 5.57743L2.3953 4.82059C2.15878 4.59195 2.15093 4.22141 2.37957 3.98489C2.60821 3.74836 2.97875 3.74046 3.21527 3.9691L3.60158 4.33963L4.83938 3.14129C5.0759 2.91265 5.44645 2.9205 5.67509 3.15702C5.90373 3.39354 5.89583 3.76414 5.65931 3.99278L4.01152 5.58532C3.89326 5.68781 3.7435 5.74301 3.60158 5.74301Z" fill="black"/>
</svg>
