<svg width="20" height="20" viewBox="0 0 20 20" fill="none" xmlns="http://www.w3.org/2000/svg">
<path d="M10.3433 12.5829H9.55485C9.23161 12.5829 8.96355 12.3148 8.96355 11.9916C8.96355 11.6683 9.23161 11.4003 9.55485 11.4003H10.3433C10.8873 11.4003 11.3288 10.9588 11.3288 10.4148V3.12206H4.82443C3.89412 3.12206 3.04262 3.62662 2.58535 4.43868C2.42767 4.7225 2.06503 4.82503 1.78121 4.66735C1.49738 4.50967 1.39486 4.14698 1.55254 3.86316C2.2148 2.68055 3.46838 1.93945 4.82443 1.93945H11.9201C12.2433 1.93945 12.5114 2.20751 12.5114 2.53076V10.4148C12.5114 11.6132 11.5416 12.5829 10.3433 12.5829Z" fill="black"/>
<path d="M15.0742 17.3133H14.2858C13.9626 17.3133 13.6945 17.0453 13.6945 16.722C13.6945 16.178 13.253 15.7365 12.709 15.7365C12.165 15.7365 11.7235 16.178 11.7235 16.722C11.7235 17.0453 11.4555 17.3133 11.1322 17.3133H7.97861C7.65536 17.3133 7.3873 17.0453 7.3873 16.722C7.3873 16.178 6.9458 15.7365 6.4018 15.7365C5.8578 15.7365 5.4163 16.178 5.4163 16.722C5.4163 17.0453 5.14824 17.3133 4.82499 17.3133H4.03659C2.4046 17.3133 1.08008 15.9888 1.08008 14.3568C1.08008 14.0336 1.34814 13.7655 1.67138 13.7655C1.99463 13.7655 2.26268 14.0336 2.26268 14.3568C2.26268 15.3344 3.05897 16.1307 4.03659 16.1307H4.31251C4.57269 15.2241 5.40841 14.5539 6.4018 14.5539C7.39519 14.5539 8.23092 15.2241 8.49109 16.1307H10.6276C10.8878 15.2241 11.7235 14.5539 12.7169 14.5539C13.7103 14.5539 14.546 15.2241 14.8062 16.1307H15.0742C16.0519 16.1307 16.8481 15.3344 16.8481 14.3568V12.5829H15.0742C14.3174 12.5829 13.6945 11.9601 13.6945 11.2032V8.83801C13.6945 8.08114 14.3095 7.4583 15.0742 7.4583L14.2306 5.98399C14.0572 5.67651 13.7261 5.48729 13.3713 5.48729H12.5119V10.4148C12.5119 11.6132 11.5422 12.5829 10.3438 12.5829H9.55541C9.23217 12.5829 8.96411 12.3149 8.96411 11.9916C8.96411 11.6684 9.23217 11.4003 9.55541 11.4003H10.3438C10.8878 11.4003 11.3293 10.9588 11.3293 10.4148V4.89599C11.3293 4.57274 11.5974 4.30469 11.9206 4.30469H13.3713C14.1518 4.30469 14.8692 4.72255 15.2556 5.40058L16.6037 7.7579C16.7062 7.93923 16.7062 8.16787 16.6037 8.3492C16.5012 8.53053 16.3041 8.64091 16.0913 8.64091H15.0742C14.9639 8.64091 14.8771 8.72763 14.8771 8.83801V11.2032C14.8771 11.3136 14.9639 11.4003 15.0742 11.4003H17.4394C17.7627 11.4003 18.0307 11.6684 18.0307 11.9916V14.3568C18.0307 15.9888 16.7062 17.3133 15.0742 17.3133Z" fill="black"/>
<path d="M6.40053 18.889C5.20216 18.889 4.23242 17.9192 4.23242 16.7208C4.23242 15.5225 5.20216 14.5527 6.40053 14.5527C7.5989 14.5527 8.56864 15.5225 8.56864 16.7208C8.56864 17.9192 7.5989 18.889 6.40053 18.889ZM6.40053 15.7353C5.85653 15.7353 5.41503 16.1768 5.41503 16.7208C5.41503 17.2648 5.85653 17.7063 6.40053 17.7063C6.94453 17.7063 7.38603 17.2648 7.38603 16.7208C7.38603 16.1768 6.94453 15.7353 6.40053 15.7353Z" fill="black"/>
<path d="M12.7091 18.889C11.5108 18.889 10.541 17.9192 10.541 16.7208C10.541 15.5225 11.5108 14.5527 12.7091 14.5527C13.9075 14.5527 14.8772 15.5225 14.8772 16.7208C14.8772 17.9192 13.9075 18.889 12.7091 18.889ZM12.7091 15.7353C12.1651 15.7353 11.7236 16.1768 11.7236 16.7208C11.7236 17.2648 12.1651 17.7063 12.7091 17.7063C13.2531 17.7063 13.6946 17.2648 13.6946 16.7208C13.6946 16.1768 13.2531 15.7353 12.7091 15.7353Z" fill="black"/>
<path d="M17.4383 12.5817H15.0731C14.3162 12.5817 13.6934 11.9588 13.6934 11.2019V8.83674C13.6934 8.07987 14.3162 7.45703 15.0731 7.45703H16.0901C16.303 7.45703 16.5001 7.56741 16.6026 7.75663L17.9508 10.1218C17.9981 10.2086 18.0296 10.3111 18.0296 10.4135V11.9904C18.0296 12.3136 17.7615 12.5817 17.4383 12.5817ZM15.0731 8.63964C14.9627 8.63964 14.876 8.72636 14.876 8.83674V11.2019C14.876 11.3123 14.9627 11.399 15.0731 11.399H16.847V10.5712L15.7432 8.63964H15.0731Z" fill="black"/>
<path d="M6.4018 7.85253H1.67138C1.34814 7.85253 1.08008 7.58447 1.08008 7.26122C1.08008 6.93798 1.34814 6.66992 1.67138 6.66992H6.4018C6.72505 6.66992 6.9931 6.93798 6.9931 7.26122C6.9931 7.58447 6.72505 7.85253 6.4018 7.85253Z" fill="black"/>
<path d="M4.82499 10.2178H1.67138C1.34814 10.2178 1.08008 9.9497 1.08008 9.62646C1.08008 9.30321 1.34814 9.03516 1.67138 9.03516H4.82499C5.14824 9.03516 5.4163 9.30321 5.4163 9.62646C5.4163 9.9497 5.14824 10.2178 4.82499 10.2178Z" fill="black"/>
<path d="M3.24819 12.583H1.67138C1.34814 12.583 1.08008 12.3149 1.08008 11.9917C1.08008 11.6684 1.34814 11.4004 1.67138 11.4004H3.24819C3.57143 11.4004 3.83949 11.6684 3.83949 11.9917C3.83949 12.3149 3.57143 12.583 3.24819 12.583Z" fill="black"/>
</svg>
