<svg width="20" height="20" viewBox="0 0 20 20" fill="none" xmlns="http://www.w3.org/2000/svg">
<path d="M11.9206 18.8354H7.1902C2.90917 18.8354 1.08008 17.0063 1.08008 12.7253V7.99489C1.08008 3.71386 2.90917 1.88477 7.1902 1.88477H11.9206C16.2017 1.88477 18.0307 3.71386 18.0307 7.99489V12.7253C18.0307 17.0063 16.2017 18.8354 11.9206 18.8354ZM7.1902 3.06737C3.55566 3.06737 2.26268 4.36035 2.26268 7.99489V12.7253C2.26268 16.3599 3.55566 17.6528 7.1902 17.6528H11.9206C15.5552 17.6528 16.8481 16.3599 16.8481 12.7253V7.99489C16.8481 4.36035 15.5552 3.06737 11.9206 3.06737H7.1902Z" fill="black"/>
<path d="M9.55372 11.211C9.45123 11.211 9.34873 11.1873 9.25413 11.1321L5.0756 8.7196C4.79177 8.55404 4.69715 8.19137 4.86271 7.91543C5.02828 7.63161 5.39096 7.537 5.6669 7.70256L9.54583 9.94952L13.4011 7.71833C13.685 7.55277 14.0476 7.65526 14.2053 7.9312C14.363 8.20714 14.2684 8.57769 13.9924 8.73537L9.84543 11.1321C9.7587 11.1794 9.65622 11.211 9.55372 11.211Z" fill="black"/>
<path d="M9.55419 15.4989C9.23095 15.4989 8.96289 15.2308 8.96289 14.9076V10.6186C8.96289 10.2954 9.23095 10.0273 9.55419 10.0273C9.87744 10.0273 10.1455 10.2954 10.1455 10.6186V14.9076C10.1455 15.2308 9.87744 15.4989 9.55419 15.4989Z" fill="black"/>
<path d="M9.55634 15.6806C9.09907 15.6806 8.64969 15.5782 8.28702 15.381L5.76412 13.9777C5.00726 13.5598 4.42383 12.5586 4.42383 11.6913V9.01864C4.42383 8.15928 5.01514 7.158 5.76412 6.73226L8.28702 5.32891C9.01235 4.92682 10.1003 4.92682 10.8257 5.32891L13.3486 6.73226C14.1054 7.15012 14.6889 8.15139 14.6889 9.01864V11.6913C14.6889 12.5507 14.0975 13.5519 13.3486 13.9777L10.8257 15.381C10.463 15.586 10.0136 15.6806 9.55634 15.6806ZM9.55634 6.2198C9.29617 6.2198 9.04387 6.26711 8.86254 6.3696L6.33967 7.77296C5.95335 7.98583 5.60643 8.58501 5.60643 9.01864V11.6913C5.60643 12.1328 5.95335 12.7241 6.33967 12.937L8.86254 14.3404C9.22521 14.5453 9.88747 14.5453 10.2501 14.3404L12.773 12.937C13.1593 12.7241 13.5062 12.1249 13.5062 11.6913V9.01864C13.5062 8.57713 13.1593 7.98583 12.773 7.77296L10.2501 6.3696C10.0688 6.26711 9.81651 6.2198 9.55634 6.2198Z" fill="black"/>
</svg>
