<svg width="20" height="20" viewBox="0 0 20 20" fill="none" xmlns="http://www.w3.org/2000/svg">
<path d="M10.4442 11.378C10.3417 11.378 10.2392 11.3544 10.1446 11.2992L3.18302 7.27049C2.8992 7.10492 2.80457 6.74224 2.97014 6.45841C3.1357 6.17459 3.49048 6.07996 3.78219 6.24553L10.4442 10.1008L17.0668 6.2692C17.3506 6.10364 17.7133 6.20615 17.8788 6.48209C18.0444 6.76591 17.9419 7.12855 17.666 7.29412L10.7517 11.2992C10.6492 11.3465 10.5467 11.378 10.4442 11.378Z" fill="black"/>
<path d="M10.4448 18.5209C10.1216 18.5209 9.85352 18.2529 9.85352 17.9296V10.7788C9.85352 10.4556 10.1216 10.1875 10.4448 10.1875C10.7681 10.1875 11.0361 10.4556 11.0361 10.7788V17.9296C11.0361 18.2529 10.7681 18.5209 10.4448 18.5209Z" fill="black"/>
<path d="M10.4471 18.8276C9.75335 18.8276 9.06744 18.6778 8.52344 18.3782L4.31337 16.0367C3.17018 15.406 2.2793 13.8843 2.2793 12.5756V8.12109C2.2793 6.81234 3.17018 5.29864 4.31337 4.66003L8.52344 2.32634C9.60355 1.72716 11.2907 1.72716 12.3708 2.32634L16.5809 4.66788C17.7241 5.2986 18.615 6.82023 18.615 8.12898V12.5835C18.615 13.8922 17.7241 15.4059 16.5809 16.0445L12.3708 18.3782C11.8268 18.6778 11.1409 18.8276 10.4471 18.8276ZM10.4471 3.05955C9.95045 3.05955 9.46165 3.16205 9.09898 3.35915L4.88891 5.70068C4.13204 6.12642 3.4619 7.25385 3.4619 8.12898V12.5835C3.4619 13.4507 4.13204 14.586 4.88891 15.0117L9.09898 17.3533C9.81643 17.7554 11.0779 17.7554 11.7953 17.3533L16.0054 15.0117C16.7622 14.586 17.4324 13.4586 17.4324 12.5835V8.12898C17.4324 7.26173 16.7622 6.12642 16.0054 5.70068L11.7953 3.35915C11.4326 3.16205 10.9438 3.05955 10.4471 3.05955Z" fill="black"/>
<path d="M14.3903 11.9224C14.0671 11.9224 13.799 11.6543 13.799 11.3311V8.79242L6.6088 4.64541C6.32498 4.47985 6.23035 4.11716 6.39592 3.84122C6.56148 3.5574 6.91628 3.46277 7.2001 3.62834L14.682 7.94882C14.8634 8.05131 14.9816 8.24839 14.9816 8.46125V11.3468C14.9816 11.6543 14.7136 11.9224 14.3903 11.9224Z" fill="black"/>
</svg>
