<svg width="15" height="16" viewBox="0 0 15 16" fill="none" xmlns="http://www.w3.org/2000/svg">
<path d="M7.54649 0.335938C3.44972 0.335938 0.111328 3.67433 0.111328 7.7711C0.111328 11.8679 3.44972 15.2063 7.54649 15.2063C11.6433 15.2063 14.9817 11.8679 14.9817 7.7711C14.9817 3.67433 11.6433 0.335938 7.54649 0.335938ZM10.7808 10.4255C10.6767 10.6039 10.4908 10.7006 10.2975 10.7006C10.2008 10.7006 10.1042 10.6783 10.015 10.6188L7.71007 9.24327C7.13756 8.90125 6.71376 8.1503 6.71376 7.48857V4.44015C6.71376 4.13531 6.96655 3.88251 7.27139 3.88251C7.57623 3.88251 7.82903 4.13531 7.82903 4.44015V7.48857C7.82903 7.75623 8.05208 8.1503 8.28257 8.28413L10.5875 9.65964C10.8551 9.81577 10.9444 10.1578 10.7808 10.4255Z" fill="#8E8E8E"/>
</svg>
