<svg width="28" height="28" viewBox="0 0 28 28" fill="none" xmlns="http://www.w3.org/2000/svg">
<path d="M14.0038 15.5193C13.8521 15.5193 13.7005 15.4843 13.5605 15.4026L3.25881 9.44098C2.83881 9.19598 2.69879 8.65928 2.94379 8.23928C3.18879 7.81928 3.71379 7.67926 4.14546 7.92426L14.0038 13.6293L23.8038 7.95929C24.2238 7.71429 24.7605 7.86598 25.0055 8.27432C25.2505 8.69432 25.0988 9.23095 24.6905 9.47595L14.4588 15.4026C14.3072 15.4726 14.1555 15.5193 14.0038 15.5193Z" fill="#10A12C"/>
<path d="M14 26.0885C13.5217 26.0885 13.125 25.6918 13.125 25.2135V14.6318C13.125 14.1535 13.5217 13.7568 14 13.7568C14.4783 13.7568 14.875 14.1535 14.875 14.6318V25.2135C14.875 25.6918 14.4783 26.0885 14 26.0885Z" fill="#10A12C"/>
<path d="M14.0066 26.5433C12.9799 26.5433 11.9649 26.3216 11.1599 25.8783L4.92991 22.4133C3.23824 21.48 1.91992 19.2283 1.91992 17.2916V10.6999C1.91992 8.76327 3.23824 6.52332 4.92991 5.57832L11.1599 2.12496C12.7582 1.23829 15.2549 1.23829 16.8532 2.12496L23.0832 5.58993C24.7749 6.52326 26.0932 8.77494 26.0932 10.7116V17.3033C26.0932 19.24 24.7749 21.4799 23.0832 22.4249L16.8532 25.8783C16.0482 26.3216 15.0332 26.5433 14.0066 26.5433ZM14.0066 3.20995C13.2716 3.20995 12.5482 3.36162 12.0116 3.65329L5.78159 7.11826C4.66159 7.74826 3.66992 9.41661 3.66992 10.7116V17.3033C3.66992 18.5866 4.66159 20.2666 5.78159 20.8966L12.0116 24.3616C13.0732 24.9566 14.9399 24.9566 16.0016 24.3616L22.2316 20.8966C23.3516 20.2666 24.3432 18.5983 24.3432 17.3033V10.7116C24.3432 9.42828 23.3516 7.74826 22.2316 7.11826L16.0016 3.65329C15.4649 3.36162 14.7416 3.20995 14.0066 3.20995Z" fill="#10A12C"/>
<path d="M19.8334 16.3236C19.355 16.3236 18.9584 15.9269 18.9584 15.4486V11.692L8.31838 5.55528C7.89838 5.31028 7.75836 4.77359 8.00336 4.36526C8.24836 3.94526 8.77338 3.80524 9.19338 4.05024L20.265 10.4436C20.5334 10.5953 20.7084 10.8869 20.7084 11.2019V15.4719C20.7084 15.9269 20.3117 16.3236 19.8334 16.3236Z" fill="#10A12C"/>
</svg>
