<svg width="21" height="20" viewBox="0 0 21 20" fill="none" xmlns="http://www.w3.org/2000/svg">
<path d="M13.0137 18.2581C12.7932 18.2581 12.5891 18.139 12.4829 17.9563C12.3768 17.7737 12.3768 17.5434 12.4911 17.3607L13.3485 15.971C13.52 15.6851 13.8956 15.5977 14.1895 15.7645C14.4835 15.9312 14.5733 16.2966 14.4018 16.5825L14.1814 16.9399C16.4351 16.4237 18.1253 14.4541 18.1253 12.1034C18.1253 11.7778 18.403 11.5078 18.7378 11.5078C19.0726 11.5078 19.3502 11.7778 19.3502 12.1034C19.342 15.4945 16.5004 18.2581 13.0137 18.2581Z" fill="#10A12C"/>
<path d="M2.39758 7.93391C2.06279 7.93391 1.78516 7.6639 1.78516 7.33829C1.78516 3.94725 4.62679 1.18359 8.1135 1.18359C8.33397 1.18359 8.53811 1.30272 8.64426 1.48538C8.75041 1.66803 8.75042 1.89834 8.6361 2.08099L7.77871 3.47076C7.60723 3.75666 7.23161 3.84402 6.93765 3.67725C6.64369 3.51048 6.55387 3.14514 6.72535 2.85925L6.94582 2.50187C4.69212 3.01807 3.00184 4.9876 3.00184 7.33829C3.01 7.6639 2.73237 7.93391 2.39758 7.93391Z" fill="#10A12C"/>
<path d="M15.2026 6.14739C15.0964 6.14739 14.9903 6.12359 14.8923 6.068L11.6506 4.2414C11.3566 4.07463 11.2586 3.70934 11.4301 3.42345C11.6016 3.13755 11.9772 3.04224 12.263 3.20901L15.2026 4.86087L18.1177 3.21696C18.4117 3.05019 18.7873 3.15344 18.9506 3.4314C19.1221 3.71729 19.0159 4.08258 18.7301 4.24935L15.5047 6.06005C15.4149 6.11564 15.3087 6.14739 15.2026 6.14739Z" fill="#10A12C"/>
<path d="M15.2023 9.37866C14.8675 9.37866 14.5898 9.10865 14.5898 8.78305V5.54288C14.5898 5.21728 14.8675 4.94727 15.2023 4.94727C15.5371 4.94727 15.8147 5.21728 15.8147 5.54288V8.78305C15.8147 9.11659 15.5371 9.37866 15.2023 9.37866Z" fill="#10A12C"/>
<path d="M15.2025 9.52401C14.8268 9.52401 14.4431 9.44459 14.1409 9.27782L12.1812 8.22158C11.5443 7.88009 11.0625 7.07803 11.0625 6.37123V4.35405C11.0625 3.63931 11.5443 2.84518 12.1894 2.49575L14.1491 1.43952C14.7534 1.11391 15.6597 1.11391 16.2722 1.43952L18.2319 2.49575C18.8688 2.83724 19.3506 3.6393 19.3506 4.3461V6.36329C19.3506 7.07802 18.8688 7.87214 18.2319 8.21363L16.2722 9.26987C15.9537 9.44459 15.5781 9.52401 15.2025 9.52401ZM14.737 2.47191L12.7773 3.52815C12.5323 3.66315 12.2873 4.06814 12.2873 4.33815V6.35534C12.2873 6.63329 12.5323 7.03832 12.7773 7.16539L14.737 8.22953C14.9738 8.35659 15.4311 8.35659 15.6679 8.22953L17.6276 7.17329C17.8726 7.03828 18.1176 6.6333 18.1176 6.36329V4.3461C18.1176 4.06815 17.8726 3.66316 17.6276 3.5361L15.6679 2.47986C15.4311 2.34485 14.9657 2.34484 14.737 2.47191Z" fill="#10A12C"/>
<path d="M5.92721 14.8837C5.82105 14.8837 5.7149 14.8599 5.61691 14.8043L2.37516 12.9777C2.0812 12.811 1.98321 12.4457 2.15469 12.1598C2.32617 11.8739 2.70179 11.7786 2.98758 11.9453L5.92721 13.5972L8.84232 11.9533C9.13628 11.7865 9.51191 11.8898 9.67522 12.1677C9.8467 12.4536 9.74054 12.8189 9.45474 12.9857L6.22933 14.7964C6.13951 14.852 6.03336 14.8837 5.92721 14.8837Z" fill="#10A12C"/>
<path d="M5.92687 18.115C5.59208 18.115 5.31445 17.845 5.31445 17.5194V14.2792C5.31445 13.9536 5.59208 13.6836 5.92687 13.6836C6.26166 13.6836 6.53929 13.9536 6.53929 14.2792V17.5194C6.53929 17.8529 6.26983 18.115 5.92687 18.115Z" fill="#10A12C"/>
<path d="M5.92512 18.2582C5.54951 18.2582 5.16572 18.1788 4.86359 18.0121L2.90384 16.9558C2.26692 16.6143 1.78516 15.8123 1.78516 15.1055V13.0883C1.78516 12.3735 2.26692 11.5794 2.90384 11.2379L4.86359 10.1817C5.46785 9.8561 6.38239 9.8561 6.98664 10.1817L8.9464 11.2379C9.58331 11.5794 10.0651 12.3815 10.0651 13.0883V15.1055C10.0651 15.8202 9.58331 16.6143 8.93822 16.9638L6.97848 18.02C6.68452 18.1788 6.30891 18.2582 5.92512 18.2582ZM5.45968 11.2061L3.49994 12.2624C3.25497 12.3974 3.01 12.8024 3.01 13.0724V15.0896C3.01 15.3675 3.25497 15.7726 3.49994 15.8996L5.45968 16.9558C5.69648 17.0829 6.15375 17.0829 6.39056 16.9558L8.3503 15.8996C8.59527 15.7646 8.84024 15.3596 8.84024 15.0896V13.0724C8.84024 12.7944 8.59527 12.3894 8.3503 12.2624L6.39056 11.1982C6.16192 11.0791 5.69648 11.0791 5.45968 11.2061Z" fill="#10A12C"/>
</svg>
