<svg width="22" height="22" viewBox="0 0 22 22" fill="none" xmlns="http://www.w3.org/2000/svg">
<path d="M11.2063 20.7499L11.2029 20.7499C9.57017 20.7604 7.96163 20.3552 6.52877 19.5723L6.48255 19.5471L6.43394 19.5268C6.28039 19.4629 6.11568 19.4299 5.94932 19.4299C5.81023 19.4299 5.6723 19.4529 5.54108 19.4979L2.04676 20.4878L2.03136 20.4921L2.01611 20.497C1.97429 20.5103 1.92963 20.5119 1.88698 20.5016C1.84432 20.4913 1.80531 20.4695 1.77418 20.4385C1.74305 20.4076 1.721 20.3687 1.71042 20.3261C1.69984 20.2836 1.70114 20.2389 1.71417 20.197L1.71424 20.197L1.71752 20.186L2.77125 16.657C2.86337 16.3811 2.85808 16.0813 2.75538 15.8081L2.73051 15.7419L2.69659 15.6799C1.71334 13.8828 1.32109 11.8217 1.5755 9.78911C1.82991 7.75649 2.71806 5.85563 4.1139 4.35633C5.50974 2.85703 7.34235 1.83546 9.35162 1.43661C11.3609 1.03776 13.4448 1.28189 15.3074 2.13435C17.1701 2.98682 18.717 4.40431 19.7285 6.18564C20.74 7.96697 21.1647 10.0216 20.9424 12.058C20.7201 14.0944 19.8621 16.009 18.4901 17.5302C17.1189 19.0505 15.3039 20.1006 13.3024 20.5315C12.6129 20.6746 11.9106 20.7478 11.2063 20.7499Z" stroke="#12B76A" stroke-width="2"/>
<path d="M7.20898 12.7002C7.89934 12.7002 8.45898 12.1406 8.45898 11.4502C8.45898 10.7598 7.89934 10.2002 7.20898 10.2002C6.51863 10.2002 5.95898 10.7598 5.95898 11.4502C5.95898 12.1406 6.51863 12.7002 7.20898 12.7002Z" fill="#12B76A"/>
<path d="M11.209 12.7002C11.8993 12.7002 12.459 12.1406 12.459 11.4502C12.459 10.7598 11.8993 10.2002 11.209 10.2002C10.5186 10.2002 9.95898 10.7598 9.95898 11.4502C9.95898 12.1406 10.5186 12.7002 11.209 12.7002Z" fill="#12B76A"/>
<path d="M15.209 12.7002C15.8993 12.7002 16.459 12.1406 16.459 11.4502C16.459 10.7598 15.8993 10.2002 15.209 10.2002C14.5186 10.2002 13.959 10.7598 13.959 11.4502C13.959 12.1406 14.5186 12.7002 15.209 12.7002Z" fill="#12B76A"/>
</svg>
