<svg width="28" height="28" viewBox="0 0 28 28" fill="none" xmlns="http://www.w3.org/2000/svg">
<path d="M15.1663 17.208H2.33301C1.85467 17.208 1.45801 16.8113 1.45801 16.333V6.99967C1.45801 3.94301 3.94301 1.45801 6.99967 1.45801H17.4997C17.978 1.45801 18.3747 1.85467 18.3747 2.33301V13.9997C18.3747 15.773 16.9397 17.208 15.1663 17.208ZM3.20801 15.458H15.1663C15.9713 15.458 16.6247 14.8047 16.6247 13.9997V3.20801H6.99967C4.91134 3.20801 3.20801 4.91134 3.20801 6.99967V15.458Z" fill="#10A12C"/>
<path d="M22.1663 24.208H20.9997C20.5213 24.208 20.1247 23.8113 20.1247 23.333C20.1247 22.528 19.4713 21.8747 18.6663 21.8747C17.8613 21.8747 17.208 22.528 17.208 23.333C17.208 23.8113 16.8113 24.208 16.333 24.208H11.6663C11.188 24.208 10.7913 23.8113 10.7913 23.333C10.7913 22.528 10.138 21.8747 9.33301 21.8747C8.52801 21.8747 7.87467 22.528 7.87467 23.333C7.87467 23.8113 7.47801 24.208 6.99967 24.208H5.83301C3.41801 24.208 1.45801 22.248 1.45801 19.833V16.333C1.45801 15.8547 1.85467 15.458 2.33301 15.458H15.1663C15.9713 15.458 16.6247 14.8047 16.6247 13.9997V5.83301C16.6247 5.35467 17.0213 4.95801 17.4997 4.95801H19.6463C20.8013 4.95801 21.863 5.57636 22.4347 6.57969L24.4297 10.068C24.5813 10.3363 24.5813 10.6747 24.4297 10.943C24.278 11.2113 23.9864 11.3747 23.6714 11.3747H22.1663C22.003 11.3747 21.8747 11.503 21.8747 11.6663V15.1663C21.8747 15.3297 22.003 15.458 22.1663 15.458H25.6663C26.1447 15.458 26.5413 15.8547 26.5413 16.333V19.833C26.5413 22.248 24.5813 24.208 22.1663 24.208ZM21.758 22.458H22.1663C23.613 22.458 24.7913 21.2797 24.7913 19.833V17.208H22.1663C21.0463 17.208 20.1247 16.2863 20.1247 15.1663V11.6663C20.1247 10.5463 21.0347 9.62467 22.1663 9.62467L20.918 7.44301C20.6613 6.98801 20.1713 6.70801 19.6463 6.70801H18.3747V13.9997C18.3747 15.773 16.9397 17.208 15.1663 17.208H3.20801V19.833C3.20801 21.2797 4.38634 22.458 5.83301 22.458H6.24135C6.62635 21.1163 7.86301 20.1247 9.33301 20.1247C10.803 20.1247 12.0397 21.1163 12.4247 22.458H15.5863C15.9713 21.1163 17.208 20.1247 18.678 20.1247C20.148 20.1247 21.373 21.1163 21.758 22.458Z" fill="#10A12C"/>
<path d="M9.33333 26.5417C7.56 26.5417 6.125 25.1067 6.125 23.3333C6.125 21.56 7.56 20.125 9.33333 20.125C11.1067 20.125 12.5417 21.56 12.5417 23.3333C12.5417 25.1067 11.1067 26.5417 9.33333 26.5417ZM9.33333 21.875C8.52833 21.875 7.875 22.5283 7.875 23.3333C7.875 24.1383 8.52833 24.7917 9.33333 24.7917C10.1383 24.7917 10.7917 24.1383 10.7917 23.3333C10.7917 22.5283 10.1383 21.875 9.33333 21.875Z" fill="#10A12C"/>
<path d="M18.6663 26.5417C16.893 26.5417 15.458 25.1067 15.458 23.3333C15.458 21.56 16.893 20.125 18.6663 20.125C20.4397 20.125 21.8747 21.56 21.8747 23.3333C21.8747 25.1067 20.4397 26.5417 18.6663 26.5417ZM18.6663 21.875C17.8613 21.875 17.208 22.5283 17.208 23.3333C17.208 24.1383 17.8613 24.7917 18.6663 24.7917C19.4713 24.7917 20.1247 24.1383 20.1247 23.3333C20.1247 22.5283 19.4713 21.875 18.6663 21.875Z" fill="#10A12C"/>
<path d="M25.6667 17.2083H22.1667C21.0467 17.2083 20.125 16.2867 20.125 15.1667V11.6667C20.125 10.5467 21.0467 9.625 22.1667 9.625H23.6717C23.9867 9.625 24.2783 9.78834 24.43 10.0683L26.425 13.5683C26.495 13.6967 26.5417 13.8483 26.5417 14V16.3333C26.5417 16.8117 26.145 17.2083 25.6667 17.2083ZM22.1667 11.375C22.0033 11.375 21.875 11.5033 21.875 11.6667V15.1667C21.875 15.33 22.0033 15.4583 22.1667 15.4583H24.7917V14.2333L23.1583 11.375H22.1667Z" fill="#10A12C"/>
</svg>
