<svg width="32" height="30" fill="none" xmlns="http://www.w3.org/2000/svg"><path d="M29.37 15.125c0 7.09-5.954 12.846-13.304 12.846-7.35 0-13.304-5.755-13.304-12.846 0-7.097 5.954-12.845 13.304-12.845 7.35 0 13.304 5.748 13.304 12.845z" fill="#283544"/><path d="M22.302 11.875c-.072.041-1.8.904-1.8 2.818.081 2.182 2.18 2.947 2.216 2.947-.036.04-.317 1.042-1.149 2.092-.66.905-1.393 1.816-2.506 1.816-1.06 0-1.44-.602-2.661-.602-1.312 0-1.684.602-2.688.602-1.113 0-1.9-.96-2.597-1.856-.905-1.173-1.674-3.013-1.701-4.78-.019-.936.18-1.856.687-2.638a4.172 4.172 0 013.385-1.856c1.068-.033 2.018.66 2.67.66.624 0 1.791-.66 3.112-.66.57 0 2.09.155 3.032 1.457zm-6.235-1.644c-.19-.855.335-1.71.823-2.256.625-.66 1.611-1.107 2.462-1.107.054.855-.29 1.694-.905 2.304-.552.66-1.502 1.156-2.38 1.059z" fill="#fff"/></svg>