<svg width="5" height="9" viewBox="0 0 5 9" fill="none" xmlns="http://www.w3.org/2000/svg">
<path d="M1.41889 5.07597H0.420717C0.259397 5.07597 0.208984 5.01137 0.208984 4.84989V3.54726C0.208984 3.37501 0.26948 3.32118 0.420717 3.32118H1.41889V2.37381C1.41889 1.94319 1.48946 1.5341 1.69112 1.15731C1.90285 0.769746 2.20532 0.511373 2.58846 0.360655C2.84052 0.263765 3.09259 0.220703 3.36481 0.220703H4.3529C4.49406 0.220703 4.55455 0.285296 4.55455 0.436014V1.66329C4.55455 1.814 4.49406 1.8786 4.3529 1.8786C4.08067 1.8786 3.80845 1.8786 3.53622 1.88936C3.26399 1.88936 3.12283 2.02932 3.12283 2.33075C3.11275 2.65372 3.12283 2.96592 3.12283 3.29965H4.29241C4.45373 3.29965 4.51422 3.36424 4.51422 3.53649V4.83912C4.51422 5.01137 4.46381 5.0652 4.29241 5.0652H3.12283V8.57477C3.12283 8.75778 3.07242 8.82238 2.89094 8.82238H1.63062C1.47938 8.82238 1.41889 8.75778 1.41889 8.5963V5.07597Z" fill="url(#paint0_linear_9852_14536)"/>
<defs>
<linearGradient id="paint0_linear_9852_14536" x1="2.38177" y1="0.220703" x2="2.38177" y2="8.82238" gradientUnits="userSpaceOnUse">
<stop stop-color="#37AC4E"/>
<stop offset="1" stop-color="#06CA2C"/>
</linearGradient>
</defs>
</svg>
