<svg width="25" height="25" fill="none" xmlns="http://www.w3.org/2000/svg"><path d="M24.252 12.487c0-.98-.082-1.696-.257-2.438H12.567v4.426h6.708c-.135 1.1-.865 2.757-2.488 3.87l-.023.148 3.613 2.743.25.025c2.3-2.08 3.625-5.142 3.625-8.774z" fill="#4285F4"/><path d="M12.566 24.15c3.286 0 6.045-1.06 8.06-2.89l-3.84-2.915c-1.028.702-2.408 1.193-4.22 1.193a7.313 7.313 0 01-6.924-4.957l-.143.012-3.757 2.85-.049.133c2.002 3.897 6.113 6.574 10.873 6.574z" fill="#37AC4E"/><path d="M5.643 14.582a7.21 7.21 0 01-.406-2.36c0-.82.149-1.616.392-2.358l-.007-.158L1.818 6.81l-.124.058a11.745 11.745 0 00-1.298 5.354c0 1.921.473 3.737 1.298 5.354l3.949-2.995z" fill="#FBBC05"/><path d="M12.566 4.907c2.286 0 3.827.967 4.706 1.776l3.435-3.287c-2.11-1.922-4.855-3.101-8.14-3.101-4.761 0-8.872 2.677-10.874 6.573L5.63 9.864c.987-2.876 3.719-4.957 6.937-4.957z" fill="#EB4335"/></svg>