<svg width="9" height="9" viewBox="0 0 9 9" fill="none" xmlns="http://www.w3.org/2000/svg">
<path d="M4.20826 2.21094C3.92954 2.21089 3.65354 2.26519 3.39603 2.37074C3.13851 2.47628 2.90453 2.631 2.70745 2.82605C2.51036 3.02111 2.35404 3.25268 2.2474 3.50754C2.14076 3.7624 2.08589 4.03556 2.08594 4.31141C2.08589 4.58726 2.14076 4.86042 2.2474 5.11528C2.35404 5.37014 2.51036 5.60171 2.70745 5.79677C2.90453 5.99182 3.13851 6.14654 3.39603 6.25209C3.65354 6.35763 3.92954 6.41193 4.20826 6.41188C4.48698 6.41193 4.76297 6.35763 5.02049 6.25209C5.278 6.14654 5.51198 5.99182 5.70906 5.79677C5.90615 5.60171 6.06247 5.37014 6.16912 5.11528C6.27576 4.86042 6.33062 4.58726 6.33057 4.31141C6.33062 4.03556 6.27576 3.7624 6.16912 3.50754C6.06247 3.25268 5.90615 3.02111 5.70906 2.82605C5.51198 2.631 5.278 2.47628 5.02049 2.37074C4.76297 2.26519 4.48698 2.21089 4.20826 2.21094ZM4.20826 5.67477C3.9359 5.67471 3.66968 5.59472 3.44326 5.44492C3.21683 5.29512 3.04036 5.08225 2.93617 4.8332C2.83198 4.58415 2.80473 4.31012 2.85788 4.04575C2.91103 3.78139 3.04219 3.53855 3.23477 3.34795C3.42736 3.15735 3.67272 3.02754 3.93984 2.97494C4.20696 2.92233 4.48384 2.9493 4.73547 3.05242C4.98711 3.15554 5.2022 3.33019 5.35356 3.55428C5.50491 3.77838 5.58573 4.04186 5.5858 4.31141C5.58589 4.49047 5.55032 4.6678 5.48112 4.83325C5.41193 4.9987 5.31046 5.14904 5.18253 5.27565C5.05459 5.40227 4.9027 5.50269 4.73553 5.57118C4.56835 5.63966 4.38918 5.67486 4.20826 5.67477Z" fill="url(#paint0_linear_9852_14530)"/>
<path d="M5.91337 0.246417C5.1524 0.211284 3.26754 0.21299 2.50588 0.246417C1.83658 0.277457 1.2462 0.437431 0.770248 0.908486C-0.0251904 1.69574 0.0764797 2.75655 0.0764797 4.31229C0.0764797 5.90453 -0.0131278 6.94078 0.770248 7.71609C1.56879 8.50607 2.65614 8.40272 4.20945 8.40272C5.80309 8.40272 6.35314 8.40374 6.91663 8.18783C7.68278 7.89346 8.26109 7.2157 8.31761 5.99833C8.35345 5.24484 8.35139 3.37973 8.31761 2.62591C8.24937 1.18887 7.47013 0.317365 5.91337 0.246417ZM7.1179 7.19524C6.59646 7.71131 5.87305 7.66527 4.19946 7.66527C2.47624 7.66527 1.78523 7.69051 1.28101 7.19012C0.700286 6.6181 0.805402 5.69953 0.805402 4.30683C0.805402 2.42227 0.609989 1.06505 2.52104 0.968177C2.96012 0.952828 3.08936 0.947712 4.19463 0.947712L4.21014 0.957945C6.04675 0.957945 7.48771 0.767613 7.57421 2.65865C7.59386 3.09014 7.59834 3.21976 7.59834 4.31195C7.59799 5.99765 7.63039 6.68564 7.1179 7.19524Z" fill="url(#paint1_linear_9852_14530)"/>
<path d="M6.41501 2.62035C6.68845 2.62035 6.91011 2.40059 6.91011 2.12951C6.91011 1.85843 6.68845 1.63867 6.41501 1.63867C6.14158 1.63867 5.91992 1.85843 5.91992 2.12951C5.91992 2.40059 6.14158 2.62035 6.41501 2.62035Z" fill="url(#paint2_linear_9852_14530)"/>
<defs>
<linearGradient id="paint0_linear_9852_14530" x1="4.20826" y1="2.21094" x2="4.20826" y2="6.41188" gradientUnits="userSpaceOnUse">
<stop stop-color="#37AC4E"/>
<stop offset="1" stop-color="#06CA2C"/>
</linearGradient>
<linearGradient id="paint1_linear_9852_14530" x1="4.20799" y1="0.220703" x2="4.20799" y2="8.40716" gradientUnits="userSpaceOnUse">
<stop stop-color="#37AC4E"/>
<stop offset="1" stop-color="#06CA2C"/>
</linearGradient>
<linearGradient id="paint2_linear_9852_14530" x1="6.41501" y1="1.63867" x2="6.41501" y2="2.62035" gradientUnits="userSpaceOnUse">
<stop stop-color="#37AC4E"/>
<stop offset="1" stop-color="#06CA2C"/>
</linearGradient>
</defs>
</svg>
