<svg width="24" height="28" viewBox="0 0 24 23" fill="none" xmlns="http://www.w3.org/2000/svg">
<g clip-path="url(#clip0_9852_14490)">
<path d="M12.7339 11.2748L17.8138 18.5408H15.729L11.5837 12.6118V12.6114L10.9751 11.741L6.13281 4.81445H8.21759L12.1253 10.4045L12.7339 11.2748Z" fill="black"/>
<path d="M20.8277 0.373047H3.13247C1.78542 0.373047 0.693359 1.46511 0.693359 2.81215V20.5074C0.693359 21.8544 1.78542 22.9465 3.13247 22.9465H20.8277C22.1747 22.9465 23.2668 21.8544 23.2668 20.5074V2.81215C23.2668 1.46511 22.1747 0.373047 20.8277 0.373047ZM15.0914 19.5157L10.8967 13.4108L5.64479 19.5157H4.28744L10.294 12.534L4.28744 3.79217H8.86872L12.8409 9.57314L17.814 3.79217H19.1714L13.4437 10.4501H13.4434L19.6727 19.5157H15.0914Z" fill="black"/>
</g>
<defs>
<clipPath id="clip0_9852_14490">
<rect width="22.5734" height="22.5734" fill="white" transform="translate(0.695312 0.369141)"/>
</clipPath>
</defs>
</svg>
