<svg width="9" height="10" viewBox="0 0 9 10" fill="none" xmlns="http://www.w3.org/2000/svg">
<path d="M7.50288 1.95046C6.67482 1.134 5.57327 0.684054 4.4009 0.683594C3.23116 0.683594 2.12785 1.13313 1.29436 1.9494C0.459384 2.76703 -0.000868517 3.85366 -0.00195312 5.00511V5.00724C-0.0018154 5.70416 0.183188 6.40721 0.53436 7.04896L0.0100981 9.40745L2.42054 8.8648C3.03102 9.1693 3.71221 9.32984 4.39925 9.33011H4.40099C5.57054 9.33011 6.67384 8.88051 7.50746 8.06418C8.34317 7.24586 8.80365 6.16062 8.80417 5.00844C8.80451 3.86439 8.34243 2.77836 7.5029 1.95046H7.50288ZM4.4009 8.64922H4.39935C3.78247 8.64895 3.17123 8.49567 2.63182 8.20582L2.51785 8.14459L0.915005 8.5054L1.26315 6.93942L1.19604 6.82488C0.862341 6.25534 0.685998 5.62663 0.685998 5.0065C0.687272 2.99933 2.35359 1.36446 4.40074 1.36446C5.38974 1.36487 6.31899 1.74433 7.01732 2.43279C7.7262 3.13191 8.11646 4.04655 8.11611 5.00826C8.1153 7.0159 6.44864 8.64922 4.4009 8.64922Z" fill="url(#paint0_linear_9852_14539)"/>
<path d="M3.20664 3.09961H3.01365C2.94645 3.09961 2.83737 3.1245 2.74511 3.22387C2.65276 3.32331 2.39258 3.56366 2.39258 4.05247C2.39258 4.54128 2.75351 5.01354 2.80382 5.07991C2.85419 5.14619 3.50053 6.18129 4.52421 6.57952C5.37499 6.91045 5.54815 6.84461 5.73276 6.82805C5.91742 6.81152 6.32865 6.58777 6.41258 6.35582C6.49651 6.12387 6.49651 5.925 6.47136 5.88346C6.44614 5.84205 6.37896 5.81723 6.27828 5.76759C6.17755 5.71786 5.68393 5.47347 5.5916 5.44024C5.49926 5.40717 5.43215 5.39059 5.36497 5.4901C5.29778 5.5894 5.1 5.81917 5.04122 5.88545C4.98252 5.95182 4.92374 5.96013 4.82299 5.91041C4.72225 5.86056 4.4012 5.75381 4.01646 5.41544C3.717 5.15205 3.50921 4.8162 3.45041 4.71676C3.39171 4.61739 3.44417 4.56362 3.49466 4.51403C3.53994 4.46956 3.60105 4.40873 3.65143 4.35077C3.70173 4.29273 3.71606 4.25133 3.74968 4.18503C3.78325 4.11875 3.76643 4.06072 3.74128 4.01106C3.71606 3.96133 3.52279 3.47008 3.4332 3.27359H3.43327C3.35783 3.10815 3.27839 3.10252 3.20664 3.09961Z" fill="url(#paint1_linear_9852_14539)"/>
<defs>
<linearGradient id="paint0_linear_9852_14539" x1="4.40111" y1="0.683594" x2="4.40111" y2="9.40745" gradientUnits="userSpaceOnUse">
<stop stop-color="#37AC4E"/>
<stop offset="1" stop-color="#06CA2C"/>
</linearGradient>
<linearGradient id="paint1_linear_9852_14539" x1="4.43929" y1="3.09961" x2="4.43929" y2="6.84452" gradientUnits="userSpaceOnUse">
<stop stop-color="#37AC4E"/>
<stop offset="1" stop-color="#06CA2C"/>
</linearGradient>
</defs>
</svg>
